<?xml version="1.0" encoding="UTF-8" standalone="no"?>
<!-- Created with Inkscape (http://www.inkscape.org/) -->

<svg
   width="156.98357"
   height="104.96072"
   id="svg4189"
   version="1.1"
   inkscape:version="1.1.2 (0a00cf5339, 2022-02-04)"
   sodipodi:docname="gs-cloud-bg.svg"
   inkscape:output_extension="org.inkscape.output.svg.inkscape"
   inkscape:export-filename="D:\Cliparts\New\cloud.png"
   inkscape:export-xdpi="76.224487"
   inkscape:export-ydpi="76.224487"
   xmlns:inkscape="http://www.inkscape.org/namespaces/inkscape"
   xmlns:sodipodi="http://sodipodi.sourceforge.net/DTD/sodipodi-0.dtd"
   xmlns:xlink="http://www.w3.org/1999/xlink"
   xmlns="http://www.w3.org/2000/svg"
   xmlns:svg="http://www.w3.org/2000/svg"
   xmlns:rdf="http://www.w3.org/1999/02/22-rdf-syntax-ns#"
   xmlns:cc="http://creativecommons.org/ns#"
   xmlns:dc="http://purl.org/dc/elements/1.1/">
  <title
     id="title4428">Cloud</title>
  <defs
     id="defs4191">
    <inkscape:perspective
       sodipodi:type="inkscape:persp3d"
       inkscape:vp_x="0 : 55.960716 : 1"
       inkscape:vp_y="0 : 1000 : 0"
       inkscape:vp_z="151 : 55.960716 : 1"
       inkscape:persp3d-origin="75.5 : 39.627383 : 1"
       id="perspective4636" />
    <linearGradient
       id="SVGID_3_"
       gradientUnits="userSpaceOnUse"
       x1="-1.1152"
       y1="578.58588"
       x2="0.59909999"
       y2="578.58588"
       gradientTransform="matrix(62.1889,-26.3976,-26.3976,-62.1889,15385.853,36072.457)">
      <stop
         offset="0"
         style="stop-color:#0092C8"
         id="stop666" />
      <stop
         offset="1"
         style="stop-color:#00AFDD"
         id="stop668" />
    </linearGradient>
    <clipPath
       id="SVGID_2_">
      <use
         xlink:href="#SVGID_1_"
         overflow="visible"
         id="use663"
         x="0"
         y="0"
         width="100%"
         height="100%" />
    </clipPath>
    <mask
       maskUnits="userSpaceOnUse"
       x="-31.977"
       y="-31.433"
       width="256.283"
       height="256.283"
       id="SVGID_4_">
      <g
         filter="url(#Adobe_OpacityMaskFilter)"
         id="g700">
        <rect
           x="32.070999"
           y="32.618"
           width="128.185"
           height="128.179"
           id="rect680" />
        <g
           enable-background="new    "
           id="g698">
          <path
             fill="#ffffff"
             d="m 74.216,116.232 c 10.716,-7.749 -7.75,-15.5 -12.309,-17.778 -4.558,-2.279 0,-6.838 4.787,-8.89 4.789,-2.051 3.177,13.009 8.89,7.294 5.471,-5.47 -9.345,-11.852 3.305,-19.491 12.653,-7.635 -5.584,-5.582 -5.584,-12.65 0,-7.067 7.979,-7.977 7.979,-13.449 0,-3.58 -6.162,-4.171 -10.424,-4.154 l -31.189,31.19 c -0.694,0.693 -1.335,1.418 -1.933,2.168 0.148,5.851 7.16,6.814 11.175,6.814 5.016,0 7.751,7.751 2.737,12.765 -5.014,5.016 -5.387,13.595 -2.114,16.866 2.203,2.206 1.443,6.312 0.708,8.771 l 5.916,5.912 c 1.621,-5.203 8.685,-8.588 18.056,-15.368"
             id="path682" />
          <path
             fill="#ffffff"
             d="m 93.543,41.044 c 8.619,-1.109 0.641,5.976 4.737,7.768 3.704,1.618 13.599,-3.339 14.686,-10.062 -4.831,-4.083 -10.832,-6.132 -16.809,-6.13 -2.662,0 -5.327,0.412 -7.891,1.224 -0.473,3.449 -0.092,7.893 5.277,7.2"
             id="path684" />
          <path
             fill="#ffffff"
             d="m 114.599,89.498 c -1.434,-5.905 -15.203,-8.056 -21.801,-3.249 -9.726,7.087 -11.281,20.726 -3.728,21.498 7.554,0.773 14.438,8.093 10.643,15.337 -3.793,7.244 4.584,24.899 13.775,12.095 9.192,-12.803 4.615,-15.301 5.34,-22.352 0.72,-7.048 9.363,-15.99 7.246,-18.594 -2.122,-2.604 -10.352,-0.11 -11.475,-4.735"
             id="path686" />
          <path
             fill="#ffffff"
             d="m 83.665,157.613 c 3.879,2.117 8.191,3.182 12.494,3.182 h 0.012 c 6.651,0 13.338,-2.534 18.402,-7.597 l 3.215,-3.213 c -5.481,-1.025 -24.537,4.611 -34.123,7.628"
             id="path688" />
          <path
             fill="#ffffff"
             d="m 138.319,107.358 c -10.275,3.558 -17.391,15.021 -11.461,16.601 5.588,1.488 11.523,-2.986 15.498,1.456 l 10.302,-10.302 c -1.985,-4.05 -5.178,-10.925 -14.339,-7.755"
             id="path690" />
          <path
             fill="#ffffff"
             d="m 105.108,65.492 c 2.338,-0.313 0.499,-2.935 -0.828,-3.516 -1.327,-0.582 -5.552,-0.283 -3.988,1.63 1.182,1.446 2.481,2.201 4.816,1.886"
             id="path692" />
          <path
             fill="#ffffff"
             d="m 154.772,96.18 c -0.018,-1.368 -5.071,-2.765 -6.405,-2.646 -1.329,0.125 -1.774,2.366 1.97,3.283 2.824,0.69 4.452,0.73 4.435,-0.637"
             id="path694" />
          <path
             fill="#ffffff"
             d="m 110.593,54.962 c -0.564,4.5 3.939,6.19 1.688,8.44 -2.251,2.25 -15.5,7.035 -12.382,8.44 8.325,3.748 -5.78,3.222 0,9.003 2.871,2.87 11.933,-2.198 10.974,-5.628 -0.27,-0.97 2.503,-4.625 4.721,-2.698 1.917,1.666 7.844,3.504 7.844,13.321 0,5.226 4.501,10.323 9.103,9.075 3.82,-1.037 4.46,-5.837 2.088,-7.598 -3.03,-2.249 5.093,-4.964 13.362,3.959 3.815,4.115 10.121,-0.905 11.415,-1.175 V 90.1 c -1.125,-4.326 -3.373,-8.424 -6.745,-11.798 L 121.155,46.8 c -5.802,0.603 -10.332,6.321 -10.562,8.162"
             id="path696" />
        </g>
      </g>
    </mask>
    <filter
       id="Adobe_OpacityMaskFilter"
       filterUnits="userSpaceOnUse"
       x="-31.976999"
       y="-31.433001"
       width="256.28299"
       height="256.28299">
      <feColorMatrix
         type="matrix"
         values="1 0 0 0 0  0 1 0 0 0  0 0 1 0 0  0 0 0 1 0"
         id="feColorMatrix675" />
    </filter>
    <clipPath
       id="SVGID_6_">
      <use
         xlink:href="#SVGID_5_"
         overflow="visible"
         id="use706"
         x="0"
         y="0"
         width="100%"
         height="100%" />
    </clipPath>
    <linearGradient
       id="SVGID_9_"
       gradientUnits="userSpaceOnUse"
       x1="-1.2285"
       y1="578.75201"
       x2="0.48590001"
       y2="578.75201"
       gradientTransform="matrix(43.2909,-44.829,-44.829,-43.2909,26057.109,25134.764)">
      <stop
         offset="0"
         style="stop-color:#8CC63F"
         id="stop715" />
      <stop
         offset="0.6137"
         style="stop-color:#C9E39F"
         id="stop717" />
      <stop
         offset="1"
         style="stop-color:#F1F6DE"
         id="stop719" />
    </linearGradient>
    <clipPath
       id="SVGID_8_">
      <use
         xlink:href="#SVGID_7_"
         overflow="visible"
         id="use712"
         x="0"
         y="0"
         width="100%"
         height="100%" />
    </clipPath>
    <clipPath
       id="SVGID_11_">
      <use
         xlink:href="#SVGID_10_"
         overflow="visible"
         id="use733"
         x="0"
         y="0"
         width="100%"
         height="100%" />
    </clipPath>
    <clipPath
       id="SVGID_13_">
      <use
         xlink:href="#SVGID_12_"
         overflow="visible"
         id="use739"
         x="0"
         y="0"
         width="100%"
         height="100%" />
    </clipPath>
    <clipPath
       id="SVGID_15_">
      <use
         xlink:href="#SVGID_14_"
         overflow="visible"
         id="use753"
         x="0"
         y="0"
         width="100%"
         height="100%" />
    </clipPath>
    <clipPath
       id="SVGID_17_">
      <use
         xlink:href="#SVGID_16_"
         overflow="visible"
         id="use759"
         x="0"
         y="0"
         width="100%"
         height="100%" />
    </clipPath>
    <path
       id="SVGID_1_"
       d="M 80,42.457 41.912,80.543 c -8.89,8.89 -8.89,23.442 0,32.337 L 80,150.965 c 8.892,8.894 23.45,8.895 32.342,0 l 38.086,-38.085 c 8.897,-8.896 8.894,-23.447 0.001,-32.337 L 112.341,42.457 c -4.447,-4.45 -10.309,-6.672 -16.169,-6.672 -5.862,0 -11.726,2.224 -16.172,6.672" />
    <rect
       id="SVGID_5_"
       x="32.075001"
       y="32.622002"
       width="128.17799"
       height="128.17599" />
    <path
       id="SVGID_7_"
       d="m 96.157,32.621 c -6.656,-0.003 -13.34,2.536 -18.4,7.597 L 39.67,78.303 c -4.984,4.983 -7.527,11.542 -7.595,18.098 v 0.569 c 0.068,6.564 2.597,13.144 7.597,18.141 l 38.084,38.087 c 5.06,5.063 11.746,7.603 18.402,7.6 h 0.007 c 6.653,0 13.341,-2.535 18.405,-7.6 l 38.084,-38.087 c 5.068,-5.065 7.599,-11.756 7.598,-18.412 10e-4,-6.651 -2.533,-13.335 -7.592,-18.395 L 114.57,40.217 C 109.508,35.151 102.821,32.62 96.169,32.62 h -0.012 z" />
    <rect
       id="SVGID_10_"
       x="32.082001"
       y="32.622002"
       width="128.177"
       height="128.17599" />
    <rect
       id="SVGID_12_"
       x="32.082001"
       y="32.622002"
       width="128.177"
       height="128.17599" />
    <rect
       id="SVGID_14_"
       x="32.082001"
       y="32.620998"
       width="124.887"
       height="87.036003" />
    <rect
       id="SVGID_16_"
       x="32.082001"
       y="32.620998"
       width="124.887"
       height="87.036003" />
    <path
       id="path3579"
       d="M 80,42.457 41.912,80.543 c -8.89,8.89 -8.89,23.442 0,32.337 L 80,150.965 c 8.892,8.894 23.45,8.895 32.342,0 l 38.086,-38.085 c 8.897,-8.896 8.894,-23.447 0.001,-32.337 L 112.341,42.457 c -4.447,-4.45 -10.309,-6.672 -16.169,-6.672 -5.862,0 -11.726,2.224 -16.172,6.672" />
    <rect
       id="rect3590"
       x="32.075001"
       y="32.622002"
       width="128.17799"
       height="128.17599" />
    <path
       id="path3595"
       d="m 96.157,32.621 c -6.656,-0.003 -13.34,2.536 -18.4,7.597 L 39.67,78.303 c -4.984,4.983 -7.527,11.542 -7.595,18.098 v 0.569 c 0.068,6.564 2.597,13.144 7.597,18.141 l 38.084,38.087 c 5.06,5.063 11.746,7.603 18.402,7.6 h 0.007 c 6.653,0 13.341,-2.535 18.405,-7.6 l 38.084,-38.087 c 5.068,-5.065 7.599,-11.756 7.598,-18.412 10e-4,-6.651 -2.533,-13.335 -7.592,-18.395 L 114.57,40.217 C 109.508,35.151 102.821,32.62 96.169,32.62 h -0.012 z" />
    <rect
       id="rect3608"
       x="32.082001"
       y="32.622002"
       width="128.177"
       height="128.17599" />
    <rect
       id="rect3613"
       x="32.082001"
       y="32.622002"
       width="128.177"
       height="128.17599" />
    <rect
       id="rect3622"
       x="32.082001"
       y="32.620998"
       width="124.887"
       height="87.036003" />
    <rect
       id="rect3627"
       x="32.082001"
       y="32.620998"
       width="124.887"
       height="87.036003" />
    <filter
       inkscape:collect="always"
       style="color-interpolation-filters:sRGB"
       id="filter1060"
       x="-0.0099191935"
       y="-0.015185565"
       width="1.0198384"
       height="1.0303711">
      <feGaussianBlur
         inkscape:collect="always"
         stdDeviation="0.61998115"
         id="feGaussianBlur1062" />
    </filter>
  </defs>
  <sodipodi:namedview
     id="base"
     pagecolor="#ffffff"
     bordercolor="#666666"
     borderopacity="1.0"
     inkscape:pageopacity="0.0"
     inkscape:pageshadow="2"
     inkscape:zoom="3.7857143"
     inkscape:cx="33.811321"
     inkscape:cy="15.849057"
     inkscape:document-units="px"
     inkscape:current-layer="layer1"
     showgrid="false"
     inkscape:showpageshadow="false"
     width="151px"
     inkscape:window-width="1920"
     inkscape:window-height="1016"
     inkscape:window-x="0"
     inkscape:window-y="0"
     inkscape:window-maximized="1"
     inkscape:pagecheckerboard="0"
     fit-margin-left="2"
     lock-margins="true"
     fit-margin-top="2"
     fit-margin-right="2"
     fit-margin-bottom="2" />
  <metadata
     id="metadata4194">
    <rdf:RDF>
      <cc:Work
         rdf:about="">
        <dc:format>image/svg+xml</dc:format>
        <dc:type
           rdf:resource="http://purl.org/dc/dcmitype/StillImage" />
        <dc:title>Cloud</dc:title>
        <dc:date>2009-11-12</dc:date>
        <dc:creator>
          <cc:Agent>
            <dc:title>Jean-Victor Balin</dc:title>
          </cc:Agent>
        </dc:creator>
        <dc:language>fr-FR</dc:language>
        <dc:subject>
          <rdf:Bag>
            <rdf:li>cloud</rdf:li>
            <rdf:li>nature</rdf:li>
            <rdf:li>sky</rdf:li>
            <rdf:li>meteo</rdf:li>
          </rdf:Bag>
        </dc:subject>
        <dc:description>jean.victor.balin@gmail.com</dc:description>
        <cc:license
           rdf:resource="http://creativecommons.org/publicdomain/zero/1.0/" />
      </cc:Work>
      <cc:License
         rdf:about="http://creativecommons.org/licenses/publicdomain/">
        <cc:permits
           rdf:resource="http://creativecommons.org/ns#Reproduction" />
        <cc:permits
           rdf:resource="http://creativecommons.org/ns#Distribution" />
        <cc:permits
           rdf:resource="http://creativecommons.org/ns#DerivativeWorks" />
      </cc:License>
    </rdf:RDF>
  </metadata>
  <g
     inkscape:label="Calque 1"
     inkscape:groupmode="layer"
     id="layer1"
     transform="translate(2.9917748,-950.88183)"
     style="display:inline;opacity:0.2;mix-blend-mode:normal;filter:url(#filter1060)">
    <g
       id="g4449">
      <path
         id="path2844"
         d="m 104.7944,978.86598 c 0,13.52888 -13.79395,24.49622 -30.80965,24.49622 -17.01571,0 -30.80966,-10.96734 -30.80966,-24.49622 0,-13.52887 13.79395,-24.4962 30.80966,-24.4962 17.0157,0 30.80965,10.96733 30.80965,24.4962 z"
         style="fill:#729fcf;fill-opacity:1;fill-rule:nonzero;stroke:none" />
      <path
         id="path2844-3"
         d="m 103.42412,979.70978 c 0,13.43025 -13.23431,24.31762 -29.55965,24.31762 -16.32535,0 -29.55966,-10.88737 -29.55966,-24.31762 0,-13.43026 13.23431,-24.31763 29.55966,-24.31763 16.32534,0 29.55965,10.88737 29.55965,24.31763 z"
         style="fill:#eeeeec;fill-opacity:1;fill-rule:nonzero;stroke:none" />
      <path
         id="path2844-9"
         d="m 106.05711,1009.9282 c 0,12.2736 -11.19345,22.2233 -25.00127,22.2233 -13.80783,0 -25.00128,-9.9497 -25.00128,-22.2233 0,-12.27363 11.19345,-22.22337 25.00128,-22.22337 13.80782,0 25.00127,9.94974 25.00127,22.22337 z"
         style="fill:#eeeeec;fill-opacity:1;fill-rule:nonzero;stroke:none" />
      <path
         id="path2844-5"
         d="m 125.75508,992.7556 c 0,12.2736 -11.19345,22.2234 -25.00127,22.2234 -13.80783,0 -25.00128,-9.9498 -25.00128,-22.2234 0,-12.27362 11.19345,-22.22336 25.00128,-22.22336 13.80782,0 25.00127,9.94974 25.00127,22.22336 z"
         style="fill:#729fcf;fill-opacity:1;fill-rule:nonzero;stroke:none" />
      <path
         id="path2844-11"
         d="m 70.19668,999.82666 c 0,12.27364 -11.19345,22.22334 -25.00127,22.22334 -13.80783,0 -25.00128,-9.9497 -25.00128,-22.22334 0,-12.27362 11.19345,-22.22336 25.00128,-22.22336 13.80782,0 25.00127,9.94974 25.00127,22.22336 z"
         style="fill:#729fcf;fill-opacity:1;fill-rule:nonzero;stroke:none" />
      <path
         id="path2844-11-1"
         d="m 72.61576,1000.9598 c 0,12.2736 -11.47328,22.2233 -25.62628,22.2233 -14.153,0 -25.62627,-9.9497 -25.62627,-22.2233 0,-12.27364 11.47327,-22.22338 25.62627,-22.22338 14.153,0 25.62628,9.94974 25.62628,22.22338 z"
         style="fill:#eeeeec;fill-opacity:1;fill-rule:nonzero;stroke:none" />
      <path
         id="path2844-1"
         d="m 40.3972,1019.2721 c 0,9.9026 -8.93215,17.9302 -19.95051,17.9302 -11.01837,0 -19.95051,-8.0276 -19.95051,-17.9302 0,-9.9026 8.93214,-17.9302 19.95051,-17.9302 11.01836,0 19.95051,8.0276 19.95051,17.9302 z"
         style="fill:#729fcf;fill-opacity:1;fill-rule:nonzero;stroke:none" />
      <path
         id="path2844-1-76"
         d="m 40.95786,1019.699 c 0,9.3048 -8.77225,16.8479 -19.59337,16.8479 -10.82112,0 -19.59338,-7.5431 -19.59338,-16.8479 0,-9.3049 8.77226,-16.848 19.59338,-16.848 10.82112,0 19.59337,7.5431 19.59337,16.848 z"
         style="fill:#eeeeec;fill-opacity:1;fill-rule:nonzero;stroke:none" />
      <path
         id="path2844-5-4"
         d="m 126.18719,994.88834 c 0,12.86536 -11.39333,23.29476 -25.44771,23.29476 -14.05438,0 -25.44771,-10.4294 -25.44771,-23.29476 0,-12.86535 11.39333,-23.29478 25.44771,-23.29478 14.05438,0 25.44771,10.42943 25.44771,23.29478 z"
         style="fill:#eeeeec;fill-opacity:1;fill-rule:nonzero;stroke:none" />
      <path
         id="path2844-2"
         d="m 150.50382,1000.3317 c 0,12.2737 -11.19345,22.2234 -25.00127,22.2234 -13.80783,0 -25.00128,-9.9497 -25.00128,-22.2234 0,-12.27358 11.19345,-22.22332 25.00128,-22.22332 13.80782,0 25.00127,9.94974 25.00127,22.22332 z"
         style="fill:#729fcf;fill-opacity:1;fill-rule:nonzero;stroke:none" />
      <path
         id="path2844-2-2"
         d="m 149.75861,1000.2455 c 0,11.5833 -11.2734,20.9733 -25.17984,20.9733 -13.90645,0 -25.17985,-9.39 -25.17985,-20.9733 0,-11.58327 11.2734,-20.97337 25.17985,-20.97337 13.90644,0 25.17984,9.3901 25.17984,20.97337 z"
         style="fill:#eeeeec;fill-opacity:1;fill-rule:nonzero;stroke:none" />
      <path
         id="path2844-1-7"
         d="m 41.91242,1033.6668 c 0,6.5552 -5.201,11.8693 -11.61676,11.8693 -6.41575,0 -11.61675,-5.3141 -11.61675,-11.8693 0,-6.5553 5.201,-11.8693 11.61675,-11.8693 6.41576,0 11.61676,5.314 11.61676,11.8693 z"
         style="fill:#729fcf;fill-opacity:1;fill-rule:nonzero;stroke:none" />
      <path
         id="path2844-1-7-2"
         d="m 42.26694,1032.9241 c 0,6.4566 -5.12105,11.6907 -11.43818,11.6907 -6.31714,0 -11.43819,-5.2341 -11.43819,-11.6907 0,-6.4566 5.12105,-11.6908 11.43819,-11.6908 6.31713,0 11.43818,5.2342 11.43818,11.6908 z"
         style="fill:#eeeeec;fill-opacity:1;fill-rule:nonzero;stroke:none" />
      <path
         id="path2844-4"
         d="m 84.33882,1030.1312 c 0,12.2737 -11.19345,22.2234 -25.00127,22.2234 -13.80783,0 -25.00128,-9.9497 -25.00128,-22.2234 0,-12.2736 11.19345,-22.2233 25.00128,-22.2233 13.80782,0 25.00127,9.9497 25.00127,22.2233 z"
         style="fill:#729fcf;fill-opacity:1;fill-rule:nonzero;stroke:none" />
      <path
         id="path2844-4-2"
         d="m 84.47542,1029.5542 c 0,12.0144 -10.93019,21.7539 -24.41325,21.7539 -13.48308,0 -24.41327,-9.7395 -24.41327,-21.7539 0,-12.0144 10.93019,-21.754 24.41327,-21.754 13.48306,0 24.41325,9.7396 24.41325,21.754 z"
         style="fill:#eeeeec;fill-opacity:1;fill-rule:nonzero;stroke:none" />
      <path
         id="path2844-8"
         d="m 139.39213,1020.0297 c 0,12.2736 -11.19345,22.2234 -25.00127,22.2234 -13.80783,0 -25.00128,-9.9498 -25.00128,-22.2234 0,-12.2736 11.19345,-22.22335 25.00128,-22.22335 13.80782,0 25.00127,9.94975 25.00127,22.22335 z"
         style="fill:#729fcf;fill-opacity:1;fill-rule:nonzero;stroke:none" />
      <path
         id="path2844-8-1"
         d="m 138.06218,1019.7544 c 0,11.8052 -11.21344,21.3752 -25.04592,21.3752 -13.83248,0 -25.04591,-9.57 -25.04591,-21.3752 0,-11.8051 11.21343,-21.37511 25.04591,-21.37511 13.83248,0 25.04592,9.57001 25.04592,21.37511 z"
         style="fill:#eeeeec;fill-opacity:1;fill-rule:nonzero;stroke:none" />
      <path
         id="path2844-1-7-6"
         d="m 90.95831,1047.975 c -7.9716,1.3183 -15.50224,-3.8048 -16.82016,-11.4427 -1.31791,-7.638 4.07596,-14.8984 12.04756,-16.2166 7.9716,-1.3183 15.50224,3.8048 16.82016,11.4428 1.31792,7.6379 -4.07596,14.8983 -12.04756,16.2165 z"
         style="fill:#729fcf;fill-opacity:1;fill-rule:nonzero;stroke:none" />
      <path
         id="path2844-1-7-6-5"
         d="m 91.26841,1046.5778 c -7.83783,1.3182 -15.2421,-3.8049 -16.5379,-11.4428 -1.2958,-7.6379 4.00756,-14.8984 11.84539,-16.2166 7.83783,-1.3183 15.24211,3.8048 16.53791,11.4428 1.29579,7.6379 -4.00757,14.8983 -11.8454,16.2166 z"
         style="fill:#eeeeec;fill-opacity:1;fill-rule:nonzero;stroke:none" />
    </g>
  </g>
  <g
     inkscape:groupmode="layer"
     id="layer2"
     inkscape:label="logos"
     style="display:inline"
     sodipodi:insensitive="true"
     transform="translate(2.9917748,3.4803548)">
    <g
       inkscape:label="Layer 1"
       id="layer1-3"
       transform="matrix(1.5031211,0,0,1.4458188,-114.98291,-102.90026)">
      <g
         id="g673"
         transform="matrix(0.26458333,0,0,0.26458333,88.512649,81.246679)">
        <defs
           id="defs661">
          <path
             id="path989"
             d="M 80,42.457 41.912,80.543 c -8.89,8.89 -8.89,23.442 0,32.337 L 80,150.965 c 8.892,8.894 23.45,8.895 32.342,0 l 38.086,-38.085 c 8.897,-8.896 8.894,-23.447 0.001,-32.337 L 112.341,42.457 c -4.447,-4.45 -10.309,-6.672 -16.169,-6.672 -5.862,0 -11.726,2.224 -16.172,6.672" />
        </defs>
        <clipPath
           id="clipPath2868">
          <use
             xlink:href="#SVGID_1_"
             overflow="visible"
             id="use2866"
             x="0"
             y="0"
             width="100%"
             height="100%" />
        </clipPath>
        <linearGradient
           id="linearGradient2874"
           gradientUnits="userSpaceOnUse"
           x1="-1.1152"
           y1="578.58588"
           x2="0.59909999"
           y2="578.58588"
           gradientTransform="matrix(62.1889,-26.3976,-26.3976,-62.1889,15385.853,36072.457)">
          <stop
             offset="0"
             style="stop-color:#0092C8"
             id="stop2870" />
          <stop
             offset="1"
             style="stop-color:#00AFDD"
             id="stop2872" />
        </linearGradient>
        <polygon
           clip-path="url(#SVGID_2_)"
           fill="url(#SVGID_3_)"
           points="-11.605,54.728 140.042,-9.643 203.951,140.918 52.304,205.288 "
           id="polygon671"
           style="fill:url(#SVGID_3_)" />
      </g>
      <g
         mask="url(#SVGID_4_)"
         id="g728"
         transform="matrix(0.26458333,0,0,0.26458333,88.512649,81.246679)">
        <g
           id="g726">
          <defs
             id="defs704">
            <rect
               id="rect999"
               x="32.075001"
               y="32.622002"
               width="128.17799"
               height="128.17599" />
          </defs>
          <clipPath
             id="clipPath2884">
            <use
               xlink:href="#SVGID_5_"
               overflow="visible"
               id="use2882"
               x="0"
               y="0"
               width="100%"
               height="100%" />
          </clipPath>
          <g
             clip-path="url(#SVGID_6_)"
             id="g724">
            <defs
               id="defs710">
              <path
                 id="path1004"
                 d="m 96.157,32.621 c -6.656,-0.003 -13.34,2.536 -18.4,7.597 L 39.67,78.303 c -4.984,4.983 -7.527,11.542 -7.595,18.098 v 0.569 c 0.068,6.564 2.597,13.144 7.597,18.141 l 38.084,38.087 c 5.06,5.063 11.746,7.603 18.402,7.6 h 0.007 c 6.653,0 13.341,-2.535 18.405,-7.6 l 38.084,-38.087 c 5.068,-5.065 7.599,-11.756 7.598,-18.412 10e-4,-6.651 -2.533,-13.335 -7.592,-18.395 L 114.57,40.217 C 109.508,35.151 102.821,32.62 96.169,32.62 h -0.012 z" />
            </defs>
            <clipPath
               id="clipPath2890">
              <use
                 xlink:href="#SVGID_7_"
                 overflow="visible"
                 id="use2888"
                 x="0"
                 y="0"
                 width="100%"
                 height="100%" />
            </clipPath>
            <linearGradient
               id="linearGradient2898"
               gradientUnits="userSpaceOnUse"
               x1="-1.2285"
               y1="578.75201"
               x2="0.48590001"
               y2="578.75201"
               gradientTransform="matrix(43.2909,-44.829,-44.829,-43.2909,26057.109,25134.764)">
              <stop
                 offset="0"
                 style="stop-color:#8CC63F"
                 id="stop2892" />
              <stop
                 offset="0.6137"
                 style="stop-color:#C9E39F"
                 id="stop2894" />
              <stop
                 offset="1"
                 style="stop-color:#F1F6DE"
                 id="stop2896" />
            </linearGradient>
            <polygon
               clip-path="url(#SVGID_8_)"
               fill="url(#SVGID_9_)"
               points="-31.977,98.946 93.928,-31.433 224.306,94.472 98.401,224.851 "
               id="polygon722"
               style="fill:url(#SVGID_9_)" />
          </g>
        </g>
      </g>
      <g
         opacity="0.25"
         id="g748"
         transform="matrix(0.26458333,0,0,0.26458333,88.512649,81.246679)">
        <g
           id="g746">
          <defs
             id="defs731">
            <rect
               id="rect1017"
               x="32.082001"
               y="32.622002"
               width="128.177"
               height="128.17599" />
          </defs>
          <clipPath
             id="clipPath2908">
            <use
               xlink:href="#SVGID_10_"
               overflow="visible"
               id="use2906"
               x="0"
               y="0"
               width="100%"
               height="100%" />
          </clipPath>
          <g
             clip-path="url(#SVGID_11_)"
             id="g744">
            <defs
               id="defs737">
              <rect
                 id="rect1022"
                 x="32.082001"
                 y="32.622002"
                 width="128.177"
                 height="128.17599" />
            </defs>
            <clipPath
               id="clipPath2914">
              <use
                 xlink:href="#SVGID_12_"
                 overflow="visible"
                 id="use2912"
                 x="0"
                 y="0"
                 width="100%"
                 height="100%" />
            </clipPath>
            <path
               clip-path="url(#SVGID_13_)"
               fill="#0092c8"
               d="M 96.166,160.795 C 89.509,160.799 82.822,158.259 77.765,153.2 L 39.681,115.113 C 34.606,110.043 32.079,103.346 32.082,96.684 32.079,90.033 34.62,83.356 39.677,78.306 L 77.765,40.22 c 5.057,-5.062 11.744,-7.6 18.399,-7.598 6.654,-0.003 13.349,2.531 18.416,7.598 l 38.085,38.086 c 5.06,5.058 7.6,11.743 7.594,18.396 0.005,6.654 -2.533,13.347 -7.594,18.411 L 114.58,153.2 c -5.065,5.066 -11.755,7.598 -18.408,7.595 z M 44.148,82.775 c -3.826,3.827 -5.741,8.853 -5.743,13.909 0.002,5.081 1.912,10.125 5.745,13.958 l 38.086,38.085 c 3.828,3.829 8.863,5.741 13.929,5.744 5.07,-0.003 10.106,-1.912 13.941,-5.744 l 38.084,-38.085 c 3.832,-3.833 5.741,-8.873 5.745,-13.941 -0.003,-5.067 -1.914,-10.098 -5.742,-13.927 L 110.106,44.69 c -3.835,-3.834 -8.873,-5.743 -13.943,-5.746 -5.067,10e-4 -10.1,1.917 -13.928,5.746 z"
               id="path742" />
          </g>
        </g>
      </g>
      <g
         opacity="0.15"
         id="g768"
         transform="matrix(0.26458333,0,0,0.26458333,88.512649,81.246679)">
        <g
           id="g766">
          <defs
             id="defs751">
            <rect
               id="rect1031"
               x="32.082001"
               y="32.620998"
               width="124.887"
               height="87.036003" />
          </defs>
          <clipPath
             id="clipPath2924">
            <use
               xlink:href="#SVGID_14_"
               overflow="visible"
               id="use2922"
               x="0"
               y="0"
               width="100%"
               height="100%" />
          </clipPath>
          <g
             clip-path="url(#SVGID_15_)"
             id="g764">
            <defs
               id="defs757">
              <rect
                 id="rect1036"
                 x="32.082001"
                 y="32.620998"
                 width="124.887"
                 height="87.036003" />
            </defs>
            <clipPath
               id="clipPath2930">
              <use
                 xlink:href="#SVGID_16_"
                 overflow="visible"
                 id="use2928"
                 x="0"
                 y="0"
                 width="100%"
                 height="100%" />
            </clipPath>
            <path
               clip-path="url(#SVGID_17_)"
               fill="#ffffff"
               d="m 156.97,84.014 c -1.14,-2.049 -2.57,-3.976 -4.304,-5.71 L 114.58,40.22 C 109.511,35.151 102.821,32.621 96.163,32.623 89.511,32.622 82.824,35.157 77.766,40.22 L 39.677,78.304 c -5.057,5.055 -7.597,11.73 -7.595,18.381 -0.002,6.657 2.526,13.358 7.598,18.428 l 4.54,4.544 C 52.275,107.132 91.137,54.294 156.97,84.014"
               id="path762" />
          </g>
        </g>
      </g>
    </g>
    <g
       id="g3052"
       transform="matrix(0.06902884,0,0,0.06902884,82.698011,15.245785)">
      <path
         style="fill:#326ce5;fill-opacity:1;stroke:#ffffff;stroke-width:0;stroke-miterlimit:4;stroke-dasharray:none;stroke-opacity:1"
         d="m 365.3125,184.8125 a 46.724621,46.342246 0 0 0 -17.90625,4.53125 l -244.34375,116.75 a 46.724621,46.342246 0 0 0 -25.28125,31.4375 L 17.5,599.78125 A 46.724621,46.342246 0 0 0 23.84375,635.3125 46.724621,46.342246 0 0 0 26.5,639 l 169.125,210.28125 a 46.724621,46.342246 0 0 0 36.53125,17.4375 L 503.375,866.65625 A 46.724621,46.342246 0 0 0 539.90625,849.25 L 708.96875,638.9375 A 46.724621,46.342246 0 0 0 718,599.71875 l -60.375,-262.25 a 46.724621,46.342246 0 0 0 -25.28125,-31.4375 l -244.375,-116.6875 A 46.724621,46.342246 0 0 0 365.3125,184.8125 Z"
         id="path3055"
         inkscape:connector-curvature="0"
         inkscape:export-filename="new.png"
         inkscape:export-xdpi="250.55"
         inkscape:export-ydpi="250.55" />
      <path
         inkscape:connector-curvature="0"
         id="path3059"
         d="m 367.73366,274.05962 c -8.07696,8.2e-4 -14.62596,7.27591 -14.625,16.25 1e-5,0.13773 0.0282,0.26934 0.0312,0.40625 -0.0119,1.21936 -0.0708,2.68836 -0.0312,3.75 0.19262,5.176 1.3209,9.13749 2,13.90625 1.23028,10.20666 2.26117,18.66736 1.625,26.53125 -0.61869,2.9654 -2.80288,5.67741 -4.75,7.5625 l -0.34375,6.1875 c -8.77682,0.72717 -17.61235,2.05874 -26.4375,4.0625 -37.97461,8.62218 -70.67008,28.18307 -95.5625,54.59375 -1.61522,-1.10193 -4.44103,-3.12914 -5.2813,-3.75 -2.61117,0.35262 -5.25021,1.15829 -8.6875,-0.84375 -6.54491,-4.40563 -12.50587,-10.48693 -19.71875,-17.8125 -3.30498,-3.50419 -5.69832,-6.84101 -9.625,-10.21875 -0.89172,-0.76707 -2.25258,-1.80455 -3.25,-2.59375 -3.06988,-2.44757 -6.6907,-3.72402 -10.1875,-3.84375 -4.49589,-0.15394 -8.82394,1.60385 -11.65625,5.15625 -5.03521,6.31538 -3.42312,15.96805 3.59375,21.5625 0.0712,0.0567 0.14702,0.10078 0.21875,0.15625 0.96422,0.78162 2.14496,1.78313 3.03125,2.4375 4.16687,3.07655 7.9732,4.65145 12.125,7.09375 8.747,5.40181 15.99837,9.88086 21.75,15.28125 2.24602,2.39417 2.63858,6.61292 2.9375,8.4375 l 4.6875,4.1875 c -25.09342,37.76368 -36.70686,84.40946 -29.8437,131.9375 l -6.125,1.78125 c -1.6143,2.08461 -3.89541,5.36474 -6.2813,6.34375 -7.52513,2.37021 -15.99424,3.24059 -26.21875,4.3125 -4.80031,0.39915 -8.94218,0.16095 -14.03125,1.125 -1.12008,0.21218 -2.68072,0.61877 -3.90625,0.90625 -0.0426,0.009 -0.0824,0.0216 -0.125,0.0312 -0.0668,0.0155 -0.15456,0.0479 -0.21875,0.0625 -8.62014,2.08279 -14.15774,10.006 -12.375,17.8125 1.78316,7.80833 10.20314,12.55677 18.875,10.6875 0.0626,-0.0143 0.1535,-0.0167 0.21875,-0.0312 0.0979,-0.0224 0.18409,-0.0699 0.28125,-0.0937 1.20885,-0.26536 2.72377,-0.5606 3.78125,-0.84375 5.00334,-1.33963 8.62694,-3.30796 13.125,-5.03125 9.67694,-3.47077 17.69173,-6.37022 25.5,-7.5 3.26118,-0.25542 6.69711,2.01216 8.40625,2.96875 l 6.375,-1.09375 c 14.67018,45.48282 45.41416,82.24502 84.34375,105.3125 l -2.65625,6.375 c 0.95742,2.47542 2.01341,5.8247 1.30022,8.26932 -2.83868,7.3612 -7.70097,15.13097 -13.23772,23.79318 -2.68085,4.00192 -5.42453,7.10761 -7.84375,11.6875 -0.5789,1.09589 -1.31618,2.77932 -1.875,3.9375 -3.75884,8.04236 -1.00164,17.3052 6.21875,20.78125 7.26575,3.49788 16.28447,-0.19134 20.1875,-8.25 0.006,-0.0114 0.0257,-0.0198 0.0312,-0.0312 0.004,-0.009 -0.004,-0.0225 0,-0.0312 0.55593,-1.14255 1.34353,-2.64437 1.8125,-3.71875 2.07213,-4.74702 2.76161,-8.81506 4.21875,-13.40625 3.86962,-9.72014 5.99567,-19.91903 11.32258,-26.27411 1.45868,-1.74023 3.83681,-2.4095 6.30242,-3.06964 l 3.3125,-6 c 33.93824,13.0268 71.92666,16.52246 109.875,7.90625 8.65697,-1.96557 17.01444,-4.50945 25.09375,-7.5625 0.93098,1.65133 2.66113,4.8257 3.125,5.625 2.50559,0.81518 5.24044,1.23614 7.46875,4.53125 3.98539,6.80898 6.7109,14.86416 10.03125,24.59375 1.45738,4.59111 2.17762,8.65933 4.25,13.40625 0.47234,1.08195 1.256,2.60486 1.8125,3.75 3.89482,8.08484 12.94212,11.78667 20.21875,8.28125 7.2195,-3.4779 9.97974,-12.7399 6.21875,-20.78125 -0.55889,-1.15814 -1.3273,-2.84164 -1.90625,-3.9375 -2.41946,-4.57976 -5.1627,-7.65448 -7.84375,-11.65625 -5.53721,-8.66192 -10.12968,-15.8577 -12.96875,-23.21875 -1.18711,-3.79657 0.20028,-6.15774 1.125,-8.625 -0.55378,-0.63477 -1.73881,-4.22009 -2.4375,-5.90625 40.4574,-23.88816 70.29856,-62.02129 84.3125,-106.0625 1.8924,0.29742 5.18154,0.87936 6.25,1.09375 2.19954,-1.4507 4.22194,-3.34352 8.1875,-3.03125 7.80832,1.12937 15.82288,4.02973 25.5,7.5 4.49815,1.72306 8.1216,3.72313 13.125,5.0625 1.05749,0.28309 2.57238,0.5472 3.78125,0.8125 0.0972,0.0238 0.1833,0.0714 0.28125,0.0937 0.0653,0.0146 0.15615,0.0169 0.21875,0.0312 8.67236,1.86695 17.09384,-2.87871 18.875,-10.6875 1.78074,-7.80696 -3.7543,-15.73201 -12.375,-17.8125 -1.25393,-0.28513 -3.03225,-0.76938 -4.25,-1 -5.08912,-0.96378 -9.23092,-0.7261 -14.03125,-1.125 -10.22456,-1.07138 -18.6935,-1.94269 -26.21875,-4.3125 -3.06826,-1.19028 -5.25103,-4.84124 -6.31255,-6.34375 l -5.90625,-1.71875 c 3.06226,-22.15442 2.23655,-45.21134 -3.0625,-68.28125 -5.34839,-23.28471 -14.80037,-44.58084 -27.40625,-63.34375 1.51505,-1.37729 4.37619,-3.91091 5.1875,-4.65625 0.23716,-2.62417 0.0334,-5.37553 2.75,-8.28125 5.75134,-5.40069 13.00329,-9.87898 21.75,-15.28125 4.15167,-2.44252 7.98954,-4.01698 12.15625,-7.09375 0.94225,-0.69576 2.2289,-1.79759 3.21875,-2.59375 7.01538,-5.59633 8.63058,-15.24842 3.59375,-21.5625 -5.03683,-6.31408 -14.79712,-6.90883 -21.8125,-1.3125 -0.99856,0.79085 -2.35353,1.82252 -3.25,2.59375 -3.9265,3.37796 -6.35145,6.71439 -9.65625,10.21875 -7.21249,7.32595 -13.17407,13.43777 -19.71875,17.84375 -2.83601,1.65106 -6.98996,1.07978 -8.87505,0.96875 l -5.5625,3.96875 c -31.7188,-33.26057 -74.90466,-54.52546 -121.40605,-58.6563 -0.13006,-1.94872 -0.30045,-5.47117 -0.34375,-6.53125 -1.90371,-1.82165 -4.20342,-3.37686 -4.78125,-7.3125 -0.63617,-7.86389 0.42597,-16.32459 1.65625,-26.53125 0.6791,-4.76876 1.80738,-8.73025 2,-13.90625 0.0438,-1.17663 -0.0265,-2.88401 -0.0312,-4.15625 -9.6e-4,-8.97409 -6.54804,-16.25082 -14.625,-16.25 z m -18.3125,113.4375 -4.34375,76.71875 -0.3125,0.15625 c -0.29134,6.86335 -5.93996,12.34375 -12.875,12.34375 -2.84081,0 -5.46294,-0.91229 -7.59375,-2.46875 l -0.125,0.0625 -62.90625,-44.59375 c 19.33365,-19.01115 44.06291,-33.06039 72.5625,-39.53125 5.20599,-1.18203 10.40966,-2.0591 15.59375,-2.6875 z m 36.65625,0 c 33.27347,4.09232 64.04501,19.15882 87.625,42.25 l -62.5,44.3125 -0.21875,-0.0937 c -5.54745,4.05169 -13.36343,3.04639 -17.6875,-2.375 -1.77132,-2.22096 -2.70072,-4.83239 -2.8125,-7.46875 l -0.0625,-0.0312 z m -147.625,70.875 57.4375,51.375 -0.0625,0.3125 c 5.18437,4.50697 5.94888,12.32794 1.625,17.75 -1.7712,2.22105 -4.14208,3.71074 -6.6875,4.40625 l -0.0625,0.25 -73.625,21.25 c -3.74728,-34.26517 4.32855,-67.57364 21.375,-95.34375 z m 258.15625,0.0312 c 8.5341,13.83256 14.99655,29.28214 18.84375,46.03125 3.80106,16.54828 4.75499,33.06697 3.1875,49.03125 l -74,-21.3125 -0.0625,-0.3125 c -6.6265,-1.81104 -10.69893,-8.55162 -9.15625,-15.3125 0.63203,-2.76962 2.10222,-5.11264 4.09375,-6.84375 l -0.0312,-0.15625 57.125,-51.125 z m -140.65625,55.3125 h 23.53125 l 14.625,18.28125 -5.25,22.8125 -21.125,10.15625 -21.1875,-10.1875 -5.25,-22.8125 z m 75.4375,62.5625 c 0.99997,-0.0505 1.99558,0.0396 2.96875,0.21875 l 0.125,-0.15625 76.15625,12.875 c -11.1455,31.3131 -32.47281,58.44018 -60.96875,76.59375 l -29.5625,-71.40625 0.0937,-0.125 c -2.71561,-6.30999 0.002,-13.70956 6.25,-16.71875 1.59965,-0.77041 3.27089,-1.19701 4.9375,-1.28125 z m -127.90625,0.3125 c 5.81174,0.0815 11.02462,4.11525 12.375,10.03125 0.63219,2.76958 0.3245,5.51375 -0.71875,7.9375 l 0.21875,0.28125 -29.25,70.6875 c -27.34716,-17.5486 -49.12927,-43.82403 -60.78125,-76.06245 l 75.5,-12.8125 0.125,0.15625 c 0.84451,-0.15541 1.701,-0.2304 2.53125,-0.21875 z m 63.78125,30.9688 c 2.02445,-0.0744 4.07865,0.34098 6.03125,1.28125 2.55951,1.23253 4.53673,3.17319 5.78125,5.5 h 0.28125 l 37.21875,67.25 c -4.83029,1.61923 -9.79609,3.00308 -14.875,4.15625 -28.46453,6.4629 -56.83862,4.50467 -82.53125,-4.25 l 37.125,-67.125 h 0.0625 c 2.22767,-4.16441 6.45247,-6.64887 10.90625,-6.8125 z"
         style="color:#000000;font-style:normal;font-variant:normal;font-weight:normal;font-stretch:normal;font-size:medium;line-height:normal;font-family:Sans;-inkscape-font-specification:Sans;text-indent:0;text-align:start;text-decoration:none;text-decoration-line:none;letter-spacing:normal;word-spacing:normal;text-transform:none;writing-mode:lr-tb;direction:ltr;baseline-shift:baseline;text-anchor:start;display:inline;overflow:visible;visibility:visible;fill:#ffffff;fill-opacity:1;stroke:#ffffff;stroke-width:0.25;stroke-miterlimit:4;stroke-dasharray:none;stroke-opacity:1;marker:none;enable-background:accumulate"
         sodipodi:nodetypes="ccccccccsccccscssccsccccccccscccsccccccccccccccscccscsccsccccscscsccccccccscccscsccccsccccscscscccccccccccccccscccsccccccccccccscccccscccccccccccccccccccccccscccscccccccccscccscccc"
         inkscape:export-filename="./path3059.png"
         inkscape:export-xdpi="250.55"
         inkscape:export-ydpi="250.55" />
    </g>
  </g>
</svg>
