<?xml version="1.0" encoding="UTF-8" standalone="no"?>
<svg
   data-name="Layer 1"
   viewBox="0 0 94 66.529999"
   x="0px"
   y="0px"
   version="1.1"
   id="svg924"
   sodipodi:docname="noun-journalism-1531516.svg"
   width="94"
   height="66.529999"
   inkscape:version="1.1.2 (0a00cf5339, 2022-02-04)"
   xmlns:inkscape="http://www.inkscape.org/namespaces/inkscape"
   xmlns:sodipodi="http://sodipodi.sourceforge.net/DTD/sodipodi-0.dtd"
   xmlns="http://www.w3.org/2000/svg"
   xmlns:svg="http://www.w3.org/2000/svg"
   xmlns:rdf="http://www.w3.org/1999/02/22-rdf-syntax-ns#"
   xmlns:cc="http://creativecommons.org/ns#"
   xmlns:dc="http://purl.org/dc/elements/1.1/">
  <defs
     id="defs928" />
  <sodipodi:namedview
     id="namedview926"
     pagecolor="#ffffff"
     bordercolor="#666666"
     borderopacity="1.0"
     inkscape:pageshadow="2"
     inkscape:pageopacity="0.0"
     inkscape:pagecheckerboard="0"
     showgrid="false"
     fit-margin-top="0"
     fit-margin-left="0"
     fit-margin-right="0"
     fit-margin-bottom="0"
     inkscape:zoom="6.064"
     inkscape:cx="47.081135"
     inkscape:cy="45.844327"
     inkscape:window-width="1920"
     inkscape:window-height="1008"
     inkscape:window-x="0"
     inkscape:window-y="0"
     inkscape:window-maximized="1"
     inkscape:current-layer="svg924" />
  <title
     id="title900">Artboard 43</title>
  <path
     d="M 24.66,49.63 A 13.39,13.39 0 1 0 38.05,36.28 13.4,13.4 0 0 0 24.66,49.63 Z M 38.05,38.72 A 10.91,10.91 0 1 1 27.14,49.63 10.92,10.92 0 0 1 38.05,38.72 Z"
     id="path902"
     style="fill:#268bd2;fill-opacity:1" />
  <path
     d="m 38.05,59.08 a 9.45,9.45 0 1 0 -9.45,-9.45 9.46,9.46 0 0 0 9.45,9.45 z m 0,-17.11 a 7.66,7.66 0 1 1 -7.66,7.66 7.67,7.67 0 0 1 7.66,-7.66 z"
     id="path904"
     style="fill:#268bd2;fill-opacity:1" />
  <rect
     x="40.389999"
     y="30.410002"
     width="6.8200002"
     height="4.2199998"
     id="rect906"
     style="fill:#268bd2;fill-opacity:1" />
  <path
     d="m 38.05,56.12 a 6.49,6.49 0 1 0 -6.49,-6.49 6.5,6.5 0 0 0 6.49,6.49 z m 0,-11.19 a 4.7,4.7 0 1 1 -4.7,4.7 4.7,4.7 0 0 1 4.7,-4.7 z"
     id="path908"
     style="fill:#268bd2;fill-opacity:1" />
  <circle
     cx="23.450001"
     cy="59.970001"
     r="1.24"
     id="circle910"
     style="fill:#268bd2;fill-opacity:1" />
  <path
     d="M 93.87,30.57 88.46,19.28 h -2.3 l -1.51,3.15 V 0 H 31.07 v 26.43 l -5.51,2.52 h -7.24 v -2.73 h -9.9 v 2.73 H 0 v 37.58 h 56 v 0 h 28.65 v 0 h 8.08 L 94,65.28 V 31.12 Z M 82.16,2.48 V 27.6 l -1.42,3 -0.13,0.55 v 33 H 57.31 V 57 H 77.18 V 55.2 H 57.31 v -4.72 h 19.87 v -1.8 H 57.31 v -4.72 h 19.87 v -1.8 H 57.31 v -4.72 h 19.87 v -1.8 H 57.31 v -4.72 h 19.87 v -1.8 H 57.31 V 26.35 H 33.55 V 2.48 Z M 10.22,28.01 h 6.3 v 0.94 h -6.3 z m -7.74,9 h 14.38 v 27 H 2.48 Z m 52.34,27 H 18.65 v -27 h 7.17 V 35.28 H 2.48 V 31.43 H 26.1 l 5.7,-2.6 h 23 z m 36.63,0 H 83.16 V 57.5 h 8.29 z m 0,-8.3 h -8.29 v -24.3 l 4.15,-8.64 4.11,8.51 h -4.33 v 1.8 h 4.36 z"
     id="path912"
     style="fill:#268bd2;fill-opacity:1" />
  <rect
     x="38.529999"
     y="16.08"
     width="38.650002"
     height="1.79"
     id="rect914"
     style="fill:#268bd2;fill-opacity:1" />
  <rect
     x="38.529999"
     y="22.6"
     width="38.650002"
     height="1.79"
     id="rect916"
     style="fill:#268bd2;fill-opacity:1" />
  <rect
     x="38.529999"
     y="9.5600004"
     width="38.650002"
     height="1.79"
     id="rect918"
     style="fill:#268bd2;fill-opacity:1" />
  <metadata
     id="metadata1010">
    <rdf:RDF>
      <cc:Work
         rdf:about="">
        <dc:title>Artboard 43</dc:title>
      </cc:Work>
    </rdf:RDF>
  </metadata>
</svg>
