<?xml version="1.0" encoding="UTF-8" standalone="no"?>
<svg
   version="1.1"
   x="0px"
   y="0px"
   viewBox="0 0 25.812 26.438"
   enable-background="new 0 0 32 32"
   xml:space="preserve"
   id="svg1012"
   sodipodi:docname="noun-chart-104000.svg"
   width="25.812"
   height="26.438"
   inkscape:version="1.1.2 (0a00cf5339, 2022-02-04)"
   xmlns:inkscape="http://www.inkscape.org/namespaces/inkscape"
   xmlns:sodipodi="http://sodipodi.sourceforge.net/DTD/sodipodi-0.dtd"
   xmlns="http://www.w3.org/2000/svg"
   xmlns:svg="http://www.w3.org/2000/svg"><defs
     id="defs1016" /><sodipodi:namedview
     id="namedview1014"
     pagecolor="#ffffff"
     bordercolor="#666666"
     borderopacity="1.0"
     inkscape:pageshadow="2"
     inkscape:pageopacity="0.0"
     inkscape:pagecheckerboard="0"
     showgrid="false"
     fit-margin-top="0"
     fit-margin-left="0"
     fit-margin-right="0"
     fit-margin-bottom="0"
     inkscape:zoom="8.0332973"
     inkscape:cx="17.427464"
     inkscape:cy="9.0871777"
     inkscape:window-width="1920"
     inkscape:window-height="1008"
     inkscape:window-x="0"
     inkscape:window-y="0"
     inkscape:window-maximized="1"
     inkscape:current-layer="svg1012" /><g
     id="g1006"
     transform="translate(-2.688,-2.562)"
     style="fill:#268bd2;fill-opacity:1"><path
       d="m 26.594,2.562 c -1.051,0 -1.906,0.855 -1.906,1.906 0,0.461 0.172,0.879 0.445,1.209 L 19.35,12.72 c -0.232,-0.101 -0.487,-0.158 -0.756,-0.158 -0.55,0 -1.042,0.238 -1.391,0.611 L 13.176,8.53 C 13.38,8.227 13.5,7.861 13.5,7.469 c 0,-1.051 -0.855,-1.906 -1.906,-1.906 -1.051,0 -1.906,0.854 -1.906,1.906 0,0.294 0.072,0.57 0.192,0.819 L 5.686,11.911 C 5.376,11.693 5,11.562 4.594,11.562 c -1.051,0 -1.906,0.855 -1.906,1.906 0,1.051 0.855,1.906 1.906,1.906 1.051,0 1.906,-0.854 1.906,-1.905 0,-0.282 -0.065,-0.547 -0.175,-0.788 l 4.204,-3.632 c 0.304,0.206 0.671,0.326 1.064,0.326 0.296,0 0.573,-0.074 0.823,-0.194 l 4.304,4.963 c -0.019,0.106 -0.033,0.214 -0.033,0.325 0,1.051 0.855,1.906 1.906,1.906 1.051,0 1.907,-0.855 1.907,-1.906 0,-0.42 -0.141,-0.805 -0.371,-1.12 l 5.824,-7.093 c 0.201,0.072 0.415,0.119 0.641,0.119 1.051,0 1.906,-0.855 1.906,-1.906 0,-1.051 -0.855,-1.907 -1.906,-1.907 z m -22,11.813 c -0.5,0 -0.906,-0.407 -0.906,-0.906 0,-0.499 0.406,-0.906 0.906,-0.906 0.5,0 0.906,0.406 0.906,0.906 0,0.5 -0.406,0.906 -0.906,0.906 z m 6.094,-6.906 c 0,-0.5 0.406,-0.906 0.906,-0.906 0.5,0 0.906,0.406 0.906,0.906 0,0.5 -0.406,0.906 -0.906,0.906 -0.5,0 -0.906,-0.407 -0.906,-0.906 z m 7.906,7.906 c -0.5,0 -0.906,-0.407 -0.906,-0.906 0,-0.499 0.406,-0.906 0.906,-0.906 0.5,0 0.906,0.407 0.906,0.906 0,0.499 -0.406,0.906 -0.906,0.906 z m 8,-10 c -0.5,0 -0.906,-0.407 -0.906,-0.906 0,-0.499 0.406,-0.906 0.906,-0.906 0.5,0 0.906,0.406 0.906,0.906 0,0.5 -0.406,0.906 -0.906,0.906 z"
       id="path992"
       style="fill:#268bd2;fill-opacity:1" /><rect
       x="5"
       y="17"
       width="2"
       height="12"
       id="rect994"
       style="fill:#268bd2;fill-opacity:1" /><rect
       x="9"
       y="12"
       width="2"
       height="17"
       id="rect996"
       style="fill:#268bd2;fill-opacity:1" /><rect
       x="17"
       y="18"
       width="2"
       height="11"
       id="rect998"
       style="fill:#268bd2;fill-opacity:1" /><rect
       x="21"
       y="17"
       width="2"
       height="12"
       id="rect1000"
       style="fill:#268bd2;fill-opacity:1" /><rect
       x="25"
       y="10"
       width="2"
       height="19"
       id="rect1002"
       style="fill:#268bd2;fill-opacity:1" /><rect
       x="13"
       y="14"
       width="2"
       height="15"
       id="rect1004"
       style="fill:#268bd2;fill-opacity:1" /></g></svg>
