<?xml version="1.0" encoding="UTF-8" standalone="no"?>
<svg
   xml:space="preserve"
   version="1.1"
   style="image-rendering:optimizeQuality;shape-rendering:geometricPrecision;text-rendering:geometricPrecision"
   viewBox="0 0 49104 49125.09"
   x="0px"
   y="0px"
   fill-rule="evenodd"
   clip-rule="evenodd"
   id="svg936"
   sodipodi:docname="noun-event-2253032.svg"
   width="49104"
   height="49125.09"
   inkscape:version="1.1.2 (0a00cf5339, 2022-02-04)"
   xmlns:inkscape="http://www.inkscape.org/namespaces/inkscape"
   xmlns:sodipodi="http://sodipodi.sourceforge.net/DTD/sodipodi-0.dtd"
   xmlns="http://www.w3.org/2000/svg"
   xmlns:svg="http://www.w3.org/2000/svg"><sodipodi:namedview
     id="namedview938"
     pagecolor="#ffffff"
     bordercolor="#666666"
     borderopacity="1.0"
     inkscape:pageshadow="2"
     inkscape:pageopacity="0.0"
     inkscape:pagecheckerboard="0"
     showgrid="false"
     fit-margin-top="0"
     fit-margin-left="0"
     fit-margin-right="0"
     fit-margin-bottom="0"
     inkscape:zoom="0.01"
     inkscape:cx="-2000"
     inkscape:cy="31800"
     inkscape:window-width="1920"
     inkscape:window-height="1008"
     inkscape:window-x="0"
     inkscape:window-y="0"
     inkscape:window-maximized="1"
     inkscape:current-layer="svg936" /><defs
     id="defs926"><style
       type="text/css"
       id="style924">
   
    .fil0 {fill:black}
   
  </style></defs><g
     id="g930"
     style="fill:#268bd2;fill-opacity:1"><path
       class="fil0"
       d="m 41945,14524 v 6674 c -710,-163 -1445,-261 -2197,-288 V 16720 H 2197 v 28212 c 0,1082 893,1975 1975,1975 h 33601 c 1082,0 1975,-893 1975,-1975 v -624 c 752,-28 1487,-126 2197,-288 v 912 c 0,2294 -1878,4172 -4172,4172 H 4172 C 1877,49104 0,47226 0,44932 V 14524 Z m -2631,8295 c 5407,0 9790,4383 9790,9790 0,5406 -4383,9789 -9790,9789 -5407,0 -9789,-4383 -9789,-9789 0,-5407 4382,-9790 9789,-9790 z m -4871,9518 2857,1950 5312,-7643 2010,1398 -6004,8638 -692,995 -1002,-684 -3859,-2634 z M 5400,0 h 1 c 553,0 1006,453 1006,1007 v 7427 c 0,554 -453,1007 -1006,1007 h -1 C 4847,9441 4393,8988 4393,8434 V 1007 C 4393,453 4847,0 5400,0 Z m 6640,0 v 0 c 554,0 1007,453 1007,1007 v 7427 c 0,554 -453,1007 -1007,1007 v 0 c -554,0 -1007,-453 -1007,-1007 V 1007 C 11033,453 11486,0 12040,0 Z m 17864,0 v 0 c 554,0 1007,453 1007,1007 v 7427 c 0,554 -453,1007 -1007,1007 v 0 c -554,0 -1007,-453 -1007,-1007 V 1007 C 28897,453 29350,0 29904,0 Z m 6640,0 v 0 c 554,0 1007,453 1007,1007 v 7427 c 0,554 -453,1007 -1007,1007 v 0 c -554,0 -1007,-453 -1007,-1007 V 1007 C 35537,453 35990,0 36544,0 Z M 6468,19586 h 4374 v 4373 H 6468 Z m 0,20082 h 4374 v 4374 H 6468 Z m 29008,4004 v 370 h -4373 v -3089 c 1225,1206 2714,2144 4373,2719 z M 22891,39668 h 4374 v 4374 h -4374 z m -8211,0 h 4373 v 4374 H 14680 Z M 6468,32974 h 4374 v 4373 H 6468 Z m 16423,0 h 4374 v 4373 h -4374 z m -8211,0 h 4373 v 4373 H 14680 Z M 6468,26280 h 4374 v 4373 H 6468 Z m 16423,0 h 4374 v 4373 h -4374 z m -8211,0 h 4373 v 4373 h -4373 z m 16423,-6694 h 4373 v 1960 c -1516,525 -2891,1354 -4051,2413 h -322 z m -8212,0 h 4374 v 4373 h -4374 z m -8211,0 h 4373 v 4373 H 14680 Z M 0,4454 h 3316 v 2686 c -229,372 -361,811 -361,1280 0,1350 1095,2445 2446,2445 1350,0 2445,-1095 2445,-2445 0,-469 -132,-908 -361,-1280 V 4454 h 2471 v 2686 c -229,372 -361,811 -361,1280 0,1350 1095,2445 2445,2445 1351,0 2446,-1095 2446,-2445 0,-469 -132,-908 -361,-1280 V 4454 h 13695 v 2686 c -229,372 -361,811 -361,1280 0,1350 1095,2445 2445,2445 1351,0 2446,-1095 2446,-2445 0,-469 -132,-908 -361,-1280 V 4454 h 2471 v 2686 c -229,372 -362,811 -362,1280 0,1350 1095,2445 2446,2445 1351,0 2446,-1095 2446,-2445 0,-469 -133,-908 -362,-1280 V 4454 h 3317 v 8487 H 0 Z"
       id="path928"
       style="fill:#268bd2;fill-opacity:1" /></g><text
     x="0"
     y="49119"
     fill="#000000"
     font-size="5px"
     font-weight="bold"
     font-family="'Helvetica Neue', Helvetica, Arial-Unicode, Arial, Sans-serif"
     id="text932"
     style="fill:#268bd2;fill-opacity:1">Created by popcornarts</text><text
     x="0"
     y="49124"
     fill="#000000"
     font-size="5px"
     font-weight="bold"
     font-family="'Helvetica Neue', Helvetica, Arial-Unicode, Arial, Sans-serif"
     id="text934"
     style="fill:#268bd2;fill-opacity:1">from the Noun Project</text></svg>
