<?xml version="1.0" encoding="UTF-8" standalone="no"?>
<svg
   version="1.1"
   viewBox="-5 -10 89.894798 89.894394"
   id="svg906"
   sodipodi:docname="noun-map-6687202.svg"
   width="89.894798"
   height="89.894394"
   inkscape:version="1.1.2 (0a00cf5339, 2022-02-04)"
   xmlns:inkscape="http://www.inkscape.org/namespaces/inkscape"
   xmlns:sodipodi="http://sodipodi.sourceforge.net/DTD/sodipodi-0.dtd"
   xmlns="http://www.w3.org/2000/svg"
   xmlns:svg="http://www.w3.org/2000/svg">
  <defs
     id="defs910" />
  <sodipodi:namedview
     id="namedview908"
     pagecolor="#ffffff"
     bordercolor="#666666"
     borderopacity="1.0"
     inkscape:pageshadow="2"
     inkscape:pageopacity="0.0"
     inkscape:pagecheckerboard="0"
     showgrid="false"
     fit-margin-top="0"
     fit-margin-left="0"
     fit-margin-right="0"
     fit-margin-bottom="0"
     inkscape:zoom="5.6148148"
     inkscape:cx="44.970317"
     inkscape:cy="60.197889"
     inkscape:window-width="1920"
     inkscape:window-height="1008"
     inkscape:window-x="0"
     inkscape:window-y="0"
     inkscape:window-maximized="1"
     inkscape:current-layer="svg906" />
  <path
     d="m 70.679396,66.338794 h 7.4375 c 1.5625,0 3.0078,0.53516 4.1562,1.4297 v -71.309 c 0,-2.1211 -1.7227,-3.8398 -3.8398,-3.8398 h -76.973 c -2.1133,0 -3.8398,1.7266 -3.8398,3.8398 v 66.039 c 0,1.0547 0.43359,2.0156 1.1289,2.7109 l -0.00391,0.0039 c 0.75391,0.69531 1.5859,1.125 2.7148,1.125 z m -21.828,-48.527 c -6.6367,3.7812 -12.027,9.6914 -15.52,16.824 -0.75781,1.543 -3.1016,0.39453 -2.3438,-1.1484 3.6836,-7.5273 9.3398,-13.754 16.309,-17.801 l -3.2344,-0.86719 0.67578,-2.5273 6.4805,1.7344 c 0.69922,0.1875 1.1133,0.90234 0.92578,1.6016 l -1.7344,6.4805 -2.5273,-0.67578 z m 17.031,27.934 v 5.8477 h -2.6211 v -5.8477 z m -39.398,14.633 h -6.1719 v -5.2344 h 2.6211 v 2.6133 h 3.5508 z m 9.7695,0 h -5.8516 v -2.6211 h 5.8516 z m 9.7695,0 h -5.8516 v -2.6211 h 5.8516 z m 9.7695,0 h -5.8516 v -2.6211 h 5.8516 z m 3.918,-2.6211 h 3.5508 v -2.6133 h 2.6211 v 5.2344 h -6.1719 z m 6.1719,-20.836 v 4.6562 h -2.6211 v -4.6562 c -5.7969,-1.0469 -8.1914,-8.25 -3.9219,-12.52 4.6836,-4.6836 12.637,-1.293 12.637,5.2305 0,3.6016 -2.6133,6.6602 -6.0938,7.2891 z m 1.9609,-35.508 c 1.2188,-1.2188 3.0742,0.63281 1.8516,1.8516 l -3.2734,3.2734 3.2734,3.2734 c 1.2188,1.2188 -0.63281,3.0742 -1.8516,1.8516 l -3.2734,-3.2734 -3.2734,3.2734 c -1.2188,1.2188 -3.0742,-0.63281 -1.8516,-1.8516 l 3.2734,-3.2734 -3.2734,-3.2734 c -1.2188,-1.2188 0.63281,-3.0742 1.8516,-1.8516 l 3.2734,3.2734 z m -3.2734,23.438 c 2.6289,0 4.7812,2.1562 4.7812,4.7812 0,4.1992 -5.125,6.4141 -8.1602,3.3789 -3.0312,-3.0352 -0.81641,-8.1602 3.3789,-8.1602 z m -45.543,-18.383 c 0.51172,0.51172 1.3398,0.51172 1.8516,0 l 4.8047,-4.8047 7.3398,7.3398 h -20.242 l 4.3906,-4.3906 z m -0.92969,-4.6367 1.8555,1.8555 4.8047,-4.8047 c 0.51172,-0.51172 1.3398,-0.51172 1.8516,0 l 10.48,10.48 c 0.86328,0.84375 0.25781,2.2617 -0.90234,2.2617 h -26.57 c -1.1562,0 -1.7539,-1.4102 -0.92578,-2.2383 l 7.5547,-7.5547 c 0.51172,-0.51172 1.3398,-0.51172 1.8516,0 z m -1.3516,35.293 h 9.7578 c 0.72266,0 1.3125,0.58594 1.3125,1.3125 v 9.7578 c 0,0.72266 -0.58594,1.3125 -1.3125,1.3125 h -9.7578 c -0.72266,0 -1.3086,-0.58594 -1.3086,-1.3125 v -9.7578 c -0.0039,-0.72656 0.58203,-1.3125 1.3086,-1.3125 z m 8.4453,2.6211 v 7.1367 h -7.1367 v -7.1367 z m 59.699,33.371 c 0,3.7266 -3.0469,6.7773 -6.7773,6.7773 h -7.4375 c -0.72266,0 -1.3086,-0.58594 -1.3086,-1.3125 v -9.6211 h -67.906 c -1.7734,0 -3.3906,-0.72656 -4.5625,-1.8984 l -0.00391,0.0039 c -1.1719,-1.1719 -1.8945,-2.7852 -1.8945,-4.5664 v -66.039 c 0,-3.5586 2.9023,-6.4609 6.4609,-6.4609 h 76.973 c 3.5547,0 6.4609,2.9062 6.4609,6.4609 z m -6.7734,-4.1562 h -6.125 v 8.3125 h 6.125 c 3.6445,0 5.5703,-4.4492 2.9336,-7.0898 -0.75391,-0.75781 -1.793,-1.2227 -2.9336,-1.2227 z"
     fill-rule="evenodd"
     id="path900"
     style="fill:#268bd2;fill-opacity:1" />
</svg>
