<?xml version="1.0" encoding="UTF-8" standalone="no"?>
<svg
   xml:space="preserve"
   version="1.1"
   style="image-rendering:optimizeQuality;shape-rendering:geometricPrecision;text-rendering:geometricPrecision"
   viewBox="0 0 7.6200997 7.1418999"
   x="0px"
   y="0px"
   fill-rule="evenodd"
   clip-rule="evenodd"
   id="svg1087"
   sodipodi:docname="noun-story-telling-5143020.svg"
   width="7.6201"
   height="7.1419001"
   inkscape:version="1.1.2 (0a00cf5339, 2022-02-04)"
   xmlns:inkscape="http://www.inkscape.org/namespaces/inkscape"
   xmlns:sodipodi="http://sodipodi.sourceforge.net/DTD/sodipodi-0.dtd"
   xmlns="http://www.w3.org/2000/svg"
   xmlns:svg="http://www.w3.org/2000/svg"><sodipodi:namedview
     id="namedview1089"
     pagecolor="#ffffff"
     bordercolor="#666666"
     borderopacity="1.0"
     inkscape:pageshadow="2"
     inkscape:pageopacity="0.0"
     inkscape:pagecheckerboard="0"
     showgrid="false"
     fit-margin-top="0"
     fit-margin-left="0"
     fit-margin-right="0"
     fit-margin-bottom="0"
     inkscape:zoom="67.937543"
     inkscape:cx="3.8123251"
     inkscape:cy="4.6218922"
     inkscape:window-width="1920"
     inkscape:window-height="1008"
     inkscape:window-x="0"
     inkscape:window-y="0"
     inkscape:window-maximized="1"
     inkscape:current-layer="svg1087" /><defs
     id="defs1077"><style
       type="text/css"
       id="style1075">
   
    .fil0 {fill:black;fill-rule:nonzero}
   
  </style></defs><g
     id="g1081"
     transform="translate(-0.4232,-0.6623)"
     style="fill:#268bd2;fill-opacity:1"><path
       class="fil0"
       d="m 6.1624,3.5823 c -0.2119,0 -0.4038,0.0859 -0.5425,0.2246 L 5.612,3.8143 c -0.134,0.1376 -0.2167,0.3264 -0.2167,0.535 0,0.2119 0.0859,0.4038 0.2246,0.5425 0.1387,0.1387 0.3306,0.2246 0.5425,0.2246 0.2119,0 0.4038,-0.0859 0.5425,-0.2246 C 6.8436,4.7531 6.9295,4.5612 6.9295,4.3493 6.9295,4.137 6.8438,3.9451 6.7055,3.8069 6.5662,3.6682 6.3743,3.5823 6.1624,3.5823 Z M 3.1821,4.4704 4.0639,4.4703 V 3.7836 C 4.0639,3.7483 4.0747,3.7155 4.0933,3.6883 4.1713,3.5547 4.2326,3.4109 4.2737,3.2602 4.3143,3.1118 4.336,2.9535 4.336,2.7881 4.336,2.2945 4.1359,1.8476 3.8127,1.5244 L 3.8053,1.5165 C 3.4826,1.1979 3.0388,1.0011 2.5489,1.0011 2.0554,1.0011 1.6085,1.2012 1.2853,1.5244 L 1.2774,1.5318 C 0.9588,1.8545 0.762,2.2983 0.762,2.7881 0.762,3.2816 0.9621,3.7285 1.2853,4.0517 1.6085,4.3749 2.0554,4.575 2.5489,4.575 2.6512,4.575 2.7497,4.5669 2.8436,4.5514 2.9403,4.5354 3.0355,4.5112 3.1279,4.4796 3.1459,4.4735 3.1641,4.4706 3.1821,4.4704 Z M 4.2333,4.8091 H 3.2084 C 3.1088,4.8416 3.0049,4.8672 2.8978,4.8848 2.7824,4.9038 2.6657,4.9138 2.5489,4.9138 1.9622,4.9138 1.4305,4.6757 1.0459,4.2911 0.6613,3.9065 0.4232,3.3748 0.4232,2.7881 0.4232,2.2063 0.6576,1.6786 1.037,1.2946 L 1.0459,1.285 c 0.3846,-0.3846 0.9163,-0.6227 1.503,-0.6227 0.5819,0 1.1096,0.2344 1.4936,0.6138 L 4.0521,1.285 c 0.3846,0.3846 0.6227,0.9162 0.6227,1.5031 0,0.1921 -0.0264,0.3803 -0.0757,0.5607 C 4.5526,3.5187 4.4862,3.6795 4.4027,3.8282 v 0.8115 c 0,0.0935 -0.0759,0.1694 -0.1694,0.1694 z M 3.4856,2.2071 c 0.0935,0 0.1694,0.0759 0.1694,0.1694 0,0.0935 -0.0759,0.1694 -0.1694,0.1694 H 1.6126 C 1.5191,2.5459 1.4432,2.47 1.4432,2.3765 1.4432,2.283 1.5191,2.2071 1.6126,2.2071 Z m 0,0.8232 c 0.0935,0 0.1694,0.0759 0.1694,0.1694 0,0.0935 -0.0759,0.1694 -0.1694,0.1694 h -1.873 c -0.0935,0 -0.1694,-0.0759 -0.1694,-0.1694 0,-0.0935 0.0759,-0.1694 0.1694,-0.1694 z M 5.1407,6.1078 C 4.978,6.2526 4.8456,6.4308 4.7553,6.6308 4.6687,6.8227 4.6203,7.036 4.6203,7.2604 v 0.205 H 7.7045 V 7.2604 C 7.7045,7.0359 7.6561,6.8226 7.5695,6.6308 7.4792,6.4307 7.3469,6.2525 7.1841,6.1079 L 7.1764,6.1006 C 7.1005,6.0358 7.0125,5.9959 6.9213,5.9827 6.8263,5.9689 6.7267,5.9835 6.6321,6.0275 6.4838,6.0965 6.323,6.1312 6.1625,6.1312 6.0021,6.1312 5.8412,6.0965 5.6928,6.0275 5.5982,5.9835 5.4986,5.9689 5.4043,5.9827 l -0.0051,7e-4 C 5.3063,5.9977 5.217,6.0397 5.1407,6.1078 Z M 4.4471,6.4918 C 4.5574,6.2476 4.7183,6.0305 4.9158,5.8551 5.0431,5.7427 5.1925,5.673 5.3491,5.6489 l 0.0062,-0.001 c 0.1591,-0.0233 0.3249,2e-4 0.4803,0.0726 0.1029,0.0478 0.2148,0.0719 0.3269,0.0719 0.1121,0 0.2241,-0.0241 0.3268,-0.0719 C 6.6447,5.6481 6.8105,5.6246 6.9696,5.6479 7.1242,5.6706 7.2722,5.7376 7.3982,5.8462 L 7.4091,5.8551 C 7.6066,6.0305 7.7675,6.2475 7.8777,6.4918 7.984,6.7272 8.0433,6.9876 8.0433,7.2604 v 0.3744 c 0,0.0935 -0.0759,0.1694 -0.1694,0.1694 H 4.4509 C 4.3574,7.8042 4.2815,7.7283 4.2815,7.6348 V 7.2604 c 0,-0.2727 0.0593,-0.5331 0.1656,-0.7686 z M 5.3805,3.5675 c 0.2001,-0.2001 0.4767,-0.324 0.7819,-0.324 0.3052,0 0.5818,0.1239 0.7819,0.324 0.2,0.2007 0.324,0.4773 0.324,0.7818 0,0.3052 -0.1239,0.5818 -0.324,0.7819 -0.2001,0.2001 -0.4767,0.324 -0.7819,0.324 -0.3052,0 -0.5818,-0.1239 -0.7819,-0.324 -0.2001,-0.2001 -0.324,-0.4767 -0.324,-0.7819 0,-0.2998 0.1202,-0.5726 0.3151,-0.7721 z"
       id="path1079"
       style="fill:#268bd2;fill-opacity:1" /></g><text
     x="-0.42320001"
     y="22.8043"
     fill="#000000"
     font-size="5px"
     font-weight="bold"
     font-family="'Helvetica Neue', Helvetica, Arial-Unicode, Arial, Sans-serif"
     id="text1083">Created by Lula Sugiantoro</text><text
     x="-0.42320001"
     y="27.8043"
     fill="#000000"
     font-size="5px"
     font-weight="bold"
     font-family="'Helvetica Neue', Helvetica, Arial-Unicode, Arial, Sans-serif"
     id="text1085">from the Noun Project</text></svg>
