<?xml version="1.0" encoding="UTF-8" standalone="no"?>
<svg
   version="1.1"
   x="0px"
   y="0px"
   viewBox="0 0 91.036003 94.836998"
   xml:space="preserve"
   id="svg8"
   sodipodi:docname="noun-collaboration-5878839.svg"
   width="91.036003"
   height="94.836998"
   inkscape:version="1.1.2 (0a00cf5339, 2022-02-04)"
   xmlns:inkscape="http://www.inkscape.org/namespaces/inkscape"
   xmlns:sodipodi="http://sodipodi.sourceforge.net/DTD/sodipodi-0.dtd"
   xmlns="http://www.w3.org/2000/svg"
   xmlns:svg="http://www.w3.org/2000/svg"><defs
     id="defs12" /><sodipodi:namedview
     id="namedview10"
     pagecolor="#ffffff"
     bordercolor="#666666"
     borderopacity="1.0"
     inkscape:pageshadow="2"
     inkscape:pageopacity="0.0"
     inkscape:pagecheckerboard="0"
     showgrid="false"
     fit-margin-top="0"
     fit-margin-left="0"
     fit-margin-right="0"
     fit-margin-bottom="0"
     inkscape:zoom="5.8693878"
     inkscape:cx="45.66064"
     inkscape:cy="59.801808"
     inkscape:window-width="1920"
     inkscape:window-height="1008"
     inkscape:window-x="0"
     inkscape:window-y="0"
     inkscape:window-maximized="1"
     inkscape:current-layer="svg8" /><path
     d="m 1.031,30.06 h 28.328 c 0.569,0 1.031,-0.462 1.031,-1.031 0,-6.82 -4.516,-12.604 -10.715,-14.52 2.092,-1.433 3.468,-3.839 3.468,-6.561 C 23.143,3.566 19.578,0 15.195,0 10.812,0 7.247,3.565 7.247,7.948 c 0,2.722 1.376,5.128 3.468,6.561 C 4.516,16.425 0,22.209 0,29.029 0,29.598 0.462,30.06 1.031,30.06 Z M 9.309,7.948 c 0,-3.246 2.641,-5.886 5.886,-5.886 3.245,0 5.886,2.64 5.886,5.886 0,3.246 -2.641,5.886 -5.886,5.886 -3.245,0 -5.886,-2.64 -5.886,-5.886 z m 5.886,7.948 c 6.895,0 12.566,5.341 13.093,12.102 H 2.102 C 2.63,21.237 8.3,15.896 15.195,15.896 Z M 61.677,30.06 h 28.328 c 0.569,0 1.031,-0.462 1.031,-1.031 0,-6.82 -4.516,-12.604 -10.715,-14.52 2.092,-1.433 3.468,-3.839 3.468,-6.561 C 83.789,3.566 80.224,0 75.841,0 c -4.383,0 -7.948,3.565 -7.948,7.948 0,2.722 1.376,5.128 3.468,6.561 -6.198,1.916 -10.715,7.7 -10.715,14.52 0,0.569 0.462,1.031 1.031,1.031 z M 69.955,7.948 c 0,-3.246 2.641,-5.886 5.886,-5.886 3.246,0 5.886,2.64 5.886,5.886 0,3.246 -2.641,5.886 -5.886,5.886 -3.246,0 -5.886,-2.64 -5.886,-5.886 z m 5.886,7.948 c 6.895,0 12.566,5.341 13.093,12.102 H 62.748 c 0.528,-6.761 6.198,-12.102 13.093,-12.102 z m -56.166,63.39 c 2.092,-1.433 3.468,-3.839 3.468,-6.561 0,-4.382 -3.565,-7.948 -7.948,-7.948 -4.383,0 -7.948,3.565 -7.948,7.948 0,2.722 1.376,5.128 3.468,6.561 C 4.516,81.202 0,86.986 0,93.806 c 0,0.569 0.461,1.031 1.031,1.031 h 28.328 c 0.569,0 1.031,-0.461 1.031,-1.031 0,-6.819 -4.517,-12.603 -10.715,-14.52 z M 9.309,72.726 c 0,-3.246 2.641,-5.886 5.886,-5.886 3.245,0 5.886,2.641 5.886,5.886 0,3.246 -2.641,5.886 -5.886,5.886 -3.245,0 -5.886,-2.641 -5.886,-5.886 z M 2.102,92.776 C 2.629,86.015 8.3,80.674 15.195,80.674 c 6.895,0 12.566,5.341 13.093,12.102 z m 78.219,-13.49 c 2.092,-1.433 3.468,-3.839 3.468,-6.561 0,-4.382 -3.565,-7.948 -7.948,-7.948 -4.383,0 -7.948,3.565 -7.948,7.948 0,2.722 1.376,5.128 3.468,6.561 -6.198,1.916 -10.715,7.7 -10.715,14.52 0,0.569 0.461,1.031 1.031,1.031 h 28.328 c 0.569,0 1.031,-0.461 1.031,-1.031 0,-6.819 -4.517,-12.603 -10.715,-14.52 z m -10.366,-6.56 c 0,-3.246 2.641,-5.886 5.886,-5.886 3.246,0 5.886,2.641 5.886,5.886 0,3.246 -2.641,5.886 -5.886,5.886 -3.246,0 -5.886,-2.641 -5.886,-5.886 z m -7.207,20.05 c 0.527,-6.761 6.198,-12.102 13.093,-12.102 6.895,0 12.566,5.341 13.093,12.102 z M 31.041,12.604 c 0,-0.569 0.461,-1.031 1.031,-1.031 h 24.705 l -1.69,-2.048 c -0.362,-0.439 -0.3,-1.089 0.139,-1.451 0.439,-0.362 1.089,-0.3 1.451,0.139 l 3.081,3.735 c 0.314,0.381 0.314,0.931 0,1.312 l -3.081,3.735 c -0.204,0.247 -0.499,0.375 -0.796,0.375 -0.231,0 -0.463,-0.077 -0.655,-0.236 -0.439,-0.362 -0.502,-1.012 -0.139,-1.451 l 1.69,-2.048 H 32.072 c -0.569,0 -1.031,-0.462 -1.031,-1.031 z m 28.954,69.63 c 0,0.569 -0.461,1.031 -1.031,1.031 H 34.259 l 1.69,2.048 c 0.362,0.439 0.3,1.089 -0.139,1.451 C 35.618,86.922 35.386,87 35.155,87 34.858,87 34.563,86.872 34.359,86.625 L 31.278,82.89 c -0.314,-0.381 -0.314,-0.931 0,-1.312 l 3.081,-3.735 c 0.362,-0.439 1.012,-0.502 1.451,-0.139 0.439,0.362 0.502,1.012 0.139,1.451 l -1.69,2.048 h 24.705 c 0.57,0 1.031,0.462 1.031,1.031 z M 81.364,33.973 v 24.705 l 2.048,-1.69 c 0.439,-0.362 1.089,-0.3 1.451,0.139 0.362,0.439 0.3,1.089 -0.139,1.451 l -3.735,3.081 c -0.19,0.157 -0.423,0.236 -0.656,0.236 -0.233,0 -0.465,-0.079 -0.656,-0.236 l -3.735,-3.081 c -0.439,-0.362 -0.502,-1.012 -0.139,-1.451 0.362,-0.439 1.012,-0.501 1.451,-0.139 l 2.048,1.69 V 33.973 c 0,-0.569 0.461,-1.031 1.031,-1.031 0.57,0 1.031,0.462 1.031,1.031 z M 9.672,60.865 V 36.16 l -2.048,1.69 c -0.44,0.362 -1.089,0.3 -1.451,-0.139 -0.362,-0.439 -0.3,-1.089 0.139,-1.451 l 3.735,-3.081 c 0.381,-0.314 0.931,-0.314 1.312,0 l 3.735,3.081 c 0.439,0.362 0.502,1.012 0.139,1.451 -0.362,0.439 -1.012,0.502 -1.451,0.139 l -2.048,-1.69 v 24.705 c 0,0.569 -0.461,1.031 -1.031,1.031 -0.57,0 -1.031,-0.462 -1.031,-1.031 z m 55.203,-5.573 c 0.563,0.975 1.587,1.52 2.639,1.52 0.515,0 1.038,-0.131 1.515,-0.407 l 4.477,-2.585 c 0.702,-0.405 1.204,-1.061 1.415,-1.847 0.211,-0.786 0.104,-1.606 -0.301,-2.307 L 66.762,36.055 c -0.405,-0.702 -1.061,-1.204 -1.847,-1.415 -0.786,-0.211 -1.606,-0.104 -2.307,0.301 l -4.477,2.585 c -1.16,0.67 -1.71,1.994 -1.457,3.24 -2.811,0.737 -5.638,0.729 -9.006,-0.013 -3.607,-0.794 -5.357,-0.043 -7.725,2.072 L 34.355,40.829 C 34.64,39.565 34.089,38.206 32.909,37.525 L 28.432,34.94 c -1.453,-0.838 -3.316,-0.339 -4.155,1.113 l -7.858,13.611 c -0.838,1.452 -0.339,3.316 1.113,4.155 l 4.477,2.585 c 0.478,0.276 1,0.407 1.515,0.407 0.959,0 1.893,-0.454 2.478,-1.272 l 3.333,4.162 -0.078,0.111 c -1.261,1.793 -0.54,3.704 0.825,4.664 0.487,0.343 1.061,0.568 1.654,0.633 -0.125,1.229 0.513,2.358 1.463,3.026 0.762,0.536 1.735,0.784 2.664,0.585 0.227,0.735 0.717,1.372 1.341,1.812 0.97,0.682 2.281,0.897 3.411,0.321 0.537,1.077 1.643,1.836 2.844,1.943 0.098,0.009 0.195,0.013 0.292,0.013 1.053,0 2.013,-0.517 2.668,-1.449 l 0.51,-0.726 2.66,1.549 c 0.593,0.345 1.181,0.496 1.734,0.496 1.215,0 2.265,-0.726 2.842,-1.717 0.298,-0.511 0.473,-1.098 0.489,-1.691 0.023,0.001 0.046,0.001 0.069,0.001 1.215,0 2.265,-0.726 2.842,-1.717 0.276,-0.474 0.446,-1.013 0.483,-1.561 0.444,0.049 0.89,0.003 1.316,-0.138 0.773,-0.257 1.437,-0.808 1.87,-1.552 0.59,-1.014 0.696,-2.321 0.049,-3.392 0.505,-0.307 0.926,-0.747 1.223,-1.256 0.595,-1.023 0.692,-2.345 0.023,-3.422 l 2.235,-1.141 z m -5.715,-15.98 4.477,-2.585 c 0.149,-0.086 0.315,-0.13 0.484,-0.13 0.086,0 0.173,0.011 0.259,0.034 0.254,0.068 0.466,0.229 0.596,0.454 l 7.858,13.611 c 0.13,0.225 0.164,0.488 0.095,0.743 -0.068,0.254 -0.229,0.466 -0.454,0.596 L 67.998,54.62 C 67.531,54.89 66.93,54.729 66.66,54.261 L 58.802,40.65 c -0.27,-0.467 -0.109,-1.068 0.358,-1.338 z M 23.038,54.62 18.561,52.035 c -0.468,-0.27 -0.629,-0.87 -0.359,-1.338 l 7.858,-13.61 c 0.181,-0.314 0.511,-0.49 0.85,-0.49 0.166,0 0.334,0.042 0.488,0.131 l 4.477,2.585 c 0.468,0.27 0.629,0.87 0.359,1.338 l -7.858,13.61 c -0.27,0.468 -0.87,0.629 -1.338,0.359 z m 8.228,8.171 c -0.177,-0.125 -1.025,-0.796 -0.325,-1.792 l 2.325,-3.306 c 0.7,-0.995 1.619,-0.424 1.796,-0.3 0.177,0.125 1.025,0.796 0.327,1.79 l -1.035,1.471 -0.007,0.011 v 0 l -1.285,1.826 v 0 c -0.7,0.996 -1.619,0.425 -1.796,0.3 z m 4.914,3.36 c -0.239,0.339 -0.528,0.53 -0.861,0.567 -0.304,0.034 -0.646,-0.064 -0.935,-0.267 -0.289,-0.203 -0.496,-0.491 -0.567,-0.79 -0.078,-0.326 0.003,-0.663 0.242,-1.002 l 0.689,-0.98 c 0,0 0,-0.001 0.001,-0.001 v 0 c 0,0 0,0 0,0 v 0 l 1.285,-1.826 1.968,-2.798 c 0.7,-0.995 1.619,-0.424 1.796,-0.3 0.177,0.125 1.025,0.796 0.325,1.792 l -0.493,0.7 c 0,10e-4 -0.001,10e-4 -0.001,0.002 v 0 c 0,0 0,0 0,0 v 0 l -3.249,4.62 c 0,0 -0.001,0.001 -0.001,0.001 z m 4.743,1.349 -0.737,1.048 c -0.7,0.996 -1.619,0.425 -1.796,0.3 -0.177,-0.124 -1.024,-0.795 -0.327,-1.789 l 0.002,-0.002 c 0,0 0,0 0,0 v 0 l 3.25,-4.621 v 0 c 0.701,-0.993 1.619,-0.423 1.796,-0.298 0.177,0.125 1.025,0.797 0.325,1.792 l -1.344,1.91 c 0,10e-4 -10e-4,10e-4 -10e-4,0.002 L 40.925,67.5 c -0.002,-0.001 -0.002,-0.001 -0.002,0 z m 4.974,1.019 -1.166,1.657 c -0.292,0.416 -0.658,0.61 -1.089,0.568 -0.496,-0.044 -0.989,-0.391 -1.199,-0.843 -0.182,-0.392 -0.126,-0.802 0.167,-1.217 0,0 0,0 0,0 l 1.166,-1.658 c 0,0 0,0 0,0 l 10e-4,-0.002 c 0.7,-0.993 1.618,-0.422 1.795,-0.298 0.177,0.126 1.025,0.797 0.325,1.793 z m 14.824,-9.898 c -0.109,0.187 -0.705,1.089 -1.756,0.479 0,0 0,0 -0.001,-0.001 0,0 0,0 0,0 l -4.092,-2.382 c -0.492,-0.287 -1.123,-0.12 -1.41,0.372 -0.286,0.492 -0.12,1.123 0.372,1.409 l 4.093,2.383 10e-4,10e-4 c 0,0 0.001,0.001 0.001,0.001 l 1.068,0.622 c 1.052,0.612 0.561,1.577 0.452,1.764 -0.109,0.187 -0.706,1.089 -1.757,0.477 l -1.325,-0.772 v 0 l -4.133,-2.407 c -0.492,-0.286 -1.123,-0.12 -1.41,0.372 -0.286,0.492 -0.12,1.123 0.372,1.409 l 4.133,2.406 c 0,0 0,0 0,0 1.051,0.612 0.561,1.577 0.452,1.764 -0.109,0.187 -0.706,1.089 -1.757,0.477 L 52.967,66.38 c -10e-4,0 -10e-4,0 -0.002,-10e-4 l -3.37,-1.962 c -0.492,-0.286 -1.123,-0.12 -1.409,0.372 -0.286,0.492 -0.12,1.123 0.372,1.409 l 3.371,1.963 c 0,0 0,0 0,0 1.051,0.613 0.561,1.577 0.452,1.764 -0.109,0.187 -0.705,1.089 -1.757,0.477 l -2.606,-1.517 c 0.587,-1.531 -0.103,-3.031 -1.261,-3.846 -0.381,-0.268 -0.815,-0.464 -1.27,-0.568 0.714,-1.592 0.01,-3.176 -1.192,-4.022 -0.536,-0.378 -1.177,-0.612 -1.834,-0.649 0.006,-1.114 -0.605,-2.119 -1.479,-2.734 -1.043,-0.734 -2.48,-0.926 -3.663,-0.177 -0.262,-0.469 -0.634,-0.876 -1.073,-1.184 -1.365,-0.959 -3.406,-0.992 -4.667,0.801 l -1.012,1.439 -3.451,-4.309 6.319,-10.945 4.828,1.725 c -0.19,0.186 -0.384,0.377 -0.586,0.576 -0.446,0.44 -0.929,0.915 -1.456,1.426 -0.188,0.182 -0.3,0.43 -0.312,0.692 l -0.268,5.644 c -0.07,1.469 0.644,2.145 1.076,2.417 0.937,0.589 2.283,0.466 3.789,-0.347 1.28,-0.691 2.019,-2.269 2.67,-3.661 0.131,-0.28 0.257,-0.549 0.382,-0.799 0.082,-0.039 0.164,-0.078 0.246,-0.116 1.716,-0.815 2.825,-1.282 3.943,-0.636 l 12.52,7.247 c 1.052,0.611 0.563,1.575 0.454,1.762 z M 60.818,54.793 48.78,47.825 c -2.113,-1.22 -4.103,-0.275 -5.859,0.559 -0.183,0.087 -0.366,0.174 -0.549,0.258 -0.205,0.094 -0.373,0.253 -0.479,0.453 -0.2,0.377 -0.394,0.792 -0.582,1.193 -0.516,1.103 -1.101,2.353 -1.782,2.721 -0.931,0.503 -1.544,0.522 -1.712,0.416 -0.066,-0.042 -0.131,-0.239 -0.115,-0.574 l 0.249,-5.237 c 0.419,-0.408 0.809,-0.792 1.175,-1.153 3.671,-3.616 4.543,-4.476 8.098,-3.693 2.44,0.537 6.106,1.085 10.357,-0.111 l 6.149,10.65 z"
     id="path2" /></svg>
