<?xml version="1.0" encoding="UTF-8" standalone="no"?>
<svg
   version="1.1"
   viewBox="-5 -10 87.5 87.499977"
   id="svg910"
   sodipodi:docname="noun-multimedia-6680726.svg"
   width="87.5"
   height="87.499977"
   inkscape:version="1.1.2 (0a00cf5339, 2022-02-04)"
   xmlns:inkscape="http://www.inkscape.org/namespaces/inkscape"
   xmlns:sodipodi="http://sodipodi.sourceforge.net/DTD/sodipodi-0.dtd"
   xmlns="http://www.w3.org/2000/svg"
   xmlns:svg="http://www.w3.org/2000/svg">
  <defs
     id="defs914" />
  <sodipodi:namedview
     id="namedview912"
     pagecolor="#ffffff"
     bordercolor="#666666"
     borderopacity="1.0"
     inkscape:pageshadow="2"
     inkscape:pageopacity="0.0"
     inkscape:pagecheckerboard="0"
     showgrid="false"
     fit-margin-top="0"
     fit-margin-left="0"
     fit-margin-right="0"
     fit-margin-bottom="0"
     inkscape:zoom="5.6148148"
     inkscape:cx="43.723615"
     inkscape:cy="51.292876"
     inkscape:window-width="1920"
     inkscape:window-height="1008"
     inkscape:window-x="0"
     inkscape:window-y="0"
     inkscape:window-maximized="1"
     inkscape:current-layer="svg910" />
  <g
     id="g904"
     style="fill:#268bd2;fill-opacity:1"
     transform="translate(-11.2502,-16.250027)">
    <path
       d="M 81.25,78.125 H 78.125 V 56.25 c 0,-4.418 -3.0781,-8.1055 -7.1992,-9.0938 C 68.7188,48.914 65.7891,50 62.5,50 59.0234,50 55.9258,48.8125 53.6836,46.875 h -22.434 c -5.168,0 -9.375,4.207 -9.375,9.375 v 21.875 h -3.125 c -1.7266,0 -3.125,1.3984 -3.125,3.125 0,6.8945 5.6094,12.5 12.5,12.5 h 43.75 c 6.8945,0 12.5,-5.6055 12.5,-12.5 0,-1.7266 -1.3984,-3.125 -3.125,-3.125 z M 28.125,56.25 c 0,-1.7227 1.4023,-3.125 3.125,-3.125 h 37.5 c 1.7227,0 3.125,1.4023 3.125,3.125 v 21.875 h -43.75 z m 43.75,31.25 h -43.75 c -2.3086,0 -4.3281,-1.2578 -5.4102,-3.125 h 54.57 C 76.2067,86.2422 74.1832,87.5 71.8746,87.5 Z"
       id="path890"
       style="fill:#268bd2;fill-opacity:1" />
    <path
       d="M 92.508,6.8789 C 91.72284,6.28906 90.7033,6.10546 89.7658,6.37109 l -21.875,6.25 c -1.3398,0.38281 -2.2656,1.6094 -2.2656,3.0039 v 16.09 c -0.97656,-0.28125 -2.0195,-0.46484 -3.125,-0.46484 -5.2578,0 -9.375,3.4297 -9.375,7.8125 0,4.3828 4.1172,7.8125 9.375,7.8125 5.2578,0 9.375,-3.4297 9.375,-7.8125 v -21.082 l 15.625,-4.4609 v 11.945 c -0.97656,-0.28125 -2.0195,-0.46484 -3.125,-0.46484 -5.2578,0 -9.375,3.4297 -9.375,7.8125 0,4.3828 4.1172,7.8125 9.375,7.8125 5.2578,0 9.375,-3.4297 9.375,-7.8125 v -23.438 c 0,-0.98047 -0.46094,-1.9062 -1.2422,-2.4961 z M 62.5,40.6249 c -1.9375,0 -3.125,-1.0117 -3.125,-1.5625 0,-0.5508 1.1875,-1.5625 3.125,-1.5625 1.9375,0 3.125,1.0117 3.125,1.5625 0,0.5508 -1.1875,1.5625 -3.125,1.5625 z m 21.875,-6.25 c -1.9375,0 -3.125,-1.0117 -3.125,-1.5625 0,-0.5508 1.1875,-1.5625 3.125,-1.5625 1.9375,0 3.125,1.0117 3.125,1.5625 0,0.5508 -1.1875,1.5625 -3.125,1.5625 z"
       id="path892"
       style="fill:#268bd2;fill-opacity:1" />
    <path
       d="m 57.648,62.828 -12.5,-6.25 c -0.96875,-0.48047 -2.1211,-0.4375 -3.043,0.13672 -0.91797,0.57422 -1.4805,1.5781 -1.4805,2.6602 v 12.5 c 0,1.082 0.5625,2.0859 1.4805,2.6562 0.50391,0.3125 1.0742,0.46875 1.6445,0.46875 0.47656,0 0.95703,-0.10938 1.3984,-0.32812 l 12.5,-6.25 c 1.0586,-0.53125 1.7266,-1.6133 1.7266,-2.7969 0,-1.1836 -0.66797,-2.2656 -1.7266,-2.7969 z m -10.773,3.9883 v -2.3867 l 2.3867,1.1953 z"
       id="path894"
       style="fill:#268bd2;fill-opacity:1" />
    <path
       d="m 29.852,34.047 c 0.44141,0.21875 0.92188,0.32812 1.3984,0.32812 0.57031,0 1.1406,-0.15625 1.6445,-0.46875 0.91797,-0.57031 1.4805,-1.5742 1.4805,-2.6562 v -21.875 c 0,-1.082 -0.5625,-2.0859 -1.4805,-2.6562 -0.92188,-0.57422 -2.0742,-0.62109 -3.043,-0.14062 l -11.84,5.9219 H 9.3752 c -1.7266,0 -3.125,1.3984 -3.125,3.125 v 9.375 c 0,1.7266 1.3984,3.125 3.125,3.125 h 8.6367 z m -1.7266,-7.8555 -6.25,-3.125 v -5.5078 l 6.25,-3.125 z m -15.625,-7.4414 h 3.125 v 3.125 h -3.125 z"
       id="path896"
       style="fill:#268bd2;fill-opacity:1" />
    <path
       d="M 59.375,25 C 61.1016,25 62.5,23.6016 62.5,21.875 V 18.75 c 0,-1.7266 -1.3984,-3.125 -3.125,-3.125 -1.7266,0 -3.125,1.3984 -3.125,3.125 v 3.125 c 0,1.7266 1.3984,3.125 3.125,3.125 z"
       id="path898"
       style="fill:#268bd2;fill-opacity:1" />
    <path
       d="m 40.625,25 c 1.7266,0 3.125,-1.3984 3.125,-3.125 V 18.75 c 0,-1.7266 -1.3984,-3.125 -3.125,-3.125 -1.7266,0 -3.125,1.3984 -3.125,3.125 v 3.125 c 0,1.7266 1.3984,3.125 3.125,3.125 z"
       id="path900"
       style="fill:#268bd2;fill-opacity:1" />
    <path
       d="m 50,31.25 c 1.7266,0 3.125,-1.3984 3.125,-3.125 V 12.5 c 0,-1.7266 -1.3984,-3.125 -3.125,-3.125 -1.7266,0 -3.125,1.3984 -3.125,3.125 v 15.625 c 0,1.7266 1.3984,3.125 3.125,3.125 z"
       id="path902"
       style="fill:#268bd2;fill-opacity:1" />
  </g>
</svg>
