<?xml version="1.0" encoding="UTF-8" standalone="no"?>
<svg
   width="102.23206"
   height="118.63203"
   viewBox="0 0 102.23206 118.63203"
   version="1.1"
   id="svg23"
   sodipodi:docname="ol-describe-map.svg"
   inkscape:version="1.1.2 (0a00cf5339, 2022-02-04)"
   xmlns:inkscape="http://www.inkscape.org/namespaces/inkscape"
   xmlns:sodipodi="http://sodipodi.sourceforge.net/DTD/sodipodi-0.dtd"
   xmlns:xlink="http://www.w3.org/1999/xlink"
   xmlns="http://www.w3.org/2000/svg"
   xmlns:svg="http://www.w3.org/2000/svg">
  <sodipodi:namedview
     id="namedview16"
     pagecolor="#ffffff"
     bordercolor="#666666"
     borderopacity="1.0"
     inkscape:pageshadow="2"
     inkscape:pageopacity="0.0"
     inkscape:pagecheckerboard="0"
     showgrid="false"
     inkscape:zoom="7.5443371"
     inkscape:cx="51.097929"
     inkscape:cy="59.249738"
     inkscape:window-width="1920"
     inkscape:window-height="1132"
     inkscape:window-x="1920"
     inkscape:window-y="0"
     inkscape:window-maximized="1"
     inkscape:current-layer="svg23" />
  <defs
     id="defs9">
    <g
       id="layer"
       transform="translate(50,50)">
      <g
         transform="scale(0.7071,0.5)"
         id="g6">
        <g
           transform="translate(-50,-50)"
           id="g4">
          <rect
             width="100"
             height="100"
             rx="15"
             transform="rotate(45,50,50)"
             id="rect2"
             x="0"
             y="0" />
        </g>
      </g>
    </g>
  </defs>
  <g
     id="g898">
    <g
       id="g884">
      <g
         fill="#333333"
         transform="translate(1.116026,31.376472)"
         id="g13">
        <use
           xlink:href="#layer"
           id="use11"
           x="0"
           y="0"
           width="100%"
           height="100%" />
      </g>
      <g
         fill="#ffffff"
         id="g17"
         transform="translate(1.116026,21.376472)">
        <use
           xlink:href="#layer"
           id="use15"
           x="0"
           y="0"
           width="100%"
           height="100%" />
      </g>
      <g
         fill="#00aaff"
         transform="translate(1.116026,11.376472)"
         id="g21">
        <use
           xlink:href="#layer"
           id="use19"
           x="0"
           y="0"
           width="100%"
           height="100%" />
      </g>
    </g>
    <g
       aria-label="A11y"
       id="text2670"
       style="font-size:52.9301px;line-height:1.25;-inkscape-font-specification:'sans-serif, Normal';letter-spacing:0px;word-spacing:0px;fill:#333333;stroke:#00aaff">
      <path
         d="M 26.77025,5.4999986 32.998841,47.34269 H 21.859743 l -0.542741,-7.52083 h -3.902561 l -0.646119,7.52083 H 5.5 L 11.030782,5.4999986 Z M 21.006865,32.404409 Q 20.179832,25.297096 19.352799,14.855807 17.698734,26.847783 17.285217,32.404409 Z"
         style="font-family:Impact;-inkscape-font-specification:'Impact, Normal'"
         id="path833" />
      <path
         d="M 50.650823,5.4999986 V 47.34269 H 40.209534 V 24.909425 q 0,-4.858818 -0.232603,-5.840919 -0.232603,-0.982102 -1.292239,-1.473153 -1.033791,-0.516895 -4.65206,-0.516895 H 32.998841 V 12.193795 Q 40.57136,10.565574 44.499766,5.4999986 Z"
         style="font-family:Impact;-inkscape-font-specification:'Impact, Normal'"
         id="path835" />
      <path
         d="M 70.809747,5.4999986 V 47.34269 H 60.368458 V 24.909425 q 0,-4.858818 -0.232603,-5.840919 -0.232603,-0.982102 -1.292239,-1.473153 -1.033791,-0.516895 -4.65206,-0.516895 h -1.033791 v -4.884663 q 7.57252,-1.628221 11.500925,-6.6937964 z"
         style="font-family:Impact;-inkscape-font-specification:'Impact, Normal'"
         id="path837" />
      <path
         d="m 96.732052,13.046673 -2.997994,24.810984 q -0.697809,5.892609 -1.18886,8.037725 -0.465206,2.145116 -1.576531,3.540734 -1.111325,1.395618 -3.101373,2.041738 -1.964203,0.671964 -6.306125,0.671964 h -6.33197 v -5.479093 q 2.429409,0 3.127218,-0.232603 0.697809,-0.258447 0.697809,-1.111325 0,-0.413516 -0.64612,-3.592424 l -5.711695,-28.6877 h 9.485033 l 3.41151,23.131074 1.654066,-23.131074 z"
         style="font-family:Impact;-inkscape-font-specification:'Impact, Normal'"
         id="path839" />
    </g>
  </g>
</svg>
