<?xml version="1.0" encoding="UTF-8" standalone="no"?>
<svg
   viewBox="0 0 310 310"
   fill="#FFF"
   version="1.1"
   id="svg154807"
   sodipodi:docname="quote-open.svg"
   inkscape:version="1.1.2 (0a00cf5339, 2022-02-04)"
   xmlns:inkscape="http://www.inkscape.org/namespaces/inkscape"
   xmlns:sodipodi="http://sodipodi.sourceforge.net/DTD/sodipodi-0.dtd"
   xmlns="http://www.w3.org/2000/svg"
   xmlns:svg="http://www.w3.org/2000/svg">
  <defs
     id="defs154811" />
  <sodipodi:namedview
     id="namedview154809"
     pagecolor="#ffffff"
     bordercolor="#666666"
     borderopacity="1.0"
     inkscape:pageshadow="2"
     inkscape:pageopacity="0.0"
     inkscape:pagecheckerboard="0"
     showgrid="false"
     inkscape:zoom="1.3774194"
     inkscape:cx="153.54801"
     inkscape:cy="126.32318"
     inkscape:window-width="1920"
     inkscape:window-height="1012"
     inkscape:window-x="1920"
     inkscape:window-y="0"
     inkscape:window-maximized="1"
     inkscape:current-layer="svg154807" />
  <path
     d="M123.15 201.35C46.46 144.43 68.53 98.48 113.39 46.9c7.44-8.56 1.42-21.89-9.93-21.89-3.19 0-6.27 1.16-8.68 3.25-32.67 28.24-77.39 90.03-70.64 154.3 2.46 26.66 4.99 43.91 20.61 75.15 43.22 67.06 135.08-4.16 78.4-56.36zm145.45 0c-76.69-56.92-54.62-102.87-9.76-154.45 7.44-8.56 1.42-21.89-9.93-21.89-3.19 0-6.27 1.16-8.68 3.25-32.67 28.25-77.39 90.03-70.64 154.31 2.46 26.66 4.99 43.91 20.61 75.15 43.22 67.05 135.08-4.17 78.4-56.37z"
     id="path154805"
     style="fill:#808080;opacity:0.75" />
</svg>
