<?xml version="1.0" encoding="UTF-8" standalone="no"?>
<svg
   data-name="Layer 1"
   viewBox="0 0 75.90715 83.248001"
   x="0px"
   y="0px"
   version="1.1"
   id="svg884"
   sodipodi:docname="superset_noun-urban-planning-6190907.svg"
   width="75.90715"
   height="83.248001"
   inkscape:version="1.1.2 (0a00cf5339, 2022-02-04)"
   xmlns:inkscape="http://www.inkscape.org/namespaces/inkscape"
   xmlns:sodipodi="http://sodipodi.sourceforge.net/DTD/sodipodi-0.dtd"
   xmlns="http://www.w3.org/2000/svg"
   xmlns:svg="http://www.w3.org/2000/svg"
   xmlns:rdf="http://www.w3.org/1999/02/22-rdf-syntax-ns#"
   xmlns:cc="http://creativecommons.org/ns#"
   xmlns:dc="http://purl.org/dc/elements/1.1/">
  <sodipodi:namedview
     id="namedview886"
     pagecolor="#ffffff"
     bordercolor="#666666"
     borderopacity="1.0"
     inkscape:pageshadow="2"
     inkscape:pageopacity="0.0"
     inkscape:pagecheckerboard="0"
     showgrid="false"
     fit-margin-top="0"
     fit-margin-left="0"
     fit-margin-right="0"
     fit-margin-bottom="0"
     inkscape:zoom="1.9698178"
     inkscape:cx="114.47759"
     inkscape:cy="-43.151199"
     inkscape:window-width="1920"
     inkscape:window-height="1008"
     inkscape:window-x="0"
     inkscape:window-y="0"
     inkscape:window-maximized="1"
     inkscape:current-layer="svg884" />
  <defs
     id="defs874">
    <style
       id="style872">.cls-1{fill-rule:evenodd;}</style>
  </defs>
  <title
     id="title876">a</title>
  <path
     class="cls-1"
     d="m 22.274013,26.364 v -0.986 h 1.972 v 2.146 h -1.972 z m 4.359,0 v -0.986 h 1.972 v 2.146 h -1.972 z m -4.359,5.288 v -0.986 h 1.972 v 2.146 h -1.972 z m 4.359,0 v -0.986 h 1.972 v 2.146 h -1.972 z m -4.359,5.287 v -0.986 h 1.972 v 2.146 h -1.972 z m 4.359,0 v -0.986 h 1.972 v 2.146 h -1.972 z m -4.359,5.285 v -0.986 h 1.972 v 2.146 h -1.972 z m 4.359,0 v -0.986 h 1.972 v 2.146 h -1.972 z m 8.574,-15.86 v -0.986 h 1.972 v 2.146 h -1.972 z m 4.359,0 v -0.986 h 1.972 v 2.146 h -1.972 z m -4.359,5.288 v -0.986 h 1.972 v 2.146 h -1.972 z m 4.359,0 v -0.986 h 1.972 v 2.146 h -1.972 z m -4.359,5.287 v -0.986 h 1.972 v 2.146 h -1.972 z m 4.359,0 v -0.986 h 1.972 v 2.146 h -1.972 z m -4.359,5.285 v -0.986 h 1.972 v 2.146 h -1.972 z m 4.359,0 v -0.986 h 1.972 v 2.146 h -1.972 z m -4.359,-21.148 V 20.09 h 1.972 v 2.146 h -1.972 z m 4.359,0 V 20.09 h 1.972 v 2.146 h -1.972 z m 12.891,41.362 0.151,7.046 5.94,-3.792 z m 12.441,-18.044 -2.794,-1.492 -9.336,17.475 2.794,1.493 z m 0.449,-7.561 7.319,3.91 1.123,-2.1 a 1.379,1.379 0 0 0 -0.562,-1.856 l -4.9,-2.618 a 1.378,1.378 0 0 0 -1.857,0.562 l -1.123,2.1 z m -1.39,24.382 7.222,-13.518 a 1.989,1.989 0 0 0 2.278,-0.973 l 1.375,-2.574 a 1.989,1.989 0 0 0 -0.458,-2.437 l 1.1,-2.067 a 0.92,0.92 0 0 0 0.091,-0.173 3.343,3.343 0 0 0 -1.327,-4.367 0.958,0.958 0 0 0 -0.172,-0.094 l -4.815,-2.578 a 3.343,3.343 0 0 0 -4.514,1.371 l -0.78,1.461 V 3.589 A 3.6,3.6 0 0 0 60.369013,0 h -47.712 a 0.981,0.981 0 0 0 -0.706,0.3 L 0.28901308,11.957 A 0.98,0.98 0 0 0 1.3079972e-5,12.657 V 79.66 A 3.6,3.6 0 0 0 3.5880131,83.248 H 60.368013 a 3.6,3.6 0 0 0 3.589,-3.588 z m -1.9,-0.622 -1.973,3.7 -2.794,-1.493 9.34,-17.476 2.794,1.492 -7.278,13.619 a 1.044,1.044 0 0 0 -0.085,0.158 z m 1.009,-22.75 9.537,5.095 v 0 l 0.487,0.26 0.007,0.01 a 0.022,0.022 0 0 1 0,0.014 l -1.375,2.574 -0.01,0.006 a 0.015,0.015 0 0 1 -0.013,0 l -9.54,-5.1 v 0 l -0.488,-0.26 -0.007,-0.01 a 0.022,0.022 0 0 1 0,-0.014 l 1.375,-2.574 v 0 h 0.024 z m -49.426,-35.871 v 8.08 a 3.59,3.59 0 0 1 -3.589,3.584 H 1.9720131 v 66.02 a 1.625,1.625 0 0 0 1.616,1.616 H 60.368013 a 1.624,1.624 0 0 0 1.616,-1.616 v -14.75 l -0.627,1.173 -0.019,0.034 v 0 l -0.01,0.016 v 0.006 l -0.011,0.017 v 0 a 0.978,0.978 0 0 1 -0.316,0.3 l -8.78,5.6 a 0.982,0.982 0 0 1 -1.536,-0.792 l -0.228,-10.46 v -0.1 -0.012 -0.017 0 a 0.983,0.983 0 0 1 0.121,-0.371 l 9.81,-18.362 a 1.986,1.986 0 0 1 -0.458,-2.437 l 1.381,-2.577 a 1.963,1.963 0 0 1 0.673,-0.731 v -32.6 a 1.624,1.624 0 0 0 -1.616,-1.617 z M 3.3570131,11.675 11.666013,3.366 v 6.686 a 1.632,1.632 0 0 1 -1.617,1.62 H 3.3570131 Z M 32.957013,46.749 h 10.824 V 11.86 l -10.817,3.68 v 31.209 z m -12.789,0 h 10.824 V 20.764 h -10.817 v 25.985 z m -8.746,1.975 h 41.113 a 0.986,0.986 0 1 0 0,-1.972 h -6.778 V 10.485 a 0.987,0.987 0 0 0 -1.364,-0.911 l -12.731,4.33 a 0.984,0.984 0 0 0 -0.668,0.932 v 0 3.956 h -11.8 a 0.987,0.987 0 0 0 -0.986,0.986 v 26.971 h -6.786 a 0.986,0.986 0 0 0 0,1.972 z m 2.482,4.247 a 1.644,1.644 0 1 1 -1.162,-0.481 1.638,1.638 0 0 1 1.162,0.481 z m -1.162,-2.453 a 3.619,3.619 0 0 1 3.479,2.629 h 25.842 a 5.408,5.408 0 0 1 5.236,3.095 5.225,5.225 0 0 1 0,4.274 5.409,5.409 0 0 1 -5.236,3.094 h -25.9 a 3.515,3.515 0 0 0 -3.44,1.924 3.327,3.327 0 0 0 0,2.672 3.515,3.515 0 0 0 3.44,1.924 h 30.644 a 0.986,0.986 0 0 1 0,1.972 h -30.642 a 5.406,5.406 0 0 1 -5.235,-3.095 5.225,5.225 0 0 1 0,-4.274 5.408,5.408 0 0 1 5.235,-3.095 h 25.9 a 3.515,3.515 0 0 0 3.441,-1.923 3.327,3.327 0 0 0 0,-2.672 3.516,3.516 0 0 0 -3.441,-1.924 h -25.844 a 3.615,3.615 0 1 1 -3.479,-4.6 z"
     id="path878" />
  <metadata
     id="metadata968">
    <rdf:RDF>
      <cc:Work
         rdf:about="">
        <dc:title>a</dc:title>
      </cc:Work>
    </rdf:RDF>
  </metadata>
</svg>
