<?xml version="1.0" encoding="UTF-8" standalone="no"?>
<svg
   version="1.1"
   x="0px"
   y="0px"
   viewBox="0 0 77.720047 90"
   enable-background="new 0 0 100 100"
   xml:space="preserve"
   id="svg106"
   sodipodi:docname="superset_noun-renewable-energy-81668.svg"
   width="77.720047"
   height="90"
   inkscape:version="1.1.2 (0a00cf5339, 2022-02-04)"
   xmlns:inkscape="http://www.inkscape.org/namespaces/inkscape"
   xmlns:sodipodi="http://sodipodi.sourceforge.net/DTD/sodipodi-0.dtd"
   xmlns="http://www.w3.org/2000/svg"
   xmlns:svg="http://www.w3.org/2000/svg"><defs
     id="defs110" /><sodipodi:namedview
     id="namedview108"
     pagecolor="#ffffff"
     bordercolor="#666666"
     borderopacity="1.0"
     inkscape:pageshadow="2"
     inkscape:pageopacity="0.0"
     inkscape:pagecheckerboard="0"
     showgrid="false"
     fit-margin-top="0"
     fit-margin-left="0"
     fit-margin-right="0"
     fit-margin-bottom="0"
     inkscape:zoom="5.752"
     inkscape:cx="18.602225"
     inkscape:cy="57.371349"
     inkscape:window-width="1920"
     inkscape:window-height="1008"
     inkscape:window-x="0"
     inkscape:window-y="0"
     inkscape:window-maximized="1"
     inkscape:current-layer="svg106" /><path
     d="m 34.7,64.5 c -4.4,0 -8.9,0 -13.3,0 -4.4,0 -8.9,0 -13.3,0 v 0 c -1,2.7 -2.1,5.6 -3.4,8.9 -1.4,3.7 -3,7.8 -4.7,12.4 6.2,0 12.4,0 18.6,0 6.2,0 12.4,0 18.6,0 -0.6,-4.7 -1,-8.8 -1.5,-12.4 -0.4,-3.3 -0.7,-6.3 -1,-8.9 z M 19,82.9 c -5.1,0 -10.2,0 -15.3,0 C 4.9,79.4 6,76.2 7,73.4 7.9,70.8 8.7,68.3 9.5,66.1 v 0 c 3.9,0 7.8,0 11.7,0 3.9,0 7.8,0 11.7,0 0.2,2.2 0.4,4.7 0.6,7.3 0.2,2.9 0.5,6.1 0.8,9.5 -5.1,0 -10.2,0 -15.3,0 z"
     id="path2" /><path
     d="m 6.8,76.5 c -0.5,1.7 -1.1,3.4 -1.7,5.3 2.1,0 4.2,0 6.3,0 0.4,-1.8 0.9,-3.6 1.3,-5.3 -2,0 -4,0 -5.9,0 z"
     id="path4" /><path
     d="m 13.9,71.2 c -1.8,0 -3.6,0 -5.3,0 -0.5,1.4 -1,2.9 -1.5,4.4 1.9,0 3.8,0 5.7,0 0.4,-1.5 0.7,-3 1.1,-4.4 z"
     id="path6" /><path
     d="m 15,66.7 c -1.7,0 -3.3,0 -4.9,0 -0.4,1.2 -0.8,2.4 -1.2,3.8 1.8,0 3.5,0 5.3,0 0.2,-1.4 0.5,-2.6 0.8,-3.8 z"
     id="path8" /><path
     d="m 20.2,70.5 c 0.2,-1.3 0.4,-2.6 0.5,-3.8 -1.6,0 -3.3,0 -4.9,0 -0.3,1.2 -0.6,2.4 -0.9,3.8 1.8,0 3.5,0 5.3,0 z"
     id="path10" /><path
     d="m 14.7,71.2 c -0.3,1.4 -0.7,2.9 -1,4.4 1.9,0 3.8,0 5.7,0 0.2,-1.6 0.4,-3 0.6,-4.4 -1.7,0 -3.5,0 -5.3,0 z"
     id="path12" /><path
     d="m 12.3,81.8 c 2.1,0 4.2,0 6.3,0 0.2,-1.8 0.5,-3.6 0.7,-5.3 -1.9,0 -3.9,0 -5.8,0 -0.4,1.7 -0.7,3.5 -1.2,5.3 z"
     id="path14" /><path
     d="m 19.6,81.8 c 2.1,0 4.2,0 6.3,0 0.1,-1.8 0.1,-3.6 0.2,-5.3 -1.9,0 -3.9,0 -5.8,0 -0.2,1.7 -0.4,3.5 -0.7,5.3 z"
     id="path16" /><path
     d="m 20.4,75.6 c 1.9,0 3.8,0 5.7,0 0.1,-1.6 0.1,-3 0.2,-4.4 -1.8,0 -3.6,0 -5.3,0 -0.2,1.4 -0.4,2.9 -0.6,4.4 z"
     id="path18" /><path
     d="m 21,70.5 c 1.8,0 3.5,0 5.3,0 0,-1.3 0.1,-2.6 0.1,-3.8 -1.7,0 -3.3,0 -5,0 -0.1,1.2 -0.2,2.4 -0.4,3.8 z"
     id="path20" /><path
     d="m 27,76.5 c 0,1.7 -0.1,3.4 -0.1,5.3 2.1,0 4.2,0 6.3,0 -0.1,-1.8 -0.3,-3.6 -0.4,-5.3 -1.9,0 -3.8,0 -5.8,0 z"
     id="path22" /><path
     d="m 32.5,71.2 c -1.8,0 -3.6,0 -5.4,0 0,1.4 -0.1,2.9 -0.1,4.4 1.9,0 3.8,0 5.8,0 -0.1,-1.5 -0.2,-3 -0.3,-4.4 z"
     id="path24" /><path
     d="m 32.2,66.7 c -1.6,0 -3.3,0 -4.9,0 0,1.2 0,2.4 -0.1,3.8 1.8,0 3.5,0 5.3,0 -0.2,-1.4 -0.2,-2.6 -0.3,-3.8 z"
     id="path26" /><path
     d="m 69.5,64.5 v 0 c -4.4,0 -8.9,0 -13.3,0 -4.4,0 -8.9,0 -13.3,0 -0.3,2.7 -0.7,5.6 -1.1,8.9 -0.4,3.7 -0.9,7.8 -1.5,12.4 6.2,0 12.4,0 18.6,0 6.2,0 12.4,0 18.6,0 C 75.7,81.2 74.2,77 72.8,73.4 71.7,70.1 70.5,67.1 69.5,64.5 Z M 58.6,82.9 c -5.1,0 -10.2,0 -15.3,0 0.3,-3.5 0.6,-6.7 0.8,-9.5 0.2,-2.6 0.4,-5.1 0.6,-7.3 3.9,0 7.8,0 11.7,0 3.9,0 7.8,0 11.7,0 v 0 c 0.8,2.2 1.6,4.7 2.5,7.3 1,2.9 2.1,6.1 3.3,9.5 -5,0 -10.1,0 -15.3,0 z"
     id="path28" /><path
     d="m 66.3,81.8 c 2.1,0 4.2,0 6.3,0 -0.6,-1.8 -1.2,-3.6 -1.7,-5.3 -1.9,0 -3.9,0 -5.8,0 0.3,1.7 0.8,3.5 1.2,5.3 z"
     id="path30" /><path
     d="m 64.8,75.6 c 1.9,0 3.8,0 5.7,0 -0.5,-1.5 -1,-3 -1.5,-4.4 -1.8,0 -3.6,0 -5.3,0 0.4,1.4 0.7,2.9 1.1,4.4 z"
     id="path32" /><path
     d="m 68.8,70.5 c -0.4,-1.3 -0.8,-2.6 -1.2,-3.8 -1.6,0 -3.3,0 -4.9,0 0.3,1.2 0.6,2.4 0.9,3.8 1.7,0 3.5,0 5.2,0 z"
     id="path34" /><path
     d="m 62.7,70.5 c -0.3,-1.3 -0.6,-2.6 -0.8,-3.8 -1.7,0 -3.3,0 -4.9,0 0.2,1.2 0.3,2.4 0.5,3.8 1.7,0 3.5,0 5.2,0 z"
     id="path36" /><path
     d="m 62.9,71.2 c -1.8,0 -3.6,0 -5.3,0 0.2,1.4 0.4,2.9 0.6,4.4 1.9,0 3.8,0 5.7,0 -0.4,-1.5 -0.7,-3 -1,-4.4 z"
     id="path38" /><path
     d="m 58.3,76.5 c 0.2,1.7 0.5,3.4 0.7,5.3 2.1,0 4.2,0 6.3,0 -0.4,-1.8 -0.8,-3.6 -1.2,-5.3 -1.9,0 -3.9,0 -5.8,0 z"
     id="path40" /><path
     d="m 51.5,76.5 c 0,1.7 0.1,3.4 0.2,5.3 2.1,0 4.2,0 6.3,0 -0.2,-1.8 -0.4,-3.6 -0.6,-5.3 -2,0 -3.9,0 -5.9,0 z"
     id="path42" /><path
     d="m 56.7,71.2 c -1.8,0 -3.6,0 -5.3,0 0,1.4 0.1,2.9 0.2,4.4 1.9,0 3.8,0 5.7,0 -0.2,-1.5 -0.4,-3 -0.6,-4.4 z"
     id="path44" /><path
     d="m 56.1,66.7 c -1.7,0 -3.3,0 -5,0 0,1.2 0.1,2.4 0.1,3.8 1.8,0 3.5,0 5.3,0 -0.1,-1.4 -0.2,-2.6 -0.4,-3.8 z"
     id="path46" /><path
     d="m 44.8,76.5 c -0.1,1.7 -0.2,3.4 -0.4,5.3 2.1,0 4.2,0 6.3,0 0,-1.8 -0.1,-3.6 -0.1,-5.3 -1.9,0 -3.9,0 -5.8,0 z"
     id="path48" /><path
     d="m 50.5,71.2 c -1.8,0 -3.6,0 -5.4,0 -0.1,1.4 -0.2,2.9 -0.3,4.4 1.9,0 3.8,0 5.8,0 0,-1.5 -0.1,-3 -0.1,-4.4 z"
     id="path50" /><path
     d="m 50.4,66.7 c -1.7,0 -3.3,0 -4.9,0 -0.1,1.2 -0.2,2.4 -0.3,3.8 1.8,0 3.5,0 5.3,0 0,-1.4 -0.1,-2.6 -0.1,-3.8 z"
     id="path52" /><rect
     x="5.2999992"
     y="86.800003"
     width="5.3000002"
     height="3.2"
     id="rect54" /><rect
     x="67"
     y="86.800003"
     width="5.3000002"
     height="3.2"
     id="rect56" /><rect
     x="26.599998"
     y="86.800003"
     width="5.3000002"
     height="3.2"
     id="rect58" /><rect
     x="45.700001"
     y="86.800003"
     width="5.3000002"
     height="3.2"
     id="rect60" /><path
     d="m 57.4,21.7 c 1.5,0.1 2.7,0.2 3.6,0.1 0.2,0.4 0.5,0.8 0.9,1 l -0.5,40.7 h 3.1 l -0.4,-37 c 1.4,3.1 9,17.9 9.7,17.6 0.7,-0.3 -5.9,-15.6 -7.3,-18.7 -0.6,-1.3 -1.2,-2.4 -1.8,-3.1 0.3,-0.4 0.4,-0.8 0.4,-1.3 0,-0.4 -0.1,-0.7 -0.2,-1 0.7,-0.6 1.4,-1.6 2.3,-2.8 2,-2.8 11,-16.8 10.5,-17.2 0,0 -0.1,0 -0.1,0 -1.1,0.4 -10.6,13 -12.5,15.7 -0.8,1.2 -1.4,2.3 -1.8,3.1 -0.1,0 -0.2,0 -0.2,0 -0.7,0 -1.4,0.4 -1.8,1 -0.9,-0.3 -2.1,-0.5 -3.5,-0.6 -3.4,-0.3 -20,-1.2 -20.1,-0.5 -0.2,0.7 16.3,2.7 19.7,3 z"
     id="path62" /><path
     d="m 45.9,39.6 c 0.9,-0.2 1.5,-0.5 2,-0.8 0.1,0.1 0.2,0.2 0.3,0.3 l -0.3,24.4 h 1.9 L 49.5,39.6 c 0.3,0.4 0.6,0.8 1.1,1.3 1.4,1.4 8.8,8.3 9.1,8 0.3,-0.3 -6.5,-7.6 -8,-9.1 -0.6,-0.6 -1.2,-1.1 -1.7,-1.4 0,-0.1 0,-0.1 0,-0.2 0.1,-0.4 -0.1,-0.8 -0.4,-1.1 0.3,-0.5 0.5,-1.2 0.8,-2.1 0.5,-2 2.8,-11.7 2.4,-11.8 -0.4,-0.1 -3.3,9.5 -3.8,11.4 -0.2,0.9 -0.3,1.5 -0.4,2.1 -0.5,0.1 -0.9,0.5 -1,1 -0.6,0 -1.3,0.1 -2.1,0.4 -2,0.5 -11.5,3.4 -11.4,3.8 0.1,0.4 9.9,-1.8 11.8,-2.3 z"
     id="path64" /><circle
     cx="15.4"
     cy="22"
     r="8"
     id="circle66" /><path
     d="m 15.4,11.9 c 0.3,0 0.5,-0.3 0.5,-0.6 V 7.1 c 0,-0.3 -0.2,-0.6 -0.5,-0.6 -0.3,0 -0.5,0.3 -0.5,0.6 v 4.2 c 0,0.3 0.2,0.6 0.5,0.6 z"
     id="path68" /><path
     d="m 14.9,32.6 v 4.2 c 0,0.3 0.2,0.6 0.5,0.6 0.3,0 0.5,-0.3 0.5,-0.6 v -4.2 c 0,-0.3 -0.2,-0.6 -0.5,-0.6 -0.3,0 -0.5,0.3 -0.5,0.6 z"
     id="path70" /><polygon
     points=""
     id="polygon72"
     transform="translate(-11.5,-5)" /><path
     d="m 7.5,14.8 c 0.2,0.2 0.6,0.2 0.8,0 0.2,-0.2 0.2,-0.6 0,-0.8 l -3,-3 c -0.2,-0.2 -0.6,-0.2 -0.8,0 -0.2,0.2 -0.2,0.6 0,0.8 z"
     id="path74" /><path
     d="m 26.3,32.1 -3,-3 c -0.2,-0.2 -0.6,-0.2 -0.8,0 -0.2,0.2 -0.2,0.6 0,0.8 l 3,3 c 0.2,0.2 0.6,0.2 0.8,0 v 0 c 0.2,-0.2 0.2,-0.6 0,-0.8 z"
     id="path76" /><polygon
     points=""
     id="polygon78"
     transform="translate(-11.5,-5)" /><path
     d="m 0.6,22.5 h 4.2 c 0.3,0 0.6,-0.2 0.6,-0.5 0,-0.3 -0.3,-0.5 -0.6,-0.5 H 0.6 C 0.3,21.5 0,21.7 0,22 c 0,0.3 0.3,0.5 0.6,0.5 z"
     id="path80" /><polygon
     points=""
     id="polygon82"
     transform="translate(-11.5,-5)" /><polygon
     points=""
     id="polygon84"
     transform="translate(-11.5,-5)" /><polygon
     points=""
     id="polygon86"
     transform="translate(-11.5,-5)" /><polygon
     points=""
     id="polygon88"
     transform="translate(-11.5,-5)" /><path
     d="m 25.5,22 c 0,0.3 0.3,0.5 0.6,0.5 h 4.2 c 0.3,0 0.6,-0.2 0.6,-0.5 0,-0.3 -0.3,-0.5 -0.6,-0.5 h -4.2 c -0.3,-0.1 -0.6,0.2 -0.6,0.5 z"
     id="path90" /><polygon
     points=""
     id="polygon92"
     transform="translate(-11.5,-5)" /><polygon
     points=""
     id="polygon94"
     transform="translate(-11.5,-5)" /><path
     d="m 5.3,32.8 3,-3 C 8.5,29.6 8.5,29.2 8.3,29 8.1,28.8 7.7,28.8 7.5,29 l -3,3 c -0.2,0.2 -0.2,0.6 0,0.8 0.2,0.2 0.6,0.3 0.8,0 z"
     id="path96" /><polygon
     points=""
     id="polygon98"
     transform="translate(-11.5,-5)" /><path
     d="m 23.3,14.8 3,-3 c 0.2,-0.2 0.2,-0.6 0,-0.8 v 0 c -0.2,-0.2 -0.6,-0.2 -0.8,0 l -3,3 c -0.2,0.2 -0.2,0.6 0,0.8 0.2,0.2 0.6,0.2 0.8,0 z"
     id="path100" /></svg>
