<?xml version="1.0" encoding="UTF-8" standalone="no"?>
<!--
  Licensed to the Apache Software Foundation (ASF) under one
  or more contributor license agreements.  See the NOTICE file
  distributed with this work for additional information
  regarding copyright ownership.  The ASF licenses this file
  to you under the Apache License, Version 2.0 (the
  "License"); you may not use this file except in compliance
  with the License.  You may obtain a copy of the License at
    http://www.apache.org/licenses/LICENSE-2.0
  Unless required by applicable law or agreed to in writing,
  software distributed under the License is distributed on an
  "AS IS" BASIS, WITHOUT WARRANTIES OR CONDITIONS OF ANY
  KIND, either express or implied.  See the License for the
  specific language governing permissions and limitations
  under the License.
-->

<svg
   width="442.29739"
   height="156.64502"
   viewBox="0 0 442.29739 156.64502"
   version="1.1"
   xml:space="preserve"
   style="clip-rule:evenodd;fill-rule:evenodd;stroke-linejoin:round;stroke-miterlimit:2"
   id="svg1324"
   sodipodi:docname="superset-features.svg"
   inkscape:version="1.1.2 (0a00cf5339, 2022-02-04)"
   xmlns:inkscape="http://www.inkscape.org/namespaces/inkscape"
   xmlns:sodipodi="http://sodipodi.sourceforge.net/DTD/sodipodi-0.dtd"
   xmlns="http://www.w3.org/2000/svg"
   xmlns:svg="http://www.w3.org/2000/svg"><defs
   id="defs1328" /><sodipodi:namedview
   id="namedview1326"
   pagecolor="#ffffff"
   bordercolor="#666666"
   borderopacity="1.0"
   inkscape:pageshadow="2"
   inkscape:pageopacity="0.0"
   inkscape:pagecheckerboard="0"
   showgrid="false"
   inkscape:zoom="1.7777688"
   inkscape:cx="210.37606"
   inkscape:cy="9.5625484"
   inkscape:window-width="1920"
   inkscape:window-height="1008"
   inkscape:window-x="0"
   inkscape:window-y="0"
   inkscape:window-maximized="1"
   inkscape:current-layer="svg1324"
   fit-margin-top="10"
   fit-margin-left="10"
   fit-margin-right="10"
   fit-margin-bottom="10" />
    
    
    
    <path
   d="m 111.88152,60.502112 c -6.47,0 -12.430001,3.64 -18.190001,10 -5.66,-6.46 -11.72,-10 -18.49,-10 -11.21,0 -19.39,8 -19.39,18.77 0,10.77 8.18,18.669997 19.39,18.669997 6.89,0 12.23,-3.229997 18.19,-9.669997 5.76,6.46 11.620001,9.689997 18.490001,9.689997 11.21,-0.02 19.39,-7.889997 19.39,-18.689997 0,-10.8 -8.18,-18.77 -19.39,-18.77 z m -36.600001,26.14 c -4.75,0 -7.58,-3.13 -7.58,-7.27 0,-4.14 2.83,-7.36 7.58,-7.36 4,0 7.27,3.22 10.81,7.56 -3.34,4.04 -6.87,7.07 -10.81,7.07 z m 36.260001,0 c -3.94,0 -7.27,-3.13 -10.81,-7.27 3.64,-4.34 6.77,-7.36 10.81,-7.36 4.75,0 7.55,3.26 7.55,7.36 0,4.1 -2.8,7.27 -7.55,7.27 z"
   style="fill:#484848;fill-rule:nonzero"
   id="path1294" /><path
   d="m 101.83152,95.272112 7.54,-9 c -3,-0.9 -5.77,-3.6 -8.64,-6.95 l -7.340001,8.95 c 2.403,2.788 5.256,5.154 8.440001,7 z"
   style="fill:#20a7c9;fill-rule:nonzero"
   id="path1296" /><path
   d="m 93.691519,70.492112 c -2.387,-2.828 -5.222,-5.247 -8.39,-7.16 l -7.55,9.1 c 2.87,1 5.41,3.58 8.11,6.87 l 0.3,0.21 z"
   style="fill:#20a7c9;fill-rule:nonzero"
   id="path1322" />
<!--!Font Awesome Free 6.5.1 by @fontawesome - https://fontawesome.com License - https://fontawesome.com/license/free Copyright 2024 Fonticons, Inc.--><!--!Font Awesome Free 6.5.1 by @fontawesome - https://fontawesome.com License - https://fontawesome.com/license/free Copyright 2024 Fonticons, Inc.--><!--!Font Awesome Free 6.5.1 by @fontawesome - https://fontawesome.com License - https://fontawesome.com/license/free Copyright 2024 Fonticons, Inc.--><!--!Font Awesome Free 6.5.1 by @fontawesome - https://fontawesome.com License - https://fontawesome.com/license/free Copyright 2024 Fonticons, Inc.--><!--!Font Awesome Free 6.5.1 by @fontawesome - https://fontawesome.com License - https://fontawesome.com/license/free Copyright 2024 Fonticons, Inc.--><!--!Font Awesome Free 6.5.1 by @fontawesome - https://fontawesome.com License - https://fontawesome.com/license/free Copyright 2024 Fonticons, Inc.--><!--!Font Awesome Free 6.5.1 by @fontawesome - https://fontawesome.com License - https://fontawesome.com/license/free Copyright 2024 Fonticons, Inc.--><path
   d="m 277.45664,67.410862 v 3.924331 c 0,3.613646 -8.2002,6.540541 -18.31352,6.540541 -10.11331,0 -18.31352,-2.926895 -18.31352,-6.540541 v -3.924331 c 0,-3.613647 8.20021,-6.540542 18.31352,-6.540542 10.11332,0 18.31352,2.926895 18.31352,6.540542 z m -4.48027,11.012639 c 1.70054,-0.604999 3.2621,-1.381687 4.48027,-2.338244 v 8.331018 c 0,3.613652 -8.2002,6.540548 -18.31352,6.540548 -10.11331,0 -18.31352,-2.926896 -18.31352,-6.540548 v -8.331018 c 1.21818,0.96473 2.77973,1.733245 4.48027,2.338244 3.67088,1.308115 8.55994,2.068449 13.83325,2.068449 5.27332,0 10.16237,-0.760334 13.83325,-2.068449 z M 240.8296,89.166347 c 1.21818,0.964729 2.77973,1.733244 4.48027,2.338242 3.67088,1.308109 8.55994,2.06845 13.83325,2.06845 5.27332,0 10.16237,-0.760341 13.83325,-2.06845 1.70054,-0.604998 3.2621,-1.381686 4.48027,-2.338242 v 7.022908 c 0,3.613644 -8.2002,6.540545 -18.31352,6.540545 -10.11331,0 -18.31352,-2.926901 -18.31352,-6.540545 z"
   id="path1261"
   style="fill:#484848;fill-opacity:1;stroke-width:0.0817567" /><path
   d="m 10.174979,49.350428 c 0.296523,-0.628978 0.925501,-1.028832 1.621873,-1.028832 h 19.408519 c 0.696372,0 1.325356,0.399854 1.621874,1.028832 0.296518,0.628977 0.20666,1.370275 -0.233624,1.909401 l -8.21717,10.041216 v 5.710239 c 0,0.543618 -0.305507,1.042311 -0.795213,1.284916 -0.489706,0.242608 -1.069263,0.193187 -1.505058,-0.134781 L 19.200846,66.004916 C 18.836933,65.735353 18.625778,65.308545 18.625778,64.854781 V 61.301045 L 10.404108,51.25534 C 9.968318,50.720703 9.873972,49.974916 10.174979,49.350428 Z"
   id="path1056"
   style="fill:#20a7c9;fill-opacity:1;stroke-width:0.0449271" /><path
   d="m 64.688422,132.98474 c 0,2.06201 -0.66938,3.96679 -1.796971,5.51218 l 5.68738,5.69188 c 0.56156,0.56155 0.56156,1.47351 0,2.03506 -0.56154,0.56155 -1.4735,0.56155 -2.035059,0 l -5.68738,-5.69188 c -1.54539,1.13209 -3.45017,1.79696 -5.51218,1.79696 -5.16178,0 -9.34421,-4.18243 -9.34421,-9.3442 0,-5.16178 4.18243,-9.34421 9.34421,-9.34421 5.16177,0 9.34421,4.18243 9.34421,9.34421 z m -14.01631,0.35939 v 2.87514 c 0,0.59749 0.48068,1.07818 1.07817,1.07818 0.59749,0 1.07818,-0.48069 1.07818,-1.07818 v -2.87514 c 0,-0.59749 -0.48069,-1.07818 -1.07818,-1.07818 -0.59749,0 -1.07817,0.48069 -1.07817,1.07818 z m 3.59392,-4.31271 v 7.18785 c 0,0.59749 0.48069,1.07818 1.07818,1.07818 0.59749,0 1.07818,-0.48069 1.07818,-1.07818 v -7.18785 c 0,-0.59749 -0.48069,-1.07818 -1.07818,-1.07818 -0.59749,0 -1.07818,0.48069 -1.07818,1.07818 z m 3.59393,2.87514 v 4.31271 c 0,0.59749 0.48068,1.07818 1.07817,1.07818 0.59749,0 1.07818,-0.48069 1.07818,-1.07818 v -4.31271 c 0,-0.59749 -0.48069,-1.07818 -1.07818,-1.07818 -0.59749,0 -1.07817,0.48069 -1.07817,1.07818 z"
   id="path1074"
   style="fill:#20a7c9;fill-opacity:1;stroke-width:0.0449241" /><path
   d="m 15.75,89.028813 h 1.4375 c 0.79512,0 1.4375,0.642383 1.4375,1.4375 v 1.4375 h -4.3125 v -1.4375 c 0,-0.795117 0.64239,-1.4375 1.4375,-1.4375 z m 2.875,4.312499 v 14.374998 c 0,0.79512 -0.64238,1.43751 -1.4375,1.43751 h -5.75 c -0.79512,0 -1.4375,-0.64239 -1.4375,-1.43751 v -2.65488 c 0,-1.5543 0.42227,-3.08164 1.22188,-4.41582 0.61543,-1.024221 1.01074,-2.165231 1.15898,-3.351171 l 0.33691,-2.695314 c 0.0898,-0.71875 0.70078,-1.257813 1.42852,-1.257813 z m 10.233202,0 c 0.72325,0 1.33868,0.539063 1.42852,1.257813 l 0.33242,2.695314 c 0.14824,1.18594 0.54356,2.32695 1.15898,3.351171 0.79961,1.33418 1.22188,2.86152 1.22188,4.41582 v 2.65488 c 0,0.79512 -0.64238,1.43751 -1.4375,1.43751 H 25.8125 c -0.79511,0 -1.4375,-0.64239 -1.4375,-1.43751 V 93.341312 Z M 24.375,90.466313 c 0,-0.795117 0.64239,-1.4375 1.4375,-1.4375 H 27.25 c 0.795122,0 1.437502,0.642383 1.437502,1.4375 v 1.4375 H 24.375 Z m -1.4375,2.874999 v 7.187498 h -2.875 v -7.187498 z"
   id="path1163"
   style="fill:#20a7c9;fill-opacity:1;stroke-width:0.0449219" /><path
   d="m 60.457145,20.18573 h -1.909823 c -1.848216,0 -3.347324,1.499107 -3.347324,3.347317 0,0.915897 0.423039,1.408755 0.788575,1.663397 0.279283,0.193036 0.525715,0.492853 0.525715,0.833749 0,0.402498 -0.328574,0.731073 -0.731072,0.731073 h -0.102683 c -0.09857,0 -0.19714,-0.0164 -0.291605,-0.05753 -0.731073,-0.324462 -4.131787,-2.024822 -4.131787,-5.860891 0,-3.265182 2.649108,-5.914289 5.914289,-5.914289 h 3.285715 v -2.51768 c 0,-0.788569 0.636608,-1.425177 1.425177,-1.425177 0.353213,0 0.689998,0.131427 0.952859,0.365536 l 5.676068,5.109286 c 0.312145,0.279289 0.488752,0.677682 0.488752,1.096609 0,0.418926 -0.176607,0.81732 -0.488752,1.096609 l -5.708925,5.138036 c -0.242326,0.217675 -0.554466,0.336785 -0.878928,0.336785 h -0.151967 c -0.726967,0 -1.314284,-0.587323 -1.314284,-1.31429 z M 49.285716,14.928583 c -0.361431,0 -0.657148,0.295717 -0.657148,0.657142 v 13.142861 c 0,0.361431 0.295717,0.657142 0.657148,0.657142 h 13.142855 c 0.36143,0 0.657141,-0.295711 0.657141,-0.657142 v -1.971432 c 0,-0.726961 0.587323,-1.314283 1.31429,-1.314283 0.726961,0 1.314284,0.587322 1.314284,1.314283 v 1.971432 c 0,1.815359 -1.470357,3.285716 -3.285715,3.285716 H 49.285716 c -1.815358,0 -3.285715,-1.470357 -3.285715,-3.285716 V 15.585725 c 0,-1.815352 1.470357,-3.285715 3.285715,-3.285715 h 1.971425 c 0.726967,0 1.314284,0.587322 1.314284,1.314289 0,0.726961 -0.587317,1.314284 -1.314284,1.314284 z"
   id="path1172"
   style="fill:#20a7c9;fill-opacity:1;stroke-width:0.0410714" /><g
   id="g1511"
   transform="matrix(0.38556517,0,0,0.38556517,263.18856,56.820218)"><path
     d="m 139.03986,-90.880004 h -15.51 V -106.48 h 16.35 c 5.98,0 8.98,2.64 8.98,7.919996 0,5.28 -3.27,7.68 -9.82,7.68 m 11.15,-15.779996 c -2.14,-1.9 -5.1,-2.85 -8.92,-2.85 l -22.21,0.12 v 37.309996 h 4.47 l -0.04,-15.88 h 16.53 c 4.14,0 7.41,-0.95 9.79,-2.85 2.38,-1.9 3.57,-4.54 3.57,-7.92 0,-3.379996 -1.06,-6.019996 -3.19,-7.919996 v 0 z m 28.96,26.739996 c -0.43,1.22 -1.16,2.31 -2.12,3.17 -2,1.96 -5.06,2.93 -9.18,2.93 -3.72,0 -6.56,-0.94 -8.55,-2.85 -1.99,-1.91 -2.98,-4.45 -2.98,-7.63 0,-1.66 0.26,-3.13 0.78,-4.42 0.52,-1.29 1.27,-2.37 2.26,-3.26 2.06,-1.87 4.89,-2.81 8.49,-2.81 7.99,0 11.98,3.5 11.98,10.49 0,1.66 -0.23,3.12 -0.67,4.38 m 0.81,-13.76 c -2.73,-2.49 -6.76,-3.74 -12.11,-3.74 -5.05,0 -8.96,1.27 -11.71,3.81 -2.49,2.3 -3.74,5.4 -3.74,9.3 0,3.9 1.28,7 3.85,9.38 1.42,1.28 3.07,2.21 4.95,2.79 1.88,0.58 4.1,0.86 6.64,0.86 5.32,0 9.35,-1.23 12.15,-3.69 2.49,-2.25 3.74,-5.35 3.74,-9.34 0,-3.99 -1.26,-7.14 -3.77,-9.38 v 0 z m 33.83,14.86 c 0,5.02 -4.5,7.53 -13.5,7.53 -2.75,0 -5.07,-0.17 -6.95,-0.52 -1.88,-0.35 -3.41,-0.93 -4.59,-1.73 -0.91,-0.61 -1.65,-1.44 -2.16,-2.41 -0.53,-0.99 -0.88,-2.23 -1.04,-3.74 l 4.19,-0.04 c 0,1.98 0.73,3.43 2.2,4.37 1.57,1.12 4.36,1.68 8.36,1.68 6.29,0 9.43,-1.58 9.43,-4.73 0,-1.84 -1.07,-3.11 -3.16,-3.81 -0.43,-0.13 -2.97,-0.49 -7.62,-1.06 -4.65,-0.57 -7.56,-1.09 -8.71,-1.54 -2.48,-0.99 -3.72,-2.77 -3.72,-5.33 0,-2.56 1.11,-4.38 3.34,-5.61 1.1,-0.51 2.47,-0.9 4.11,-1.18 1.65,-0.28 3.55,-0.42 5.71,-0.42 8.66,0 12.99,2.72 12.99,8.15 h -3.98 c 0,-3.82 -3.05,-5.75 -9.13,-5.75 -3.1,0 -5.41,0.4 -6.93,1.16 -1.52,0.76 -2.28,1.96 -2.28,3.57 0,1.5 1.03,2.58 3.08,3.25 1.2,0.35 3.97,0.75 8.29,1.2 3.87,0.35 6.53,0.84 7.97,1.47 2.75,1.07 4.13,2.89 4.13,5.45 z m 16.45,6.81 -1.7,0.24 -1.06,0.08 c -2.73,0 -4.68,-0.39 -5.9,-1.19 -1.22,-0.8 -1.81,-2.17 -1.81,-4.14 v -17.05 h -4.95 v -2.5 h 4.93 l 0.04,-8.039996 h 3.82 v 8.039996 h 6.65 v 2.54 l -6.65,-0.04 v 16.57 c 0,1.23 0.33,2.08 0.98,2.54 0.65,0.46 1.82,0.7 3.51,0.7 0.24,0.03 0.51,0.02 0.8,-0.03 0.45,-0.08 0.89,-0.18 1.32,-0.3 l 0.04,2.54 v 0.03 z m 26.39,-5.65 c -1.04,0.86 -2.23,1.51 -3.56,1.96 -1.33,0.45 -2.87,0.67 -4.61,0.67 -7.98,0 -11.97,-3.3 -11.97,-9.89 0,-3.07 1.02,-5.47 3.06,-7.21 2.04,-1.74 4.92,-2.6 8.63,-2.6 3.71,0 6.57,0.88 8.51,2.62 1.94,1.74 2.9,4.09 2.9,7.03 0,3.2 -0.99,5.67 -2.96,7.41 m 6.78,-18.89 h -3.82 l -0.04,4.21 c -1.68,-1.71 -2.89,-2.79 -3.61,-3.24 -2.14,-1.18 -4.9,-1.76 -8.29,-1.76 -4.97,0 -8.76,1.14 -11.38,3.4 -2.49,2.08 -3.73,5.1 -3.73,9.05 0,1.95 0.31,3.69 0.94,5.21 0.63,1.52 1.54,2.84 2.75,3.9 2.62,2.19 6.33,3.28 11.12,3.28 5.75,0 9.83,-1.57 12.24,-4.72 v 4.36 c 0,2.78 -0.88,4.93 -2.62,6.45 -1.74,1.52 -4.63,2.27 -8.64,2.27 -3.77,0 -6.45,-0.53 -8.05,-1.56 -1.2,-0.8 -2.03,-2.18 -2.49,-4.15 h -3.93 c 0.43,2.75 1.6,4.74 3.47,5.96 2.19,1.41 5.88,2.12 11.09,2.12 9.97,0 14.97,-3.71 14.97,-11.12 v -23.67 h 0.01 z m 20.65,2.47 c -1.15,-0.19 -2.22,-0.27 -3.2,-0.27 -6.27,0 -9.41,3.44 -9.41,10.32 v 11.97 h -3.78 l -0.04,-24.48 3.82,0.04 v 4.37 h 0.2 c 0.64,-1.72 1.66,-3.03 3.04,-3.92 1.52,-0.86 3.79,-1.29 6.81,-1.29 h 2.56 z m 3.55,8.23 c 0.48,-2.78 1.56,-4.94 3.24,-6.46 1.1,-0.88 2.34,-1.55 3.73,-1.99 1.39,-0.44 2.94,-0.66 4.69,-0.66 3.39,0 6.15,0.93 8.31,2.79 2.16,1.86 3.22,3.97 3.22,6.32 h -23.19 m 23.56,-7.55 c -1.34,-1.34 -2.99,-2.33 -4.97,-2.97 -1.98,-0.64 -4.28,-0.96 -6.95,-0.96 -4.94,0 -8.78,1.15 -11.51,3.45 -2.73,2.3 -4.09,5.43 -4.09,9.38 0,3.95 1.31,7.08 3.93,9.42 2.83,2.57 6.82,3.85 11.98,3.85 2.06,0 3.96,-0.23 5.71,-0.7 1.75,-0.47 3.28,-1.13 4.59,-1.98 2.3,-1.65 3.75,-3.69 4.37,-6.11 h -4.13 c -1.42,4.19 -4.94,6.28 -10.58,6.28 -3.98,0 -7.04,-1.02 -9.17,-3.07 -1.84,-1.75 -2.76,-4.03 -2.76,-6.82 h 27.21 c 0,-4.15 -1.2,-7.41 -3.65,-9.76 h 0.01 z"
     style="fill:#231f20"
     id="path1446" /><path
     d="m 355.16986,-82.090004 c 0,7.27 -5.86,10.9 -17.59,10.9 -7.03,0 -12.15,-1.25 -15.39,-3.74 -2.65,-2.06 -3.97,-5.2 -3.97,-9.42 h 4.72 c 0,6.79 4.88,10.18 14.63,10.18 4.68,0 8.06,-0.69 10.16,-2.08 1.76,-1.23 2.65,-3.15 2.65,-5.76 0,-2.61 -1.2,-4.4 -3.61,-5.45 -1.36,-0.56 -4.68,-1.27 -9.98,-2.12 -6.65,-1.02 -10.97,-2.03 -12.95,-3.04 -2.86,-1.5 -4.28,-4.03 -4.28,-7.609996 0,-3.34 1.2,-5.82 3.65,-7.45 2.62,-1.79 7.11,-2.68 13.47,-2.68 11.49,0 17.24,3.82 17.24,11.449996 h -4.76 c 0,-5.719996 -4.27,-8.579996 -12.8,-8.579996 -4.28,0 -7.41,0.57 -9.39,1.74 -1.87,1.23 -2.81,3.03 -2.81,5.41 0,2.379996 1.2,4.239996 3.61,5.249996 1.28,0.59 5.05,1.4 11.31,2.45 5.88,0.88 9.85,1.91 11.89,3.07 2.81,1.44 4.21,3.94 4.21,7.48 z m 38.35,3.71 c -1.76,1.41 -3.76,2.47 -5.98,3.18 -2.22,0.71 -4.71,1.06 -7.46,1.06 -5.62,0 -10.16,-1.51 -13.62,-4.54 -3.46,-3.03 -5.19,-7.06 -5.19,-12.1 0,-5.04 1.72,-9.349996 5.15,-12.279996 3.43,-2.93 7.99,-4.4 13.66,-4.4 5.67,0 10.27,1.53 13.56,4.6 1.74,1.5 3.02,3.239996 3.85,5.239996 0.83,2 1.24,4.28 1.24,6.84 0,5.23 -1.74,9.36 -5.22,12.4 m 2.51,2.47 c 2.46,-1.73 4.28,-3.84 5.46,-6.3 1.18,-2.46 1.77,-5.32 1.77,-8.55 0,-5.79 -1.92,-10.419996 -5.77,-13.939996 -2.06,-1.92 -4.54,-3.35 -7.46,-4.28 -2.92,-0.93 -6.24,-1.4 -9.98,-1.4 -7.27,0 -12.96,1.76 -17.11,5.29 -4.15,3.53 -6.21,8.299996 -6.21,14.329996 0,6.03 2.09,10.61 6.27,14.21 4.18,3.6 9.89,5.41 17.13,5.41 2.83,0 5.3,-0.19 7.41,-0.57 2.11,-0.38 3.9,-0.97 5.37,-1.76 l 6.97,4.83 2.91,-2.68 -6.75,-4.58 h -0.01 z m 42.56,3.82 h -32.27 V -109.45 l 4.43,-0.08 v 34.309996 h 27.86 l -0.04,3.12 h 0.01 z"
     style="fill:#367faf"
     id="path1448" /><path
     d="m 88.459862,-78.360004 c 0.45,-3.17 0.31,-3.63 3.1,-3.12 l 0.71,0.05 c 2.14,0.08 4.94,-0.29 6.59,-0.94 3.539998,-1.39 5.639998,-3.72 2.149998,-3.11 -7.959998,1.39 -8.509998,-0.9 -8.509998,-0.9 8.409998,-10.58 11.929998,-23.999996 8.889998,-27.289996 -8.289998,-8.96 -22.599998,-4.72 -22.859998,-4.61 h -0.08 c -1.57,-0.26 -3.34,-0.43 -5.31,-0.45 -3.6,-0.05 -6.34,0.8 -8.41,2.13 0,0 -25.56,-8.93 -24.37,11.23 0.25,4.29 7.25,32.439996 15.59,23.929996 3.05,-3.11 6,-5.74 6,-5.74 1.54,0.86 3.3,1.24 5.05,1.09 l 0.14,-0.1 c -0.04,0.39 -0.03,0.76 0.06,1.21 -2.15,2.04 -1.52,2.39 -5.82,3.14 -4.35,0.76 -1.79,2.11 -0.13,2.47 2.02,0.43 6.7,1.04 9.86,-2.71 l -0.13,0.43 c 0.84,0.57 0.79,4.11 0.91,6.64 0.12,2.53 0.32,4.89 0.93,6.28 0.61,1.39 1.33,4.97 6.97,3.95 4.72,-0.86 8.33,-2.09 8.66,-13.57"
     style="fill:#231f20;stroke:#231f20;stroke-width:4.11px"
     id="path1450" /><path
     d="m 100.99986,-85.470004 c -7.959998,1.39 -8.509998,-0.9 -8.509998,-0.9 8.409998,-10.58 11.929998,-24.009996 8.889998,-27.289996 -8.279998,-8.96 -22.599998,-4.72 -22.859998,-4.61 h -0.08 c -1.57,-0.26 -3.34,-0.43 -5.31,-0.45 -3.6,-0.05 -6.34,0.8 -8.41,2.13 0,0 -25.56,-8.93 -24.37,11.23 0.25,4.29 7.25,32.439996 15.59,23.929996 3.05,-3.11 6,-5.74 6,-5.74 1.54,0.86 3.3,1.24 5.05,1.09 l 0.14,-0.1 c -0.04,0.39 -0.02,0.76 0.06,1.21 -2.15,2.04 -1.52,2.39 -5.81,3.14 -4.35,0.76 -1.79,2.11 -0.13,2.47 2.02,0.43 6.7,1.04 9.86,-2.71 l -0.13,0.43 c 0.84,0.57 1.43,3.72 1.34,6.57 -0.09,2.85 -0.17,4.81 0.5,6.34 0.67,1.53 1.33,4.97 6.98,3.95 4.72,-0.86 7.17,-3.08 7.51,-6.79 0.24,-2.64 0.79,-2.25 0.82,-4.6 l 0.44,-1.11 c 0.51,-3.57 0.08,-4.72 2.99,-4.19 l 0.71,0.05 c 2.14,0.08 4.94,-0.29 6.59,-0.94 3.539998,-1.39 5.639998,-3.72 2.149998,-3.11 v 0 z"
     style="fill:#417ba2"
     id="path1452" /><g
     id="g1466"
     transform="translate(-16.740138,-227.45)"><g
       id="g1458"><path
         d="m 88.2,144.03 c -0.22,6.65 0.05,13.34 0.82,14.97 0.77,1.63 2.41,4.79 8.06,3.76 4.72,-0.86 6.44,-2.52 7.18,-6.18 0.53,-2.7 1.61,-10.18 1.74,-11.72 M 81.42,110.71 c 0,0 -25.59,-8.86 -24.39,11.3 0.27,4.29 7.25,32.44 15.6,23.92 3.05,-3.11 5.81,-5.55 5.81,-5.55 m 16.82,-31.29 c -0.89,0.24 14.23,-4.68 22.82,4.62 3.03,3.29 -0.48,16.71 -8.89,27.29"
         style="fill:none;stroke:#ffffff;stroke-width:1.37px;stroke-linecap:round;stroke-linejoin:round"
         id="path1454" /><path
         d="m 109.17,141 c 0,0 0.53,2.29 8.51,0.89 3.49,-0.61 1.39,1.71 -2.15,3.11 -2.91,1.14 -9.42,1.44 -9.52,-0.14 -0.27,-4.08 3.43,-2.84 3.16,-3.86 -0.24,-0.92 -1.9,-1.82 -2.99,-4.07 -0.96,-1.96 -13.11,-17.03 3.37,-14.79 0.6,-0.11 -4.3,-13.29 -19.72,-13.5 -15.42,-0.21 -14.91,16.08 -14.91,16.08"
         style="fill:none;stroke:#ffffff;stroke-width:1.37px;stroke-linecap:round;stroke-linejoin:bevel"
         id="path1456" /></g><g
       id="g1464"><path
         d="m 83.89,142.4 c -2.15,2.04 -1.52,2.39 -5.82,3.14 -4.35,0.76 -1.79,2.11 -0.13,2.47 2.02,0.43 6.7,1.04 9.86,-2.72 0.96,-1.14 0,-2.97 -1.33,-3.43 -0.64,-0.22 -1.49,-0.51 -2.59,0.53 v 0 z"
         style="fill:none;stroke:#ffffff;stroke-width:1.37px;stroke-linejoin:round"
         id="path1460" /><path
         d="m 83.75,142.36 c -0.22,-1.2 0.46,-2.62 1.19,-4.29 1.1,-2.5 3.62,-5 1.6,-12.93 -1.51,-5.91 -11.62,-1.23 -11.63,-0.43 -0.01,0.8 0.46,4.06 -0.17,7.86 -0.82,4.96 3.72,9.14 8.94,8.72"
         style="fill:none;stroke:#ffffff;stroke-width:1.37px;stroke-linecap:round;stroke-linejoin:round"
         id="path1462" /></g></g><g
     id="g1472"
     transform="translate(-16.740138,-227.45)"><path
       d="m 81.34,124.59 c -0.05,0.27 0.59,1 1.42,1.1 0.83,0.1 1.54,-0.47 1.58,-0.75 0.04,-0.28 -0.59,-0.57 -1.42,-0.67 -0.83,-0.1 -1.54,0.05 -1.58,0.32 z"
       style="fill:#ffffff;stroke:#ffffff;stroke-width:0.46px"
       id="path1468" /><path
       d="m 106.58,124.04 c 0.05,0.27 -0.59,1 -1.42,1.1 -0.83,0.1 -1.54,-0.47 -1.58,-0.75 -0.04,-0.28 0.59,-0.57 1.42,-0.67 0.83,-0.1 1.54,0.04 1.58,0.32 z"
       style="fill:#ffffff;stroke:#ffffff;stroke-width:0.23px"
       id="path1470" /></g><path
     d="m 92.809862,-105.31 c 0.14,2.15 -0.55,3.61 -0.63,5.899996 -0.13,3.32 1.87,7.12 -1.14,10.93"
     style="fill:none;stroke:#ffffff;stroke-width:1.37px;stroke-linecap:round;stroke-linejoin:round"
     id="path1474" /></g><g
   id="g1534"
   transform="matrix(0.18773977,0,0,0.18773977,284.03019,62.165725)"><path
     d="m 148.08616,166.32017 -30.16,-52.22 c -1.61,-2.79 -1.61,-6.23 0,-9.02 l 30.16,-52.240002 c 1.61,-2.79 4.58,-4.5 7.83,-4.51 h 60.36 c 3.21,0.02 6.17,1.73 7.77,4.51 l 30.19,52.250002 c 1.61,2.79 1.61,6.23 0,9.02 l -30.22,52.22 c -1.61,2.79 -4.58,4.5 -7.83,4.51 h -60.35 c -3.21,0 -6.17,-1.73 -7.78,-4.51 h 0.04 z"
     style="fill:#4386fa"
     id="path1513" /><path
     d="m 204.88616,92.700168 c 0,0 8.39,20.110002 -3.05,31.510002 -11.43,11.4 -32.25,4.1 -32.25,4.1 l 42.34,42.5 h 4.3 c 3.22,0 6.19,-1.72 7.83,-4.51 l 19.97,-34.58 -39.15,-39.030002 z"
     style="opacity:0.1;isolation:isolate"
     id="path1515" /><path
     d="m 214.79616,133.89017 -9.27,-9.23 c -0.1,-0.1 -0.21,-0.19 -0.34,-0.26 8.5,-11.02 6.46,-26.840002 -4.55,-35.340002 -10.05,-7.76 -24.31,-6.82 -33.27,2.18 -9.38,9.450002 -9.79,24.590002 -0.94,34.500002 8.86,9.93 23.9,11.27 34.38,3.07 0.07,0.12 0.15,0.23 0.24,0.33 l 9.27,9.27 c 0.27,0.27 0.64,0.42 1.02,0.42 0.38,0 0.75,-0.15 1.02,-0.42 l 2.46,-2.46 c 0.27,-0.27 0.42,-0.64 0.42,-1.02 0,-0.38 -0.15,-0.75 -0.42,-1.02 h -0.03 z m -29.53,-6.01 c -7.67,0 -14.58,-4.62 -17.51,-11.7 -2.94,-7.08 -1.31,-15.24 4.11,-20.660002 7.41,-7.4 19.42,-7.39 26.82,0.01 3.55,3.55 5.54,8.370002 5.55,13.390002 0,10.47 -8.49,18.95 -18.96,18.96 v 0 z m -12.11,-19.97 v 7.83 c 1.21,2.13 2.95,3.9 5.07,5.15 v -13 z m 9.46,-6.49 v 21.17 c 1.67,0.31 3.39,0.31 5.07,0 v -21.2 z m 14.66,14.32 v -4.63 h -5.07 v 9.77 c 2.11,-1.24 3.85,-3 5.07,-5.13 v 0 z"
     style="fill:#ffffff"
     id="path1517" /><path
     d="m 327.51616,75.470168 h -22.88 v 6.8 h 16.26 c -0.81,9.54 -8.75,13.61 -16.23,13.61 -4.75,0.03 -9.32,-1.83 -12.7,-5.17 -3.38,-3.34 -5.29,-7.89 -5.3,-12.64 v -0.31 c -0.08,-4.81 1.78,-9.45 5.15,-12.88 3.37,-3.43 7.99,-5.35 12.8,-5.34 4.58,0 8.98,1.79 12.27,4.98 l 4.77,-4.91 c -4.62,-4.46 -10.82,-6.91 -17.24,-6.8 -13.8,-0.29 -25.23,10.66 -25.52,24.47 -0.1,4.7 1.13,9.34 3.55,13.37 4.68,7.8 13.23,12.450002 22.33,12.120002 13.33,-0.03 23.17,-9.190002 23.17,-22.740002 0.03,-1.52 -0.11,-3.03 -0.42,-4.51 v -0.07 z m 18.82,-4.91 c -8.76,-0.18 -16.01,6.77 -16.19,15.53 v 0.41 c -0.05,8.91 7.13,16.170002 16.04,16.230002 8.91,0.05 16.17,-7.130002 16.23,-16.040002 0,-10.64 -8.36,-16.13 -16.05,-16.13 z m 0.09,6.33 c 4.62,0 8.98,3.68 8.98,9.81 0,6.13 -4.37,9.74 -9.02,9.74 -5.12,0 -9.14,-4.08 -9.14,-9.81 0,-5.73 3.95,-9.72 9.15,-9.72 l 0.04,-0.02 z m 34.96,-6.33 c -8.76,-0.15 -15.98,6.82 -16.14,15.58 v 0.36 c -0.05,8.91 7.13,16.170002 16.04,16.230002 8.91,0.05 16.17,-7.130002 16.23,-16.040002 0,-10.61 -8.36,-16.11 -16.11,-16.11 z m 0.1,6.33 c 4.62,0 8.98,3.68 8.98,9.81 0,6.13 -4.37,9.74 -9.02,9.74 -5.12,0 -9.14,-4.08 -9.14,-9.81 0,-5.73 3.95,-9.72 9.14,-9.72 z m 34.33,-6.33 c -8.58,0 -15.41,7.55 -15.41,16.06 -0.13,8.62 6.65,15.760002 15.27,16.080002 3.39,0.18 6.67,-1.28 8.81,-3.930002 v 3.180002 c 0,5.55 -3.36,8.88 -8.44,8.88 -3.65,-0.05 -6.9,-2.31 -8.22,-5.71 l -6.14,2.55 c 2.18,4.62 6.55,9.5 14.39,9.5 8.58,0 15.14,-5.41 15.14,-16.74 V 71.550168 h -6.74 v 2.7 c -2.22,-2.42 -5.38,-3.76 -8.66,-3.68 v 0 z m 0.63,6.27 c 4.23,0 8.58,3.62 8.58,9.81 0,6.19 -4.34,9.68 -8.68,9.68 -4.62,0 -8.88,-3.68 -8.88,-9.66 0,-5.98 4.45,-9.81 8.99,-9.81 l -0.02,-0.02 z m 44.71,-6.27 c -8.14,0 -14.96,6.48 -14.96,16.04 -0.31,8.57 6.39,15.770002 14.97,16.080002 0.26,0 0.53,0.01 0.79,0 5.39,0.02 10.43,-2.61 13.49,-7.050002 l -5.55,-3.68 c -1.63,2.77 -4.62,4.45 -7.83,4.42 -3.38,0.13 -6.5,-1.81 -7.87,-4.91 l 21.53,-8.93 -1.09,-2.61 c -2.12,-5.57 -7.43,-9.29 -13.39,-9.37 h -0.08 z m 0.28,6.13 c 2.48,-0.1 4.8,1.23 5.95,3.43 l -14.42,6.04 c -0.63,-4.66 3.79,-9.45 8.44,-9.45 l 0.03,-0.03 z m -25.54,25.050002 h 7.07 V 54.410168 h -7.08 v 47.330002 z m -155.67,54.5 v -31.03 h 11.23 c 2.35,-0.05 4.63,0.83 6.33,2.45 1.74,1.52 2.71,3.73 2.65,6.04 0.15,2.84 -1.55,5.45 -4.21,6.46 v 0.17 c 1.52,0.48 2.86,1.43 3.81,2.71 0.95,1.27 1.46,2.82 1.43,4.41 0.06,2.41 -0.93,4.72 -2.72,6.33 -1.81,1.65 -4.19,2.53 -6.64,2.45 h -11.89 z m 3.98,-27.2 v 9.52 h 7.24 c 1.33,0.04 2.62,-0.48 3.55,-1.43 1.83,-1.76 1.91,-4.67 0.16,-6.51 l -0.12,-0.12 c -0.89,-0.94 -2.13,-1.46 -3.42,-1.44 h -7.35 z m 0,13.23 v 10.18 h 8.03 c 2.82,0.03 5.13,-2.23 5.16,-5.06 0,-1.34 -0.55,-2.63 -1.52,-3.55 -1.01,-1.01 -2.39,-1.56 -3.81,-1.52 h -7.87 v -0.05 z m 26.26,-14.58 c 0,1.55 -1.26,2.8 -2.82,2.8 -1.14,0 -2.16,-0.69 -2.59,-1.74 -0.59,-1.43 0.09,-3.07 1.52,-3.67 1.05,-0.44 2.26,-0.19 3.07,0.62 0.54,0.52 0.84,1.25 0.82,2 v 0 z m -0.82,7.35 v 21.21 h -4 v -21.21 z m 14.36,31.27 c -1.13,0 -2.28,-0.14 -3.34,-0.46 -1,-0.27 -1.96,-0.68 -2.85,-1.23 -0.84,-0.55 -1.58,-1.22 -2.21,-2 -0.6,-0.73 -1.07,-1.57 -1.38,-2.45 l 3.81,-1.57 c 0.41,1.22 1.2,2.27 2.26,2.99 1.08,0.75 2.37,1.14 3.68,1.13 1.89,0.11 3.74,-0.6 5.08,-1.95 1.28,-1.48 1.94,-3.41 1.83,-5.37 v -2.1 h -0.17 c -0.77,1.14 -1.82,2.06 -3.05,2.66 -1.3,0.65 -2.73,0.99 -4.18,0.98 -2.75,0.01 -5.36,-1.17 -7.16,-3.25 -1.96,-2.22 -3.02,-5.09 -2.96,-8.05 -0.07,-2.95 0.98,-5.82 2.94,-8.03 1.79,-2.1 4.41,-3.31 7.16,-3.3 1.45,0 2.89,0.33 4.18,0.98 1.23,0.6 2.29,1.52 3.05,2.66 h 0.17 v -2.98 h 3.81 v 20.33 c 0.16,2.96 -0.88,5.86 -2.9,8.02 -2.08,1.98 -4.87,3.03 -7.74,2.92 l -0.04,0.05 z m 0.14,-13.01 c 1.84,0.05 3.6,-0.73 4.81,-2.12 2.59,-3.22 2.59,-7.81 0,-11.04 -1.19,-1.41 -2.96,-2.21 -4.81,-2.17 -1.84,-0.03 -3.61,0.77 -4.81,2.17 -1.36,1.52 -2.03,3.53 -1.95,5.53 -0.08,2.02 0.62,3.99 1.95,5.51 1.21,1.39 2.96,2.18 4.81,2.15 z m 51.94,2.95 -3.14,2.03 -2.13,-3.17 c -2.31,1.16 -4.87,1.77 -7.45,1.78 -4.24,0.09 -8.39,-1.61 -11.36,-4.7 -6.14,-6.47 -6.14,-16.6 0,-23.07 6.24,-6.28 16.39,-6.3 22.66,-0.06 l 0.06,0.06 c 3.04,3.04 4.71,7.19 4.6,11.49 0.01,2.34 -0.47,4.65 -1.41,6.8 -0.92,2.11 -2.27,4 -3.97,5.55 z m -12.7,-3.17 c 1.81,0 3.6,-0.42 5.23,-1.23 l -3.62,-5.44 3.14,-2.12 3.59,5.42 c 2.4,-2.37 3.7,-5.64 3.55,-9.01 0.12,-3.3 -1.09,-6.51 -3.42,-8.88 -2.19,-2.31 -5.26,-3.59 -8.45,-3.51 -3.2,-0.08 -6.28,1.19 -8.5,3.51 -4.5,5.06 -4.5,12.73 0,17.75 2.22,2.33 5.32,3.61 8.53,3.53 l -0.06,-0.03 z m 38.63,3.14 h -3.82 v -2.97 h -0.17 c -0.68,1.11 -1.64,2.01 -2.8,2.61 -1.2,0.68 -2.55,1.04 -3.93,1.04 -2.23,0.14 -4.41,-0.67 -6.01,-2.23 -1.49,-1.76 -2.25,-4.05 -2.08,-6.35 v -13.34 h 3.98 v 13.05 c 0.09,3.48 1.83,5.22 5.22,5.22 1.55,0 3.02,-0.71 3.97,-1.94 1.08,-1.3 1.65,-2.94 1.61,-4.62 v -11.7 h 3.98 v 21.21 l 0.04,0.02 z m 14.18,0.7 c -2.91,0.08 -5.72,-1.09 -7.72,-3.21 -2.04,-2.2 -3.13,-5.11 -3.03,-8.11 -0.09,-2.97 0.97,-5.87 2.96,-8.08 4.07,-4.21 10.79,-4.32 15,-0.24 l 0.07,0.07 c 2.01,2.39 3.02,5.47 2.8,8.58 v 0.43 h -16.7 c -0.02,1.89 0.73,3.71 2.08,5.03 2.66,2.59 6.92,2.54 9.51,-0.12 0.51,-0.52 0.93,-1.12 1.25,-1.78 l 3.56,1.73 c -0.91,1.74 -2.28,3.2 -3.96,4.21 -1.75,1.02 -3.74,1.53 -5.76,1.49 z m -6.38,-13.87 h 12.17 c -0.08,-1.42 -0.73,-2.74 -1.8,-3.68 -1.22,-0.98 -2.77,-1.53 -4.35,-1.45 -1.42,-0.03 -2.8,0.46 -3.88,1.38 -1.11,0.97 -1.86,2.28 -2.15,3.73 v 0 z m 24.07,13.19 h -3.98 v -21.21 h 3.81 v 3.47 h 0.17 c 0.47,-1.21 1.36,-2.23 2.45,-2.88 1.09,-0.75 2.36,-1.17 3.68,-1.22 1.01,-0.02 2.01,0.16 2.94,0.53 l -1.22,3.86 c -0.75,-0.26 -1.55,-0.36 -2.34,-0.31 -1.51,0 -2.95,0.67 -3.93,1.83 -1.08,1.15 -1.68,2.67 -1.67,4.24 v 11.72 l 0.08,-0.02 z m 31.18,-21.21 -13.28,30.66 h -4.12 l 4.91,-10.7 -8.7,-19.95 h 4.34 l 6.33,15.27 h 0.09 l 6.14,-15.27 h 4.31 z"
     style="fill:#767677"
     id="path1519" /></g><g
   id="g1557"
   transform="matrix(0.19778161,0,0,0.19778161,262.39337,107.45772)"><path
     d="m 383.04341,133.80793 -0.3,-0.36 v 0.36 z m -0.3,-3.6 0.3,-0.32 h -0.3 z m -30.78,13.99 -0.11,0.27 0.16,0.41 0.17,-0.41 -0.12,-0.29 h -0.1 z m 34.42,-10.43 v -0.36 l -0.3,0.36 z m 0,-3.53 v -0.32 h -0.3 z m -43.05,27.08 h 0.09 l 0.08,-0.2 0.04,-0.11 -0.15,-0.43 -0.17,0.43 0.12,0.31 z m 17.35,0 h 0.09 l 0.02,-0.06 0.09,-0.27 -0.18,-0.43 -0.15,0.43 0.13,0.32 z m 96.8,-12.13 -0.18,-0.23 -0.02,0.43 0.2,-0.21 z m -8.7,9.01 v -0.17 l -0.09,0.23 z m 5.86,-6.53 -0.02,0.02 0.2,0.24 0.22,-0.23 -0.02,-0.02 -0.37,-0.02 z m -6.17,1.68 h 0.09 l 0.22,-0.22 v -0.44 l -0.31,0.31 z m -65.44,-15.57 v -0.36 h -0.3 z"
     style="fill:#29b5e8"
     id="path1536" /><path
     d="m 360.73341,157.42793 0.04,-0.12 h -0.09 z m -17.28,-0.11 h -0.09 l 0.04,0.12 z m 42.96,-27.08 -0.3,-0.32 v 0.32 z m 68.25,17.44 z m 0.01,-0.01 0.37,0.02 -0.18,-0.22 z m -6.11,1.75 -0.09,-0.04 v 0.13 l 0.09,-0.1 z m -62.49,-15.61 0.3,-0.36 h -0.3 z m -3.04,-3.6 v -0.32 l -0.3,0.32 z m 65.53,19.18 0.18,-0.18 z"
     style="fill:#29b5e8"
     id="path1538" /><path
     d="m 360.79341,157.25793 0.1,-0.27 z m 114.69,-13.15 v -0.06 c 1.02,-5.78 5.97,-10.05 11.84,-10.18 5.82,0.17 10.69,4.44 11.64,10.18 v 0.06 l 0.06,0.26 h -23.59 l 0.05,-0.25 v 0 z m -0.22,3.65 -0.02,-0.3 h 25.56 c 0.36,0.02 0.78,-0.13 1.07,-0.4 0.29,-0.27 0.45,-0.65 0.45,-1.05 v -0.2 c 0.02,-8.33 -6.72,-15.1 -15.05,-15.12 -2.92,0 -5.78,0.84 -8.23,2.42 -4.65,3 -7.28,8.3 -6.86,13.82 -0.25,8.58 6.45,15.76 15.02,16.1 h 1.44 c 5.3,-0.34 10.06,-3.37 12.59,-8.04 0.42,-0.77 0.2,-1.73 -0.51,-2.24 -0.34,-0.21 -0.75,-0.27 -1.13,-0.17 -0.38,0.1 -0.71,0.35 -0.9,0.7 -1.98,3.78 -5.78,6.28 -10.08,6.59 h -1.47 c -6.55,-0.26 -11.77,-5.54 -11.96,-12.09 v -0.02 m -90.09,-28.44 c -1.57,2.18 -2.29,4.85 -2.05,7.51 v 3.45 h -4.12 c -0.41,-0.01 -0.81,0.14 -1.1,0.43 -0.3,0.29 -0.46,0.72 -0.46,1.09 -0.02,0.9 0.66,1.66 1.56,1.73 h 4.11 v 28.03 c -0.06,0.83 0.56,1.56 1.39,1.62 0.32,0.02 0.64,-0.05 0.91,-0.22 0.49,-0.29 0.77,-0.83 0.73,-1.4 v -28.03 h 4.4 c 0.91,-0.05 1.6,-0.82 1.57,-1.72 0,-0.41 -0.16,-0.81 -0.45,-1.1 -0.29,-0.28 -0.68,-0.44 -1.08,-0.42 h -4.4 v -3.45 c -0.17,-1.88 0.28,-3.77 1.27,-5.38 1.06,-0.97 2.49,-1.42 3.92,-1.22 0.06,0 0.12,0 0.18,-0.01 0.07,0.01 0.14,0.01 0.21,0.01 h 0.49 c 0.88,-0.03 1.57,-0.75 1.57,-1.62 0,-0.88 -0.69,-1.59 -1.57,-1.62 h -0.49 c -0.07,0 -0.13,0 -0.2,0.01 -0.06,0 -0.13,-0.01 -0.19,-0.01 -2.3,-0.18 -4.56,0.67 -6.16,2.33 m -134.43,25.27 c -3.67,-1.27 -7.63,-2.23 -7.63,-5.35 0,-3.95 4.68,-5.57 7.19,-5.57 6.15,0 7.47,5.04 9.2,3.51 1.72,-1.53 -4.36,-6.45 -8.75,-6.45 -2.7,-0.12 -5.4,0.61 -7.63,2.07 -2.21,1.38 -3.5,3.84 -3.37,6.44 -0.18,6.61 7.64,7.73 11,8.9 3.36,1.17 7.26,2.54 7.3,5.82 0.04,4.54 -5.34,5.94 -7.76,5.94 -6.89,0 -8.75,-4.04 -10.08,-2.77 -1.33,1.27 0.37,2.86 3.55,4.41 2.04,0.94 4.25,1.46 6.5,1.53 2.78,0.11 5.52,-0.73 7.76,-2.37 2.11,-1.6 3.35,-4.09 3.37,-6.73 0,-6.07 -5.25,-7.49 -10.66,-9.37"
     style="fill:#29b5e8"
     id="path1540" /><path
     d="m 423.58341,159.86793 c -6.81,-0.39 -12.03,-6.19 -11.7,-13 -0.73,-6.46 3.92,-12.29 10.38,-13.02 6.46,-0.73 12.29,3.92 13.02,10.38 0.1,0.87 0.1,1.76 0,2.63 0.35,6.82 -4.88,12.63 -11.7,13 m 11.7,-22.84 -0.17,-0.24 -0.11,-0.14 c -2.65,-3.68 -6.89,-5.89 -11.42,-5.95 -8.53,0.42 -15.11,7.64 -14.75,16.2 -0.36,8.53 6.23,15.75 14.75,16.2 4.54,-0.08 8.79,-2.31 11.42,-6.01 l 0.12,-0.15 0.17,-0.23 v 4.81 c -0.02,0.56 0.27,1.08 0.75,1.37 0.48,0.29 1.08,0.29 1.56,0 0.48,-0.29 0.77,-0.81 0.75,-1.37 v -29.24 c 0.02,-0.56 -0.27,-1.08 -0.75,-1.37 -0.48,-0.29 -1.08,-0.29 -1.56,0 -0.48,0.29 -0.77,0.81 -0.75,1.37 v 4.76 z m 13.32,12.39 -0.09,0.09 v -31.09 c 0.03,-0.85 -0.64,-1.57 -1.5,-1.6 -0.3,0 -0.59,0.07 -0.85,0.22 -0.49,0.29 -0.78,0.81 -0.77,1.38 v 43.03 c -0.03,0.85 0.64,1.57 1.5,1.6 0.3,0 0.59,-0.07 0.85,-0.22 0.49,-0.29 0.78,-0.81 0.77,-1.38 v -7.43 l 6.36,-6.6 0.18,0.22 0.02,0.02 11.76,14.74 c 0.26,0.41 0.73,0.64 1.21,0.59 0.37,0.01 0.73,-0.11 1.02,-0.33 0.64,-0.62 0.69,-1.63 0.13,-2.31 l -12.08,-15.25 12.01,-12.07 c 0.62,-0.59 0.64,-1.57 0.05,-2.19 -0.02,-0.02 -0.04,-0.04 -0.05,-0.05 -0.27,-0.31 -0.67,-0.5 -1.08,-0.5 -0.41,0 -0.81,0.18 -1.08,0.5 l -18.17,18.39 -0.18,0.23 z m -47.35,-32.58 c -0.85,0.03 -1.53,0.73 -1.53,1.58 v 43.03 c -0.03,0.85 0.64,1.57 1.5,1.6 0.3,0 0.59,-0.07 0.85,-0.22 0.49,-0.29 0.78,-0.81 0.77,-1.38 v -43.06 c 0,-0.87 -0.72,-1.58 -1.59,-1.58 m -40.47,40.41 -0.02,0.05 -0.04,0.12 -0.04,-0.12 -0.13,-0.32 -7.01,-17.28 c -0.27,-0.6 -0.87,-0.99 -1.53,-0.99 -0.64,0.03 -1.2,0.41 -1.47,0.99 l -7.18,17.75 -0.04,-0.12 -9.05,-25.56 c -0.28,-0.77 -1.12,-1.17 -1.89,-0.89 -0.03,0.01 -0.06,0.02 -0.08,0.03 -0.74,0.38 -1.07,1.27 -0.76,2.05 l 10.43,29.11 c 0.1,0.32 0.33,0.59 0.63,0.73 0.06,0.08 0.15,0.13 0.25,0.13 0.18,0.07 0.38,0.12 0.57,0.13 0.6,-0.04 1.13,-0.42 1.33,-0.99 0,-0.05 0.03,-0.1 0.06,-0.13 l 7.19,-17.82 7.27,17.82 c 0.21,0.55 0.69,0.95 1.27,1.05 h 0.19 c 0.36,0 0.65,-0.12 0.89,-0.33 0.24,-0.21 0.46,-0.48 0.58,-0.79 l 10.37,-28.98 c 0.31,-0.79 -0.05,-1.69 -0.83,-2.05 -0.78,-0.31 -1.66,0.08 -1.97,0.86 l -8.88,25.2 -0.14,0.34 z m -90.19,-24.9 c 0.04,-0.55 -0.24,-1.08 -0.72,-1.37 -0.48,-0.29 -1.07,-0.29 -1.55,0 -0.48,0.28 -0.76,0.81 -0.72,1.37 v 29.5 c 0,0 0.06,0.08 0.06,0.13 -0.01,0.07 0.01,0.14 0.06,0.2 0.21,0.41 0.58,0.72 1.02,0.86 h 0.38 c 0.46,0 0.89,-0.22 1.15,-0.59 0.17,-0.21 0.28,-0.46 0.32,-0.73 v -17.82 c 0,-5.39 4.28,-9.81 9.66,-9.97 5.4,0.1 9.7,4.56 9.6,9.96 v 17.55 c -0.02,0.56 0.27,1.08 0.75,1.37 0.48,0.29 1.08,0.29 1.56,0 0.48,-0.29 0.77,-0.81 0.75,-1.37 v -17.55 c 0.11,-7.11 -5.54,-12.98 -12.66,-13.13 -3.76,0.02 -7.32,1.75 -9.66,4.69 z m 42.68,27.52 c -6.8,-0.41 -12.01,-6.2 -11.7,-13 -0.73,-6.46 3.92,-12.29 10.38,-13.02 6.46,-0.73 12.29,3.92 13.02,10.38 0.1,0.87 0.1,1.76 0,2.63 0.31,6.8 -4.9,12.59 -11.7,13 m 0,-29.17 c -8.5,0.47 -15.06,7.66 -14.75,16.17 -0.51,5.6 2.18,11 6.96,13.95 4.78,2.95 10.82,2.95 15.59,0 4.77,-2.95 7.47,-8.36 6.96,-13.95 0.33,-8.52 -6.24,-15.73 -14.75,-16.2 m -188.6,-20.97 23.62,14.16 c 2.69,1.62 6.15,1.17 8.33,-1.09 1.43,-1.38 2.24,-3.29 2.23,-5.28 v -28.39 c 0.15,-3.81 -2.82,-7.03 -6.63,-7.18 -1.34,-0.05 -2.66,0.28 -3.81,0.97 -2.18,1.29 -3.48,3.68 -3.38,6.21 v 16.16 l -13.42,-8.04 c -3.23,-1.92 -7.41,-0.86 -9.33,2.36 -0.05,0.09 -0.11,0.18 -0.16,0.27 -1.92,3.43 -0.8,7.77 2.54,9.85 m 56.78,14.13 23.62,-14.16 c 3.35,-2.08 4.46,-6.42 2.54,-9.85 -1.77,-3.31 -5.9,-4.56 -9.21,-2.79 -0.09,0.05 -0.18,0.1 -0.27,0.15 l -13.24,7.94 v -16.05 c 0.15,-3.81 -2.82,-7.03 -6.63,-7.18 -1.34,-0.05 -2.66,0.28 -3.81,0.97 -2.18,1.29 -3.48,3.68 -3.38,6.21 v 27.83 c -0.14,1.49 0.17,2.99 0.9,4.3 1.77,3.31 5.89,4.57 9.21,2.79 0.09,-0.05 0.18,-0.1 0.27,-0.16 m -21.03,16.14 c 0.02,-0.45 0.2,-0.89 0.49,-1.23 l 2.76,-2.87 c 0.33,-0.3 0.75,-0.48 1.2,-0.51 h 0.11 c 0.44,0.03 0.87,0.21 1.19,0.51 l 2.76,2.87 c 0.3,0.35 0.47,0.78 0.49,1.23 v 0.11 c -0.02,0.46 -0.19,0.89 -0.49,1.24 l -2.76,2.87 c -0.33,0.3 -0.75,0.48 -1.19,0.51 h -0.11 c -0.45,-0.03 -0.87,-0.21 -1.2,-0.51 l -2.76,-2.87 c -0.3,-0.35 -0.47,-0.78 -0.49,-1.24 z m -8.36,-1.18 v 2.48 c 0.03,0.62 0.27,1.22 0.67,1.69 l 9.37,9.73 c 0.44,0.42 1.02,0.67 1.63,0.7 h 2.38 c 0.61,-0.04 1.18,-0.28 1.63,-0.7 l 9.37,-9.73 c 0.41,-0.47 0.65,-1.07 0.67,-1.69 v -2.48 c -0.03,-0.62 -0.27,-1.22 -0.67,-1.69 l -9.37,-9.72 c -0.44,-0.42 -1.02,-0.67 -1.63,-0.7 h -2.38 c -0.61,0.04 -1.18,0.28 -1.63,0.7 l -9.37,9.73 c -0.41,0.47 -0.65,1.07 -0.67,1.69 m -39.62,-6.69 13.38,8.02 -13.38,8.02 c -3.34,2.08 -4.46,6.42 -2.54,9.85 1.77,3.31 5.9,4.56 9.21,2.79 0.09,-0.05 0.18,-0.1 0.27,-0.15 l 23.62,-14.16 c 3.5,-2.24 4.53,-6.89 2.29,-10.39 -0.59,-0.92 -1.37,-1.7 -2.29,-2.29 l -23.62,-14.17 c -3.23,-1.92 -7.41,-0.86 -9.33,2.36 -0.05,0.09 -0.11,0.18 -0.16,0.27 -1.92,3.43 -0.8,7.77 2.54,9.85 m 70.81,8.01 c -0.04,2.57 1.28,4.97 3.47,6.32 l 23.63,14.16 c 3.23,1.92 7.41,0.86 9.33,-2.37 0.05,-0.09 0.1,-0.18 0.15,-0.27 1.92,-3.43 0.8,-7.78 -2.54,-9.85 l -13.38,-8.02 13.38,-8.02 c 3.35,-2.07 4.46,-6.41 2.54,-9.85 -1.77,-3.31 -5.9,-4.56 -9.21,-2.79 -0.09,0.05 -0.18,0.1 -0.27,0.15 l -23.63,14.17 c -2.21,1.35 -3.53,3.78 -3.47,6.37 m -30.23,15.38 c -1.63,-0.32 -3.32,-0.01 -4.74,0.84 l -23.62,14.17 c -3.34,2.08 -4.46,6.41 -2.54,9.85 1.77,3.31 5.9,4.56 9.21,2.79 0.09,-0.05 0.18,-0.1 0.27,-0.15 l 13.42,-8.04 v 16.03 c -0.15,3.81 2.82,7.03 6.63,7.18 1.34,0.05 2.66,-0.28 3.81,-0.97 2.18,-1.29 3.48,-3.68 3.38,-6.21 v -28.43 c 0.05,-3.47 -2.41,-6.47 -5.82,-7.09 m 52.04,15.01 -23.62,-14.16 c -3.23,-1.92 -7.41,-0.87 -9.33,2.36 -0.05,0.09 -0.11,0.18 -0.15,0.27 -0.73,1.31 -1.04,2.81 -0.9,4.3 v 27.69 c -0.15,3.81 2.82,7.03 6.63,7.18 1.34,0.05 2.66,-0.28 3.81,-0.97 2.18,-1.29 3.48,-3.68 3.38,-6.21 v -15.92 l 13.24,7.94 c 3.23,1.92 7.41,0.86 9.33,-2.36 0.05,-0.09 0.11,-0.18 0.16,-0.27 1.92,-3.43 0.8,-7.77 -2.54,-9.85"
     style="fill:#29b5e8"
     id="path1542" /></g><!--!Font Awesome Free 6.5.1 by @fontawesome - https://fontawesome.com License - https://fontawesome.com/license/free Copyright 2024 Fonticons, Inc.--><path
   d="m 194.30865,82.74857 c 2.15024,-2.15024 2.15024,-5.63249 0,-7.78274 -1.90287,-1.90287 -4.9018,-2.15024 -7.0901,-0.58608 l -0.0609,0.0419 c -0.54803,0.39199 -0.67362,1.15314 -0.28163,1.69736 0.39199,0.54422 1.15314,0.67361 1.69736,0.28162 l 0.0609,-0.0419 c 1.22164,-0.87151 2.89236,-0.73451 3.95036,0.3273 1.1988,1.1988 1.1988,3.13973 0,4.33854 l -4.27005,4.27765 c -1.1988,1.19881 -3.13973,1.19881 -4.33854,0 -1.0618,-1.0618 -1.19881,-2.73252 -0.3273,-3.95036 l 0.0419,-0.0609 c 0.39199,-0.54802 0.26259,-1.30917 -0.28163,-1.69736 -0.54422,-0.38818 -1.30917,-0.26259 -1.69736,0.28163 l -0.0419,0.0609 c -1.56797,2.18449 -1.32059,5.18342 0.58228,7.08629 2.15024,2.15024 5.63249,2.15024 7.78274,0 z m -19.77464,-0.89054 c -2.15024,2.15024 -2.15024,5.6325 0,7.78274 1.90287,1.90287 4.9018,2.15025 7.0901,0.58609 l 0.0609,-0.0419 c 0.54803,-0.392 0.67362,-1.15314 0.28163,-1.69737 -0.39199,-0.54422 -1.15314,-0.67361 -1.69736,-0.28162 l -0.0609,0.0419 c -1.22164,0.87151 -2.89236,0.73451 -3.95036,-0.32729 -1.1988,-1.20262 -1.1988,-3.14355 0,-4.34236 l 4.27005,-4.27384 c 1.1988,-1.19881 3.13973,-1.19881 4.33854,0 1.0618,1.0618 1.19881,2.73252 0.3273,3.95416 l -0.0419,0.0609 c -0.39199,0.54803 -0.26259,1.30918 0.28163,1.69736 0.54422,0.38819 1.30917,0.2626 1.69736,-0.28162 l 0.0419,-0.0609 c 1.56797,-2.1883 1.32059,-5.18723 -0.58228,-7.0901 -2.15024,-2.15024 -5.6325,-2.15024 -7.78274,0 z"
   id="path1862"
   style="fill:#484848;fill-opacity:1;stroke-width:0.0380574" /></svg>
