<svg xmlns="http://www.w3.org/2000/svg" data-name="Layer 1" viewBox="0 0 100 125" x="0px" y="0px"><defs><style>.cls-1{fill-rule:evenodd;}</style></defs><title>a</title><path class="cls-1" d="M34.317,34.74v-.986h1.972V35.9H34.317V34.74Zm4.359,0v-.986h1.972V35.9H38.676V34.74Zm-4.359,5.288v-.986h1.972v2.146H34.317v-1.16Zm4.359,0v-.986h1.972v2.146H38.676v-1.16Zm-4.359,5.287v-.986h1.972v2.146H34.317v-1.16Zm4.359,0v-.986h1.972v2.146H38.676v-1.16ZM34.317,50.6v-.986h1.972v2.146H34.317V50.6Zm4.359,0v-.986h1.972v2.146H38.676V50.6ZM47.25,34.74v-.986h1.972V35.9H47.25V34.74Zm4.359,0v-.986h1.972V35.9H51.609V34.74ZM47.25,40.028v-.986h1.972v2.146H47.25v-1.16Zm4.359,0v-.986h1.972v2.146H51.609v-1.16ZM47.25,45.315v-.986h1.972v2.146H47.25v-1.16Zm4.359,0v-.986h1.972v2.146H51.609v-1.16ZM47.25,50.6v-.986h1.972v2.146H47.25V50.6Zm4.359,0v-.986h1.972v2.146H51.609V50.6ZM47.25,29.452v-.986h1.972v2.146H47.25v-1.16Zm4.359,0v-.986h1.972v2.146H51.609v-1.16ZM64.5,70.814l.151,7.046,5.94-3.792L64.5,70.814ZM76.941,52.77l-2.794-1.492L64.811,68.753l2.794,1.493L76.941,52.77Zm.449-7.561,7.319,3.91,1.123-2.1a1.379,1.379,0,0,0-.562-1.856l-4.9-2.618a1.378,1.378,0,0,0-1.857.562l-1.123,2.1ZM76,69.591l7.222-13.518A1.989,1.989,0,0,0,85.5,55.1l1.375-2.574a1.989,1.989,0,0,0-.458-2.437l1.1-2.067a.92.92,0,0,0,.091-.173,3.343,3.343,0,0,0-1.327-4.367.958.958,0,0,0-.172-.094L81.294,40.81a3.343,3.343,0,0,0-4.514,1.371L76,43.642V11.965a3.6,3.6,0,0,0-3.588-3.589H24.7a.981.981,0,0,0-.706.3L12.332,20.333a.98.98,0,0,0-.289.7V88.036a3.6,3.6,0,0,0,3.588,3.588h56.78A3.6,3.6,0,0,0,76,88.036V69.591ZM74.1,68.969l-1.973,3.7-2.794-1.493L78.673,53.7l2.794,1.492L74.189,68.811a1.044,1.044,0,0,0-.085.158Zm1.009-22.75,9.537,5.095h0l.487.26.007.01a.022.022,0,0,1,0,.014l-1.375,2.574-.01.006a.015.015,0,0,1-.013,0l-9.54-5.1h0l-.488-.26-.007-.01a.022.022,0,0,1,0-.014l1.375-2.574,0,0,.024,0ZM25.683,10.348v8.08a3.59,3.59,0,0,1-3.589,3.584l-8.079,0v66.02a1.625,1.625,0,0,0,1.616,1.616h56.78a1.624,1.624,0,0,0,1.616-1.616V73.282L73.4,74.455l-.019.034v0l-.01.016,0,.006-.011.017h0a.978.978,0,0,1-.316.3l-8.78,5.6a.982.982,0,0,1-1.536-.792L62.5,69.176v-.1l0-.012v-.017h0a.983.983,0,0,1,.121-.371l9.81-18.362a1.986,1.986,0,0,1-.458-2.437L73.354,45.3a1.963,1.963,0,0,1,.673-.731v-32.6a1.624,1.624,0,0,0-1.616-1.617ZM15.4,20.051l8.309-8.309v6.686a1.632,1.632,0,0,1-1.617,1.62l-6.692,0Zm29.6,35.074H55.824V20.236l-10.817,3.68V55.125Zm-12.789,0H43.035V29.14H32.218V55.125ZM23.465,57.1H64.578a.986.986,0,1,0,0-1.972H57.8V18.861a.987.987,0,0,0-1.364-.911L43.705,22.28a.984.984,0,0,0-.668.932h0v3.956h-11.8a.987.987,0,0,0-.986.986V55.125H23.465a.986.986,0,0,0,0,1.972Zm2.482,4.247a1.644,1.644,0,1,1-1.162-.481,1.638,1.638,0,0,1,1.162.481Zm-1.162-2.453a3.619,3.619,0,0,1,3.479,2.629H54.106a5.408,5.408,0,0,1,5.236,3.095,5.225,5.225,0,0,1,0,4.274,5.409,5.409,0,0,1-5.236,3.094h-25.9a3.515,3.515,0,0,0-3.44,1.924,3.327,3.327,0,0,0,0,2.672,3.515,3.515,0,0,0,3.44,1.924H58.85a.986.986,0,0,1,0,1.972H28.208a5.406,5.406,0,0,1-5.235-3.095,5.225,5.225,0,0,1,0-4.274,5.408,5.408,0,0,1,5.235-3.095h25.9a3.515,3.515,0,0,0,3.441-1.923,3.327,3.327,0,0,0,0-2.672,3.516,3.516,0,0,0-3.441-1.924H28.264a3.615,3.615,0,1,1-3.479-4.6Z"/><text x="0" y="115" fill="#000000" font-size="5px" font-weight="bold" font-family="'Helvetica Neue', Helvetica, Arial-Unicode, Arial, Sans-serif">Created by Happy Girl</text><text x="0" y="120" fill="#000000" font-size="5px" font-weight="bold" font-family="'Helvetica Neue', Helvetica, Arial-Unicode, Arial, Sans-serif">from the Noun Project</text></svg>